<?xml version="1.0" encoding="UTF-8" standalone="no"?>
<svg width="166px" height="156px" viewBox="0 0 166 156" version="1.1" xmlns="http://www.w3.org/2000/svg" xmlns:xlink="http://www.w3.org/1999/xlink" xmlns:sketch="http://www.bohemiancoding.com/sketch/ns">
    <title>heart-nonliving</title>
    <description>Created with Sketch (http://www.bohemiancoding.com/sketch)</description>
    <defs></defs>
    <g id="Lessons" stroke="none" stroke-width="1" fill="none" fill-rule="evenodd" sketch:type="MSPage">
        <g id="heart-nonliving" sketch:type="MSArtboardGroup">
            <g id="path7-copy-+-Imported-Layers" sketch:type="MSLayerGroup" transform="translate(14.000000, 9.000000)">
                <path d="M48.0508994,38 C35.8787705,38 26,47.0169875 26,58.1271437 C26,80.7292042 50.9787003,86.655371 67.9999502,109 C84.0924217,86.7924319 110,80.0076472 110,58.1271437 C110,47.0169874 100.121146,38 87.9491326,38 C79.1200149,38 71.5208631,42.7584942 67.9999503,49.6045109 C64.4790374,42.7584942 56.8800213,38 48.0508996,38 L48.0508996,38 L48.0508994,38 L48.0508994,38 Z M48.0508994,38" id="path7-copy" fill="#F1162F" sketch:type="MSShapeGroup"></path>
                <path d="M68.9433204,0.260057478 C78.4762092,0.260057478 87.4117991,2.07584581 95.7500903,5.70742247 C104.064489,9.31510718 111.327643,14.2607412 117.53955,20.4487567 C123.727566,26.6845561 128.6732,33.9238175 132.280884,42.2382167 C135.912461,50.5765078 137.728249,59.4882058 137.728249,69.0449865 C137.728249,78.6017672 135.912461,87.5373571 132.280884,95.8517563 C128.6732,104.190047 123.727566,111.429309 117.53955,117.665108 C111.327643,123.853124 104.064489,128.774866 95.7500903,132.406442 C87.4117991,136.061911 78.4762092,137.853807 68.9433204,137.853807 C59.3865397,137.853807 50.4509498,136.061911 42.1365506,132.406442 C33.7982594,128.774866 26.5589981,123.853124 20.3231987,117.665108 C14.1351832,111.429309 9.2134411,104.190047 5.58186444,95.8517563 C1.92639582,87.5373571 0.134499442,78.6017672 0.134499442,69.0449865 C0.134499442,59.4882058 1.92639582,50.5765078 5.58186444,42.2382167 C9.2134411,33.9238175 14.1351832,26.6845561 20.3231987,20.4487567 C26.5589981,14.2607412 33.7982594,9.31510718 42.1365506,5.70742247 C50.4509498,2.07584581 59.3865397,0.260057478 68.9433204,0.260057478 C68.9433204,0.260057478 59.3865397,0.260057478 68.9433204,0.260057478 L68.9433204,0.260057478 L68.9433204,0.260057478 Z M16.7632978,69.0449865 C16.7632978,75.1852181 17.7667598,81.0865302 19.7497918,86.8444905 C21.7806077,92.554667 24.6715339,97.6436527 28.5181381,102.01588 L102.200917,28.3331008 C97.6136625,24.5342804 92.4768929,21.6194623 86.8622842,19.6125384 C81.2237836,17.6056144 75.2507957,16.6021525 68.9433204,16.6021525 C61.6562751,16.6021525 54.8948528,17.9878857 48.5873775,20.7593521 C42.2560103,23.5308185 36.7130775,27.234071 31.9585791,31.9168935 C27.1562968,36.623608 23.4530443,42.1426489 20.7532538,48.5456919 C18.1012471,54.9726269 16.7632978,61.8057251 16.7632978,69.0449865 C16.7632978,69.0449865 16.7632978,61.8057251 16.7632978,69.0449865 L16.7632978,69.0449865 L16.7632978,69.0449865 Z M68.9433204,121.248901 C76.2064737,121.248901 83.01568,119.839276 89.442615,117.067809 C95.8456581,114.296343 101.364699,110.593091 106.071413,105.886376 C110.754236,101.227445 114.457488,95.7322966 117.252847,89.4009294 C120.000421,83.0934541 121.386154,76.3320318 121.386154,69.0449865 C121.386154,62.7375112 120.334909,56.7167394 118.232417,51.0065629 C116.153817,45.2486026 113.262891,40.1835088 109.655206,35.7873897 L35.972427,109.470169 C40.3685462,113.316773 45.385856,116.231591 51.0243566,118.238515 C56.6389653,120.221547 62.6119532,121.248901 68.9433204,121.248901 L68.9433204,121.248901 Z M68.9433204,121.248901" id="Imported-Layers" fill="#FFFFFF" sketch:type="MSShapeGroup"></path>
            </g>
        </g>
    </g>
</svg>