<?xml version="1.0" encoding="UTF-8" standalone="no"?>
<svg width="375px" height="300px" viewBox="0 0 375 300" version="1.1" xmlns="http://www.w3.org/2000/svg" xmlns:xlink="http://www.w3.org/1999/xlink" xmlns:sketch="http://www.bohemiancoding.com/sketch/ns">
    <title>adj-quanity</title>
    <description>Created with Sketch (http://www.bohemiancoding.com/sketch)</description>
    <defs></defs>
    <g id="Adjectives" stroke="none" stroke-width="1" fill="none" fill-rule="evenodd" sketch:type="MSPage">
        <g id="adj-quanity" sketch:type="MSArtboardGroup" fill="#0090D7">
            <path d="M187.5,52 L335,300 L40,300 L187.5,52 Z M202.018636,207.361458 L200.719844,216.638542 L208.605365,216.638542 L208.605365,226.286709 L199.513823,226.286709 L196.730698,244.840876 L186.525906,244.840876 L189.21626,226.286709 L181.887364,226.286709 L179.19701,244.840876 L168.992218,244.840876 L171.682572,226.286709 L163.797051,226.286709 L163.797051,216.638542 L172.981364,216.638542 L174.372927,207.361458 L166.487405,207.361458 L166.487405,197.713291 L175.578947,197.713291 L178.269302,179.159124 L188.566865,179.159124 L185.87651,197.713291 L193.112636,197.713291 L195.80299,179.159124 L206.007782,179.159124 L203.410199,197.713291 L211.202949,197.713291 L211.202949,207.361458 L202.018636,207.361458 Z M184.484948,207.361458 L183.278927,216.638542 L190.515052,216.638542 L191.813844,207.361458 L184.484948,207.361458 Z M184.484948,207.361458" id="Triangle-1-copy-2" sketch:type="MSShapeGroup"></path>
        </g>
    </g>
</svg>