<?xml version="1.0" encoding="UTF-8" standalone="no"?>
<svg width="375px" height="300px" viewBox="0 0 375 300" version="1.1" xmlns="http://www.w3.org/2000/svg" xmlns:xlink="http://www.w3.org/1999/xlink" xmlns:sketch="http://www.bohemiancoding.com/sketch/ns">
    <title>adv-time</title>
    <description>Created with Sketch (http://www.bohemiancoding.com/sketch)</description>
    <defs></defs>
    <g id="Adverbs-Copy" stroke="none" stroke-width="1" fill="none" fill-rule="evenodd" sketch:type="MSPage">
        <g id="adv-time" sketch:type="MSArtboardGroup" fill="#FF7E29">
            <path d="M113.500074,224 C113.500074,264.869164 146.63091,298 187.499926,298 C228.369238,298 261.499926,264.869164 261.499926,224 C261.499926,183.130984 228.369238,150 187.499926,150 C146.63091,150 113.500074,183.130984 113.500074,224 Z M187.758749,171 C195.16881,171 202.075908,172.38958 208.484034,175.167854 C214.887724,177.947015 220.524994,181.767585 225.387861,186.630451 C230.250283,191.493318 234.071297,197.130144 236.850014,203.534278 C239.628732,209.942404 241.018312,216.849058 241.018312,224.259119 C241.018312,231.66918 239.628732,238.579825 236.850014,244.983516 C234.071297,251.391642 230.250283,257.02492 225.387861,261.887787 C220.524994,266.750653 214.887724,270.571223 208.484034,273.350384 C202.075908,276.128658 195.16881,277.518238 187.758749,277.518238 C180.349132,277.518238 173.438487,276.128658 167.034352,273.350384 C160.62667,270.571223 154.992948,266.750653 150.130525,261.887787 C145.267659,257.02492 141.447089,251.391642 138.667928,244.983516 C135.889211,238.579825 134.500074,231.66918 134.500074,224.259119 C134.500074,216.849058 135.889211,209.942404 138.667928,203.534278 C141.447089,197.130144 145.267659,191.493318 150.130525,186.630451 C154.992948,181.767585 160.62667,177.947015 167.034352,175.167854 C173.438487,172.38958 180.349132,171 187.758749,171 C187.758749,171 180.349132,171 187.758749,171 Z M187.758749,265.940323 C193.468315,265.940323 198.873619,264.862101 203.968452,262.698116 C209.062841,260.538124 213.498587,257.567801 217.282788,253.782714 C221.063884,250.002061 224.03465,245.562767 226.19819,240.468378 C228.358183,235.373545 229.439953,229.972233 229.439953,224.259119 C229.439953,218.549553 228.358183,213.14425 226.19819,208.04986 C224.03465,202.955471 221.063884,198.519725 217.282788,194.735081 C213.498587,190.953985 209.062841,187.983662 203.968452,185.820122 C198.873619,183.660129 193.468315,182.577915 187.758749,182.577915 C182.046079,182.577915 176.64388,183.660129 171.549934,185.820122 C166.455545,187.983662 162.015807,190.953985 158.234711,194.735081 C154.450511,198.519725 151.479745,202.955471 149.319752,208.04986 C147.156211,213.14425 146.077989,218.549553 146.077989,224.259119 C146.077989,229.972233 147.156211,235.373545 149.319752,240.468378 C151.479745,245.562767 154.450511,250.002061 158.234711,253.782714 C162.015807,257.567801 166.455545,260.538124 171.549934,262.698116 C176.64388,264.862101 182.046079,265.940323 187.758749,265.940323 C187.758749,265.940323 182.046079,265.940323 187.758749,265.940323 L187.758749,265.940323 L187.758749,265.940323 Z M191.927047,222.406493 L209.294363,239.773366 L203.504962,245.562767 L183.822418,225.879779 L183.822418,194.156274 L191.927047,194.156274 L191.927047,222.406493 L191.927047,222.406493 Z M191.927047,222.406493" id="Verb---Blank-copy" sketch:type="MSShapeGroup"></path>
        </g>
    </g>
</svg>