<?xml version="1.0" encoding="UTF-8" standalone="no"?>
<svg width="375px" height="300px" viewBox="0 0 375 300" version="1.1" xmlns="http://www.w3.org/2000/svg" xmlns:xlink="http://www.w3.org/1999/xlink" xmlns:sketch="http://www.bohemiancoding.com/sketch/ns">
    <title>art-some</title>
    <description>Created with Sketch (http://www.bohemiancoding.com/sketch)</description>
    <defs></defs>
    <g id="Articles" stroke="none" stroke-width="1" fill="none" fill-rule="evenodd" sketch:type="MSPage">
        <g id="art-some" sketch:type="MSArtboardGroup" fill="#8FCFF5">
            <path d="M197.5,101 L316,300 L79,300 L197.5,101 Z M145.756,242.288 C145.158664,241.503996 144.337339,240.82267 143.292,240.244 C142.246661,239.66533 141.108006,239.376 139.876,239.376 C138.793328,239.376 137.804004,239.599998 136.908,240.048 C136.011996,240.496002 135.564,241.242661 135.564,242.288 C135.564,243.333339 136.058662,244.070665 137.048,244.5 C138.037338,244.929335 139.48399,245.367998 141.388,245.816 C142.396005,246.040001 143.413328,246.338665 144.44,246.712 C145.466672,247.085335 146.399996,247.579997 147.24,248.196 C148.080004,248.812003 148.761331,249.577329 149.284,250.492 C149.806669,251.406671 150.068,252.517327 150.068,253.824 C150.068,255.466675 149.760003,256.857328 149.144,257.996 C148.527997,259.134672 147.706672,260.058663 146.68,260.768 C145.653328,261.477337 144.458673,261.990665 143.096,262.308 C141.733327,262.625335 140.324007,262.784 138.868,262.784 C136.777323,262.784 134.742677,262.401337 132.764,261.636 C130.785323,260.870663 129.142673,259.778674 127.836,258.36 L132.26,254.216 C133.00667,255.186672 133.977327,255.98933 135.172,256.624 C136.366673,257.25867 137.691993,257.576 139.148,257.576 C139.633336,257.576 140.127997,257.520001 140.632,257.408 C141.136003,257.295999 141.602665,257.118668 142.032,256.876 C142.461335,256.633332 142.806665,256.306669 143.068,255.896 C143.329335,255.485331 143.46,254.981336 143.46,254.384 C143.46,253.263994 142.946672,252.461336 141.92,251.976 C140.893328,251.490664 139.353344,251.005336 137.3,250.52 C136.291995,250.295999 135.312005,250.006668 134.36,249.652 C133.407995,249.297332 132.55867,248.83067 131.812,248.252 C131.06533,247.67333 130.468002,246.954671 130.02,246.096 C129.571998,245.237329 129.348,244.17334 129.348,242.904 C129.348,241.410659 129.655997,240.122672 130.272,239.04 C130.888003,237.957328 131.699995,237.07067 132.708,236.38 C133.716005,235.68933 134.85466,235.176002 136.124,234.84 C137.39334,234.503998 138.699993,234.336 140.044,234.336 C141.985343,234.336 143.879991,234.671997 145.728,235.344 C147.576009,236.016003 149.041328,237.04266 150.124,238.424 C150.124,238.424 149.041328,237.04266 150.124,238.424 L145.756,242.288 Z M154.324,248.448 C154.324,246.319989 154.706663,244.388009 155.472,242.652 C156.237337,240.915991 157.273327,239.432006 158.58,238.2 C159.886673,236.967994 161.435991,236.016003 163.228,235.344 C165.020009,234.671997 166.92399,234.336 168.94,234.336 C170.95601,234.336 172.859991,234.671997 174.652,235.344 C176.444009,236.016003 177.993327,236.967994 179.3,238.2 C180.606673,239.432006 181.642663,240.915991 182.408,242.652 C183.173337,244.388009 183.556,246.319989 183.556,248.448 C183.556,250.576011 183.173337,252.517325 182.408,254.272 C181.642663,256.026675 180.606673,257.529327 179.3,258.78 C177.993327,260.030673 176.444009,261.010663 174.652,261.72 C172.859991,262.429337 170.95601,262.784 168.94,262.784 C166.92399,262.784 165.020009,262.429337 163.228,261.72 C161.435991,261.010663 159.886673,260.030673 158.58,258.78 C157.273327,257.529327 156.237337,256.026675 155.472,254.272 C154.706663,252.517325 154.324,250.576011 154.324,248.448 C154.324,248.448 154.324,250.576011 154.324,248.448 Z M161.156,248.448 C161.156,249.493339 161.314665,250.538661 161.632,251.584 C161.949335,252.629339 162.42533,253.562663 163.06,254.384 C163.69467,255.205337 164.497328,255.877331 165.468,256.4 C166.438672,256.922669 167.595993,257.184 168.94,257.184 C170.284007,257.184 171.441328,256.922669 172.412,256.4 C173.382672,255.877331 174.18533,255.205337 174.82,254.384 C175.45467,253.562663 175.930665,252.629339 176.248,251.584 C176.565335,250.538661 176.724,249.493339 176.724,248.448 C176.724,247.402661 176.565335,246.366672 176.248,245.34 C175.930665,244.313328 175.45467,243.389337 174.82,242.568 C174.18533,241.746663 173.382672,241.084003 172.412,240.58 C171.441328,240.075997 170.284007,239.824 168.94,239.824 C167.595993,239.824 166.438672,240.075997 165.468,240.58 C164.497328,241.084003 163.69467,241.746663 163.06,242.568 C162.42533,243.389337 161.949335,244.313328 161.632,245.34 C161.314665,246.366672 161.156,247.402661 161.156,248.448 C161.156,248.448 161.156,247.402661 161.156,248.448 Z M222.14,234.336 C223.894675,234.336 225.397327,234.643997 226.648,235.26 C227.898673,235.876003 228.925329,236.687995 229.728,237.696 C230.530671,238.704005 231.118665,239.861327 231.492,241.168 C231.865335,242.474673 232.052,243.81866 232.052,245.2 L232.052,262 L225.332,262 L225.332,247.104 C225.332,246.319996 225.276001,245.498671 225.164,244.64 C225.051999,243.781329 224.809335,243.00667 224.436,242.316 C224.062665,241.62533 223.549337,241.056002 222.896,240.608 C222.242663,240.159998 221.374672,239.936 220.292,239.936 C219.246661,239.936 218.35067,240.159998 217.604,240.608 C216.85733,241.056002 216.241336,241.634663 215.756,242.344 C215.270664,243.053337 214.916001,243.846662 214.692,244.724 C214.467999,245.601338 214.356,246.469329 214.356,247.328 L214.356,262 L207.636,262 L207.636,245.76 C207.636,244.079992 207.234671,242.689339 206.432,241.588 C205.629329,240.486661 204.369342,239.936 202.652,239.936 C201.643995,239.936 200.76667,240.150665 200.02,240.58 C199.27333,241.009335 198.666669,241.559997 198.2,242.232 C197.733331,242.904003 197.378668,243.678662 197.136,244.556 C196.893332,245.433338 196.772,246.319996 196.772,247.216 L196.772,262 L190.052,262 L190.052,235.12 L196.436,235.12 L196.436,239.432 L196.548,239.432 C196.846668,238.759997 197.247997,238.125336 197.752,237.528 C198.256003,236.930664 198.85333,236.389336 199.544,235.904 C200.23467,235.418664 201.027996,235.036001 201.924,234.756 C202.820004,234.475999 203.809328,234.336 204.892,234.336 C206.982677,234.336 208.71866,234.802662 210.1,235.736 C211.48134,236.669338 212.54533,237.901326 213.292,239.432 C214.188004,237.789325 215.382659,236.529338 216.876,235.652 C218.369341,234.774662 220.12399,234.336 222.14,234.336 C222.14,234.336 220.12399,234.336 222.14,234.336 Z M258.82,245.872 C258.82,245.013329 258.698668,244.192004 258.456,243.408 C258.213332,242.623996 257.830669,241.933336 257.308,241.336 C256.785331,240.738664 256.122671,240.262668 255.32,239.908 C254.517329,239.553332 253.574672,239.376 252.492,239.376 C250.47599,239.376 248.768007,239.982661 247.368,241.196 C245.967993,242.409339 245.193334,243.96799 245.044,245.872 C245.044,245.872 245.193334,243.96799 245.044,245.872 L258.82,245.872 Z M265.54,248.896 L265.54,249.792 C265.54,250.090668 265.521334,250.389332 265.484,250.688 L245.044,250.688 C245.118667,251.658672 245.370665,252.545329 245.8,253.348 C246.229335,254.150671 246.798663,254.84133 247.508,255.42 C248.217337,255.99867 249.019996,256.455998 249.916,256.792 C250.812004,257.128002 251.745328,257.296 252.716,257.296 C254.396008,257.296 255.814661,256.988003 256.972,256.372 C258.129339,255.755997 259.08133,254.906672 259.828,253.824 L264.308,257.408 C261.65732,260.992018 257.812025,262.784 252.772,262.784 C250.681323,262.784 248.758675,262.457337 247.004,261.804 C245.249325,261.150663 243.728006,260.226673 242.44,259.032 C241.151994,257.837327 240.144004,256.372009 239.416,254.636 C238.687996,252.899991 238.324,250.930678 238.324,248.728 C238.324,246.562656 238.687996,244.593342 239.416,242.82 C240.144004,241.046658 241.14266,239.534673 242.412,238.284 C243.68134,237.033327 245.183991,236.06267 246.92,235.372 C248.656009,234.68133 250.53199,234.336 252.548,234.336 C254.414676,234.336 256.141325,234.643997 257.728,235.26 C259.314675,235.876003 260.686661,236.790661 261.844,238.004 C263.001339,239.217339 263.906663,240.729324 264.56,242.54 C265.213337,244.350676 265.54,246.469321 265.54,248.896 C265.54,248.896 265.54,246.469321 265.54,248.896 Z M265.54,248.896" id="Triangle-1-copy-3" sketch:type="MSShapeGroup"></path>
        </g>
    </g>
</svg>