<?xml version="1.0" encoding="UTF-8" standalone="no"?>
<svg width="375px" height="300px" viewBox="0 0 375 300" version="1.1" xmlns="http://www.w3.org/2000/svg" xmlns:xlink="http://www.w3.org/1999/xlink" xmlns:sketch="http://www.bohemiancoding.com/sketch/ns">
    <title>art-these</title>
    <description>Created with Sketch (http://www.bohemiancoding.com/sketch)</description>
    <defs></defs>
    <g id="Articles" stroke="none" stroke-width="1" fill="none" fill-rule="evenodd" sketch:type="MSPage">
        <g id="art-these" sketch:type="MSArtboardGroup" fill="#8FCFF5">
            <path d="M173.5,101 L292,300 L55,300 L173.5,101 Z M103.22,240.496 L103.22,235.12 L107.924,235.12 L107.924,227.336 L114.532,227.336 L114.532,235.12 L121.252,235.12 L121.252,240.496 L114.532,240.496 L114.532,252.984 C114.532,254.178673 114.746665,255.167996 115.176,255.952 C115.605335,256.736004 116.566659,257.128 118.06,257.128 C118.508002,257.128 118.993331,257.081334 119.516,256.988 C120.038669,256.894666 120.505331,256.754668 120.916,256.568 L121.14,261.832 C120.542664,262.056001 119.833337,262.233333 119.012,262.364 C118.190663,262.494667 117.40667,262.56 116.66,262.56 C114.867991,262.56 113.412006,262.308003 112.292,261.804 C111.171994,261.299997 110.285337,260.609338 109.632,259.732 C108.978663,258.854662 108.530668,257.846672 108.288,256.708 C108.045332,255.569328 107.924,254.346673 107.924,253.04 L107.924,240.496 L103.22,240.496 Z M141.076,234.336 C142.830675,234.336 144.333327,234.643997 145.584,235.26 C146.834673,235.876003 147.861329,236.687995 148.664,237.696 C149.466671,238.704005 150.054665,239.861327 150.428,241.168 C150.801335,242.474673 150.988,243.81866 150.988,245.2 L150.988,262 L144.268,262 L144.268,247.216 C144.268,246.431996 144.212001,245.620004 144.1,244.78 C143.987999,243.939996 143.754668,243.17467 143.4,242.484 C143.045332,241.79333 142.541337,241.224002 141.888,240.776 C141.234663,240.327998 140.366672,240.104 139.284,240.104 C138.201328,240.104 137.268004,240.309331 136.484,240.72 C135.699996,241.130669 135.046669,241.68133 134.524,242.372 C134.001331,243.06267 133.609335,243.837329 133.348,244.696 C133.086665,245.554671 132.956,246.431996 132.956,247.328 L132.956,262 L126.236,262 L126.236,219.664 L132.956,219.664 L132.956,238.872 L133.068,238.872 C133.329335,238.311997 133.711997,237.761336 134.216,237.22 C134.720003,236.678664 135.307997,236.193335 135.98,235.764 C136.652003,235.334665 137.417329,234.989335 138.276,234.728 C139.134671,234.466665 140.067995,234.336 141.076,234.336 C141.076,234.336 140.067995,234.336 141.076,234.336 Z M177.756,245.872 C177.756,245.013329 177.634668,244.192004 177.392,243.408 C177.149332,242.623996 176.766669,241.933336 176.244,241.336 C175.721331,240.738664 175.058671,240.262668 174.256,239.908 C173.453329,239.553332 172.510672,239.376 171.428,239.376 C169.41199,239.376 167.704007,239.982661 166.304,241.196 C164.903993,242.409339 164.129334,243.96799 163.98,245.872 C163.98,245.872 164.129334,243.96799 163.98,245.872 L177.756,245.872 Z M184.476,248.896 L184.476,249.792 C184.476,250.090668 184.457334,250.389332 184.42,250.688 L163.98,250.688 C164.054667,251.658672 164.306665,252.545329 164.736,253.348 C165.165335,254.150671 165.734663,254.84133 166.444,255.42 C167.153337,255.99867 167.955996,256.455998 168.852,256.792 C169.748004,257.128002 170.681328,257.296 171.652,257.296 C173.332008,257.296 174.750661,256.988003 175.908,256.372 C177.065339,255.755997 178.01733,254.906672 178.764,253.824 L183.244,257.408 C180.59332,260.992018 176.748025,262.784 171.708,262.784 C169.617323,262.784 167.694675,262.457337 165.94,261.804 C164.185325,261.150663 162.664006,260.226673 161.376,259.032 C160.087994,257.837327 159.080004,256.372009 158.352,254.636 C157.623996,252.899991 157.26,250.930678 157.26,248.728 C157.26,246.562656 157.623996,244.593342 158.352,242.82 C159.080004,241.046658 160.07866,239.534673 161.348,238.284 C162.61734,237.033327 164.119991,236.06267 165.856,235.372 C167.592009,234.68133 169.46799,234.336 171.484,234.336 C173.350676,234.336 175.077325,234.643997 176.664,235.26 C178.250675,235.876003 179.622661,236.790661 180.78,238.004 C181.937339,239.217339 182.842663,240.729324 183.496,242.54 C184.149337,244.350676 184.476,246.469321 184.476,248.896 C184.476,248.896 184.476,246.469321 184.476,248.896 Z M205.7,242.288 C205.102664,241.503996 204.281339,240.82267 203.236,240.244 C202.190661,239.66533 201.052006,239.376 199.82,239.376 C198.737328,239.376 197.748004,239.599998 196.852,240.048 C195.955996,240.496002 195.508,241.242661 195.508,242.288 C195.508,243.333339 196.002662,244.070665 196.992,244.5 C197.981338,244.929335 199.42799,245.367998 201.332,245.816 C202.340005,246.040001 203.357328,246.338665 204.384,246.712 C205.410672,247.085335 206.343996,247.579997 207.184,248.196 C208.024004,248.812003 208.705331,249.577329 209.228,250.492 C209.750669,251.406671 210.012,252.517327 210.012,253.824 C210.012,255.466675 209.704003,256.857328 209.088,257.996 C208.471997,259.134672 207.650672,260.058663 206.624,260.768 C205.597328,261.477337 204.402673,261.990665 203.04,262.308 C201.677327,262.625335 200.268007,262.784 198.812,262.784 C196.721323,262.784 194.686677,262.401337 192.708,261.636 C190.729323,260.870663 189.086673,259.778674 187.78,258.36 L192.204,254.216 C192.95067,255.186672 193.921327,255.98933 195.116,256.624 C196.310673,257.25867 197.635993,257.576 199.092,257.576 C199.577336,257.576 200.071997,257.520001 200.576,257.408 C201.080003,257.295999 201.546665,257.118668 201.976,256.876 C202.405335,256.633332 202.750665,256.306669 203.012,255.896 C203.273335,255.485331 203.404,254.981336 203.404,254.384 C203.404,253.263994 202.890672,252.461336 201.864,251.976 C200.837328,251.490664 199.297344,251.005336 197.244,250.52 C196.235995,250.295999 195.256005,250.006668 194.304,249.652 C193.351995,249.297332 192.50267,248.83067 191.756,248.252 C191.00933,247.67333 190.412002,246.954671 189.964,246.096 C189.515998,245.237329 189.292,244.17334 189.292,242.904 C189.292,241.410659 189.599997,240.122672 190.216,239.04 C190.832003,237.957328 191.643995,237.07067 192.652,236.38 C193.660005,235.68933 194.79866,235.176002 196.068,234.84 C197.33734,234.503998 198.643993,234.336 199.988,234.336 C201.929343,234.336 203.823991,234.671997 205.672,235.344 C207.520009,236.016003 208.985328,237.04266 210.068,238.424 C210.068,238.424 208.985328,237.04266 210.068,238.424 L205.7,242.288 Z M234.764,245.872 C234.764,245.013329 234.642668,244.192004 234.4,243.408 C234.157332,242.623996 233.774669,241.933336 233.252,241.336 C232.729331,240.738664 232.066671,240.262668 231.264,239.908 C230.461329,239.553332 229.518672,239.376 228.436,239.376 C226.41999,239.376 224.712007,239.982661 223.312,241.196 C221.911993,242.409339 221.137334,243.96799 220.988,245.872 C220.988,245.872 221.137334,243.96799 220.988,245.872 L234.764,245.872 Z M241.484,248.896 L241.484,249.792 C241.484,250.090668 241.465334,250.389332 241.428,250.688 L220.988,250.688 C221.062667,251.658672 221.314665,252.545329 221.744,253.348 C222.173335,254.150671 222.742663,254.84133 223.452,255.42 C224.161337,255.99867 224.963996,256.455998 225.86,256.792 C226.756004,257.128002 227.689328,257.296 228.66,257.296 C230.340008,257.296 231.758661,256.988003 232.916,256.372 C234.073339,255.755997 235.02533,254.906672 235.772,253.824 L240.252,257.408 C237.60132,260.992018 233.756025,262.784 228.716,262.784 C226.625323,262.784 224.702675,262.457337 222.948,261.804 C221.193325,261.150663 219.672006,260.226673 218.384,259.032 C217.095994,257.837327 216.088004,256.372009 215.36,254.636 C214.631996,252.899991 214.268,250.930678 214.268,248.728 C214.268,246.562656 214.631996,244.593342 215.36,242.82 C216.088004,241.046658 217.08666,239.534673 218.356,238.284 C219.62534,237.033327 221.127991,236.06267 222.864,235.372 C224.600009,234.68133 226.47599,234.336 228.492,234.336 C230.358676,234.336 232.085325,234.643997 233.672,235.26 C235.258675,235.876003 236.630661,236.790661 237.788,238.004 C238.945339,239.217339 239.850663,240.729324 240.504,242.54 C241.157337,244.350676 241.484,246.469321 241.484,248.896 C241.484,248.896 241.484,246.469321 241.484,248.896 Z M241.484,248.896" id="Triangle-1-copy-3" sketch:type="MSShapeGroup"></path>
        </g>
    </g>
</svg>