<?xml version="1.0" encoding="UTF-8" standalone="no"?>
<svg width="375px" height="300px" viewBox="0 0 375 300" version="1.1" xmlns="http://www.w3.org/2000/svg" xmlns:xlink="http://www.w3.org/1999/xlink" xmlns:sketch="http://www.bohemiancoding.com/sketch/ns">
    <title>art-the</title>
    <description>Created with Sketch (http://www.bohemiancoding.com/sketch)</description>
    <defs></defs>
    <g id="Articles" stroke="none" stroke-width="1" fill="none" fill-rule="evenodd" sketch:type="MSPage">
        <g id="art-the" sketch:type="MSArtboardGroup" fill="#8FCFF5">
            <path d="M187.5,101 L306,300 L69,300 L187.5,101 Z M125.606,228.824 L125.606,220.28 L133.082,220.28 L133.082,207.909 L143.584,207.909 L143.584,220.28 L154.264,220.28 L154.264,228.824 L143.584,228.824 L143.584,248.671 C143.584,250.569676 143.925163,252.141994 144.6075,253.388 C145.289837,254.634006 146.817655,255.257 149.191,255.257 C149.903004,255.257 150.674329,255.182834 151.505,255.0345 C152.335671,254.886166 153.07733,254.663668 153.73,254.367 L154.086,262.733 C153.136662,263.089002 152.00934,263.370832 150.704,263.5785 C149.39866,263.786168 148.152673,263.89 146.966,263.89 C144.117986,263.89 141.804009,263.489504 140.024,262.6885 C138.243991,261.887496 136.834839,260.78984 135.7965,259.3955 C134.758161,258.00116 134.046169,256.399176 133.6605,254.5895 C133.274831,252.779824 133.082,250.836677 133.082,248.76 L133.082,228.824 L125.606,228.824 Z M185.77,219.034 C188.558681,219.034 190.946823,219.523495 192.9345,220.5025 C194.922177,221.481505 196.553827,222.771992 197.8295,224.374 C199.105173,225.976008 200.039664,227.815323 200.633,229.892 C201.226336,231.968677 201.523,234.104656 201.523,236.3 L201.523,263 L190.843,263 L190.843,239.504 C190.843,238.257994 190.754001,236.967507 190.576,235.6325 C190.397999,234.297493 190.027169,233.081172 189.4635,231.9835 C188.899831,230.885828 188.098839,229.981004 187.0605,229.269 C186.022161,228.556996 184.642675,228.201 182.922,228.201 C181.201325,228.201 179.718006,228.52733 178.472,229.18 C177.225994,229.83267 176.187671,230.707828 175.357,231.8055 C174.526329,232.903172 173.903335,234.134327 173.488,235.499 C173.072665,236.863673 172.865,238.257993 172.865,239.682 L172.865,263 L162.185,263 L162.185,195.716 L172.865,195.716 L172.865,226.243 L173.043,226.243 C173.458335,225.352996 174.066496,224.477838 174.8675,223.6175 C175.668504,222.757162 176.602995,221.985837 177.671,221.3035 C178.739005,220.621163 179.955327,220.072335 181.32,219.657 C182.684673,219.241665 184.167992,219.034 185.77,219.034 C185.77,219.034 184.167992,219.034 185.77,219.034 Z M244.065,237.368 C244.065,236.003327 243.872169,234.698006 243.4865,233.452 C243.100831,232.205994 242.492671,231.108338 241.662,230.159 C240.831329,229.209662 239.778173,228.453169 238.5025,227.8895 C237.226827,227.325831 235.728675,227.044 234.008,227.044 C230.803984,227.044 228.089511,228.008157 225.8645,229.9365 C223.639489,231.864843 222.408335,234.341985 222.171,237.368 C222.171,237.368 222.408335,234.341985 222.171,237.368 L244.065,237.368 Z M254.745,242.174 L254.745,243.598 C254.745,244.072669 254.715334,244.547331 254.656,245.022 L222.171,245.022 C222.289667,246.564674 222.690163,247.973827 223.3725,249.2495 C224.054837,250.525173 224.959661,251.622829 226.087,252.5425 C227.214339,253.462171 228.489993,254.188997 229.914,254.723 C231.338007,255.257003 232.821326,255.524 234.364,255.524 C237.034013,255.524 239.288657,255.034505 241.128,254.0555 C242.967343,253.076495 244.480327,251.726675 245.667,250.006 L252.787,255.702 C248.574312,261.398028 242.46304,264.246 234.453,264.246 C231.130317,264.246 228.074681,263.726839 225.286,262.6885 C222.497319,261.650161 220.07951,260.181676 218.0325,258.283 C215.98549,256.384324 214.383506,254.055514 213.2265,251.2965 C212.069494,248.537486 211.491,245.407684 211.491,241.907 C211.491,238.465649 212.069494,235.335847 213.2265,232.5175 C214.383506,229.699153 215.970657,227.296177 217.988,225.3085 C220.005343,223.320823 222.393486,221.778172 225.1525,220.6805 C227.911514,219.582828 230.892984,219.034 234.097,219.034 C237.063682,219.034 239.807821,219.523495 242.3295,220.5025 C244.851179,221.481505 247.031657,222.935157 248.871,224.8635 C250.710343,226.791843 252.149161,229.194819 253.1875,232.0725 C254.225839,234.950181 254.745,238.317314 254.745,242.174 C254.745,242.174 254.745,238.317314 254.745,242.174 Z M254.745,242.174" id="Triangle-1-copy-3" sketch:type="MSShapeGroup"></path>
        </g>
    </g>
</svg>