<?xml version="1.0" encoding="UTF-8" standalone="no"?>
<svg width="375px" height="300px" viewBox="0 0 375 300" version="1.1" xmlns="http://www.w3.org/2000/svg" xmlns:xlink="http://www.w3.org/1999/xlink" xmlns:sketch="http://www.bohemiancoding.com/sketch/ns">
    <title>prep-who</title>
    <description>Created with Sketch (http://www.bohemiancoding.com/sketch)</description>
    <defs></defs>
    <g id="Prepositions" stroke="none" stroke-width="1" fill="none" fill-rule="evenodd" sketch:type="MSPage">
        <g id="prep-who" sketch:type="MSArtboardGroup" fill="#00C54F">
            <path d="M187.749966,187.949879 C131.099087,187.949879 84.7918018,237.233734 81.5592393,299.376096 C104.335388,267.362715 143.392128,246.249075 187.749945,246.249075 C232.108048,246.249075 271.164777,267.36268 293.940906,299.376021 C290.708319,237.233692 244.401232,187.949879 187.749966,187.949879 Z M200.576531,228.018353 C203.597939,229.112306 205.992266,230.173128 207.76138,231.200992 C209.528965,232.230044 210.413437,233.129637 210.413437,233.901129 L210.413437,239.012412 L165.086709,239.012412 L165.086709,233.901129 C165.086709,233.129637 165.969822,232.230044 167.738936,231.200992 C169.506351,230.173128 171.900847,229.112306 174.923614,228.018353 C177.944853,226.92593 180.001768,225.816687 181.09572,224.691135 C182.188144,223.567111 182.735205,222.039078 182.735205,220.110433 C182.735205,219.531601 182.638874,219.09752 182.445874,218.808359 C182.253043,218.519029 182.027083,218.214577 181.770882,217.892117 C181.513152,217.571186 181.223821,217.153755 180.90289,216.638464 C180.58043,216.124702 180.324228,215.32144 180.131398,214.227318 C180.066668,213.778456 179.921918,213.489125 179.697317,213.359495 C179.471357,213.231395 179.246926,213.103294 179.022325,212.973834 C178.796365,212.845734 178.571764,212.588003 178.347333,212.202342 C178.121203,211.816511 177.976453,211.109749 177.913252,210.080527 C177.913252,209.373765 178.041353,208.826704 178.298913,208.441043 C178.427014,208.248212 178.588414,208.120111 178.781244,208.055212 C178.716345,207.60635 178.651615,207.124019 178.588414,206.608728 C178.523514,206.159696 178.458784,205.709135 178.395413,205.258404 C178.330684,204.809542 178.265954,204.327211 178.202583,203.811921 C178.137853,203.233429 178.217704,202.478247 178.443664,201.545695 C178.668264,200.614332 179.133776,199.71321 179.842067,198.845218 C180.548829,197.977395 181.529802,197.222383 182.783455,196.578992 C184.037108,195.936959 185.691713,195.614669 187.750158,195.614669 C189.807073,195.614669 191.478158,195.936959 192.764941,196.578992 C194.050364,197.222383 195.046457,197.977395 195.754748,198.845218 C196.461341,199.71321 196.911902,200.614332 197.104732,201.545695 C197.297733,202.478247 197.360933,203.233429 197.297733,203.811921 C197.232833,204.327211 197.184753,204.809542 197.152982,205.258404 C197.119853,205.709135 197.071603,206.159696 197.008402,206.608728 C196.943502,207.124019 196.847172,207.60635 196.719071,208.055212 C196.847172,208.120111 196.975272,208.248212 197.104732,208.441043 C197.232833,208.570672 197.345813,208.778623 197.442313,209.067784 C197.538813,209.357285 197.587063,209.694866 197.587063,210.080527 C197.522163,211.109749 197.377583,211.816511 197.152982,212.202342 C196.927022,212.588003 196.702421,212.845734 196.47799,212.973834 C196.25186,213.103294 196.02743,213.231395 195.802829,213.359495 C195.576869,213.489125 195.432118,213.778456 195.368917,214.227318 C195.175917,215.32144 194.934836,216.124702 194.645506,216.638464 C194.356345,217.153755 194.066844,217.571186 193.777683,217.892117 C193.488353,218.214577 193.247272,218.519029 193.054441,218.808359 C192.861441,219.09752 192.764941,219.531601 192.764941,220.110433 C192.764941,222.039078 193.326953,223.567111 194.452675,224.691135 C195.576869,225.816687 197.618664,226.92593 200.576531,228.018353 Z M200.576531,228.018353" sketch:type="MSShapeGroup"></path>
        </g>
    </g>
</svg>