<?xml version="1.0" encoding="UTF-8" standalone="no"?>
<svg width="375px" height="300px" viewBox="0 0 375 300" version="1.1" xmlns="http://www.w3.org/2000/svg" xmlns:xlink="http://www.w3.org/1999/xlink" xmlns:sketch="http://www.bohemiancoding.com/sketch/ns">
    <title>prep-when</title>
    <description>Created with Sketch (http://www.bohemiancoding.com/sketch)</description>
    <defs></defs>
    <g id="Prepositions" stroke="none" stroke-width="1" fill="none" fill-rule="evenodd" sketch:type="MSPage">
        <g id="prep-when" sketch:type="MSArtboardGroup" fill="#00C54F">
            <path d="M187.749869,187.949879 C131.09899,187.949879 84.7917048,237.233734 81.5591423,299.376096 C104.335291,267.362715 143.392031,246.249075 187.749848,246.249075 C232.107951,246.249075 271.16468,267.36268 293.940809,299.376021 C290.708222,237.233692 244.401135,187.949879 187.749869,187.949879 Z M187.749792,195.481762 C190.817223,195.481762 193.67645,196.056986 196.329126,197.207066 C198.979965,198.357513 201.313541,199.939057 203.326548,201.952064 C205.339372,203.965072 206.9211,206.298464 208.071363,208.949487 C209.221627,211.602162 209.796851,214.461206 209.796851,217.528637 C209.796851,220.596068 209.221627,223.456764 208.071363,226.107603 C206.9211,228.760279 205.339372,231.092202 203.326548,233.10521 C201.313541,235.118217 198.979965,236.699761 196.329126,237.850208 C193.67645,239.000288 190.817223,239.575512 187.749792,239.575512 C184.682545,239.575512 181.821849,239.000288 179.170826,237.850208 C176.518334,236.699761 174.186227,235.118217 172.173403,233.10521 C170.160396,231.092202 168.578852,228.760279 167.428405,226.107603 C166.278141,223.456764 165.703101,220.596068 165.703101,217.528637 C165.703101,214.461206 166.278141,211.602162 167.428405,208.949487 C168.578852,206.298464 170.160396,203.965072 172.173403,201.952064 C174.186227,199.939057 176.518334,198.357513 179.170826,197.207066 C181.821849,196.056986 184.682545,195.481762 187.749792,195.481762 C187.749792,195.481762 184.682545,195.481762 187.749792,195.481762 Z M187.749792,234.782777 C190.113295,234.782777 192.350847,234.336442 194.459878,233.44065 C196.568726,232.54651 198.404925,231.31693 199.971413,229.750075 C201.536617,228.185055 202.76638,226.347387 203.661988,224.238539 C204.556128,222.129508 205.003932,219.893609 205.003932,217.528637 C205.003932,215.165134 204.556128,212.927582 203.661988,210.818734 C202.76638,208.709887 201.536617,206.873688 199.971413,205.307016 C198.404925,203.741812 196.568726,202.512233 194.459878,201.616624 C192.350847,200.722485 190.113295,200.274497 187.749792,200.274497 C185.385004,200.274497 183.148737,200.722485 181.040073,201.616624 C178.931226,202.512233 177.093374,203.741812 175.528171,205.307016 C173.961682,206.873688 172.731919,208.709887 171.83778,210.818734 C170.942171,212.927582 170.495836,215.165134 170.495836,217.528637 C170.495836,219.893609 170.942171,222.129508 171.83778,224.238539 C172.731919,226.347387 173.961682,228.185055 175.528171,229.750075 C177.093374,231.31693 178.931226,232.54651 181.040073,233.44065 C183.148737,234.336442 185.385004,234.782777 187.749792,234.782777 C187.749792,234.782777 185.385004,234.782777 187.749792,234.782777 L187.749792,234.782777 L187.749792,234.782777 Z M189.47528,216.761733 L196.664566,223.950836 L194.268015,226.347387 L186.120328,218.199517 L186.120328,205.067416 L189.47528,205.067416 L189.47528,216.761733 L189.47528,216.761733 Z M189.47528,216.761733" sketch:type="MSShapeGroup"></path>
        </g>
    </g>
</svg>