<?xml version="1.0" encoding="UTF-8" standalone="no"?>
<svg width="375px" height="300px" viewBox="0 0 375 300" version="1.1" xmlns="http://www.w3.org/2000/svg" xmlns:xlink="http://www.w3.org/1999/xlink" xmlns:sketch="http://www.bohemiancoding.com/sketch/ns">
    <title>verb-had</title>
    <description>Created with Sketch (http://www.bohemiancoding.com/sketch)</description>
    <defs></defs>
    <g id="Verbs-Copy" stroke="none" stroke-width="1" fill="none" fill-rule="evenodd" sketch:type="MSPage">
        <path d="M187.499901,101.826788 C132.992525,101.826788 88.8056302,146.01388 88.8056302,200.521256 C88.8056302,255.028829 132.992525,299.215725 187.499901,299.215725 C242.007672,299.215725 286.19437,255.028829 286.19437,200.521256 C286.19437,146.01388 242.007672,101.826788 187.499901,101.826788 Z M136.080537,183.805369 L136.080537,218.530201 L109.369128,201.167785 L136.080537,183.805369 Z M205.09658,242.322288 L205.09658,204.578899 L169.90342,204.578899 L169.90342,242.322288 L148.098962,242.322288 L148.098962,152.044182 L169.90342,152.044182 L169.90342,186.21725 L205.09658,186.21725 L205.09658,152.044182 L226.901038,152.044182 L226.901038,242.322288 L205.09658,242.322288 Z M205.09658,242.322288" id="Fill-14-copy" fill="#E03232" sketch:type="MSShapeGroup"></path>
        <g id="verb-had" sketch:type="MSArtboardGroup"></g>
    </g>
</svg>