<?xml version="1.0" encoding="UTF-8" standalone="no"?>
<svg width="375px" height="300px" viewBox="0 0 375 300" version="1.1" xmlns="http://www.w3.org/2000/svg" xmlns:xlink="http://www.w3.org/1999/xlink" xmlns:sketch="http://www.bohemiancoding.com/sketch/ns">
    <title>verb-would</title>
    <description>Created with Sketch (http://www.bohemiancoding.com/sketch)</description>
    <defs></defs>
    <g id="Verbs-Copy" stroke="none" stroke-width="1" fill="none" fill-rule="evenodd" sketch:type="MSPage">
        <g id="verb-would" sketch:type="MSArtboardGroup" fill="#E03232">
            <path d="M187.499901,101.826788 C132.992525,101.826788 88.8056302,146.01388 88.8056302,200.521256 C88.8056302,255.028829 132.992525,299.215725 187.499901,299.215725 C242.007672,299.215725 286.19437,255.028829 286.19437,200.521256 C286.19437,146.01388 242.007672,101.826788 187.499901,101.826788 Z M227.092305,250.000141 L205.54287,250.000141 L187.691267,188.922156 L187.308733,188.922156 L169.45713,250.000141 L147.780183,250.000141 L122.150382,159.722034 L145.612489,159.722034 L159.893771,219.779927 L160.276305,219.779927 L176.342748,159.722034 L199.039786,159.722034 L215.23374,219.779927 L215.616275,219.779927 L230.15258,159.722034 L252.849618,159.722034 L227.092305,250.000141 Z M227.092305,250.000141" id="Fill-14-copy" sketch:type="MSShapeGroup"></path>
        </g>
    </g>
</svg>