<?xml version="1.0" encoding="UTF-8" standalone="no"?>
<svg width="375px" height="300px" viewBox="0 0 375 300" version="1.1" xmlns="http://www.w3.org/2000/svg" xmlns:xlink="http://www.w3.org/1999/xlink" xmlns:sketch="http://www.bohemiancoding.com/sketch/ns">
    <title>verb-to</title>
    <description>Created with Sketch (http://www.bohemiancoding.com/sketch)</description>
    <defs></defs>
    <g id="Verbs-Copy" stroke="none" stroke-width="1" fill="none" fill-rule="evenodd" sketch:type="MSPage">
        <g id="verb-to" sketch:type="MSArtboardGroup" fill="#E03232">
            <path d="M187.499901,101.826788 C132.992525,101.826788 88.8056302,146.01388 88.8056302,200.521256 C88.8056302,255.028829 132.992525,299.215725 187.499901,299.215725 C242.007672,299.215725 286.19437,255.028829 286.19437,200.521256 C286.19437,146.01388 242.007672,101.826788 187.499901,101.826788 Z M162.667347,190.532808 L162.667347,208.679746 C162.667347,210.908329 163.097139,212.579741 163.956735,213.694032 C164.816331,214.808323 166.360397,215.365461 168.58898,215.365461 C169.353065,215.365461 170.164894,215.301788 171.02449,215.17444 C171.884086,215.047093 172.600405,214.856074 173.173469,214.601379 L173.36449,226.062603 C172.282035,226.444646 170.91307,226.778929 169.257551,227.065461 C167.602033,227.351993 165.946539,227.495257 164.29102,227.495257 C161.107331,227.495257 158.433072,227.097301 156.268163,226.301379 C154.103254,225.505457 152.36817,224.359346 151.062857,222.863012 C149.757544,221.366678 148.81837,219.583838 148.245306,217.51444 C147.672242,215.445042 147.385714,213.136902 147.385714,210.58995 L147.385714,190.532808 L139.744898,190.532808 L139.744898,178.785052 L147.290204,178.785052 L147.290204,166.273216 L162.667347,166.273216 L162.667347,178.785052 L173.842041,178.785052 L173.842041,190.532808 L162.667347,190.532808 Z M231.625714,202.376073 C231.625714,206.260174 230.925313,209.778098 229.52449,212.92995 C228.123666,216.081803 226.213481,218.756062 223.793878,220.952808 C221.374274,223.149553 218.572669,224.852802 215.38898,226.062603 C212.20529,227.272405 208.798794,227.877297 205.169388,227.877297 C201.603656,227.877297 198.213077,227.272405 194.997551,226.062603 C191.782025,224.852802 188.98042,223.149553 186.592653,220.952808 C184.204886,218.756062 182.310619,216.081803 180.909796,212.92995 C179.508973,209.778098 178.808571,206.260174 178.808571,202.376073 C178.808571,198.491972 179.508973,194.989966 180.909796,191.86995 C182.310619,188.749935 184.204886,186.107512 186.592653,183.942603 C188.98042,181.777695 191.782025,180.122201 194.997551,178.976073 C198.213077,177.829945 201.603656,177.256889 205.169388,177.256889 C208.798794,177.256889 212.20529,177.829945 215.38898,178.976073 C218.572669,180.122201 221.374274,181.777695 223.793878,183.942603 C226.213481,186.107512 228.123666,188.749935 229.52449,191.86995 C230.925313,194.989966 231.625714,198.491972 231.625714,202.376073 C231.625714,202.376073 231.625714,198.491972 231.625714,202.376073 Z M216.535102,202.376073 C216.535102,200.847902 216.280411,199.35159 215.77102,197.887093 C215.26163,196.422596 214.529393,195.133221 213.574286,194.01893 C212.619179,192.904639 211.441231,191.997301 210.040408,191.296889 C208.639585,190.596478 207.015928,190.246277 205.169388,190.246277 C203.322848,190.246277 201.699191,190.596478 200.298367,191.296889 C198.897544,191.997301 197.735515,192.904639 196.812245,194.01893 C195.888975,195.133221 195.188574,196.422596 194.71102,197.887093 C194.233467,199.35159 193.994694,200.847902 193.994694,202.376073 C193.994694,203.904244 194.233467,205.400555 194.71102,206.865052 C195.188574,208.32955 195.904893,209.650761 196.86,210.828726 C197.815107,212.006691 198.993054,212.945865 200.393878,213.646277 C201.794701,214.346689 203.418358,214.696889 205.264898,214.696889 C207.111438,214.696889 208.735095,214.346689 210.135918,213.646277 C211.536742,212.945865 212.714689,212.006691 213.669796,210.828726 C214.624903,209.650761 215.341222,208.32955 215.818776,206.865052 C216.296329,205.400555 216.535102,203.904244 216.535102,202.376073 C216.535102,202.376073 216.535102,203.904244 216.535102,202.376073 Z M216.535102,202.376073" id="Fill-14-copy" sketch:type="MSShapeGroup"></path>
        </g>
    </g>
</svg>