<?xml version="1.0" encoding="UTF-8" standalone="no"?>
<svg width="375px" height="300px" viewBox="0 0 375 300" version="1.1" xmlns="http://www.w3.org/2000/svg" xmlns:xlink="http://www.w3.org/1999/xlink" xmlns:sketch="http://www.bohemiancoding.com/sketch/ns">
    <title>adj-question</title>
    <description>Created with Sketch (http://www.bohemiancoding.com/sketch)</description>
    <defs></defs>
    <g id="Adjectives" stroke="none" stroke-width="1" fill="none" fill-rule="evenodd" sketch:type="MSPage">
        <g id="adj-question" sketch:type="MSArtboardGroup" fill="#E8713A">
            <path d="M40,151 L40,244 L335,244 L335,151 L40,151 Z M205.471,184.529 C205.471,186.135008 205.276335,187.546327 204.887,188.763 C204.497665,189.979673 203.95017,191.098995 203.2445,192.121 C202.53883,193.143005 201.687172,194.104162 200.6895,195.0045 C199.691828,195.904838 198.56034,196.841662 197.295,197.815 C196.516329,198.44767 195.871503,199.007331 195.3605,199.494 C194.849497,199.980669 194.448001,200.479497 194.156,200.9905 C193.863999,201.501503 193.657167,202.036831 193.5355,202.5965 C193.413833,203.156169 193.353,203.825329 193.353,204.604 L193.353,206.502 L181.965,206.502 L181.965,203.728 C181.965,202.46266 182.086665,201.331172 182.33,200.3335 C182.573335,199.335828 182.938331,198.423337 183.425,197.596 C183.911669,196.768663 184.50783,195.965671 185.2135,195.187 C185.91917,194.408329 186.758662,193.605337 187.732,192.778 L190.141,190.515 C190.968337,189.784996 191.673997,189.018504 192.258,188.2155 C192.842003,187.412496 193.134,186.451339 193.134,185.332 C193.134,183.774659 192.659505,182.533671 191.7105,181.609 C190.761495,180.684329 189.459675,180.222 187.805,180.222 C185.76099,180.222 184.228005,180.915493 183.206,182.3025 C182.183995,183.689507 181.624334,185.258991 181.527,187.011 L169.92,185.77 C170.212001,183.141987 170.881161,180.830343 171.9275,178.835 C172.973839,176.839657 174.324325,175.185007 175.979,173.871 C177.633675,172.556993 179.507323,171.571503 181.6,170.9145 C183.692677,170.257497 185.906988,169.929 188.243,169.929 C190.433011,169.929 192.562156,170.208831 194.6305,170.7685 C196.698844,171.328169 198.535992,172.204161 200.142,173.3965 C201.748008,174.588839 203.037662,176.109657 204.011,177.959 C204.984338,179.808343 205.471,181.998321 205.471,184.529 C205.471,184.529 205.471,181.998321 205.471,184.529 Z M194.813,216.795 C194.813,218.741676 194.131673,220.38416 192.769,221.7225 C191.406327,223.06084 189.727343,223.73 187.732,223.73 C186.758662,223.73 185.846171,223.559668 184.9945,223.219 C184.142829,222.878332 183.388503,222.39167 182.7315,221.759 C182.074497,221.12633 181.551335,220.396337 181.162,219.569 C180.772665,218.741663 180.578,217.841338 180.578,216.868 C180.578,215.943329 180.760498,215.055171 181.1255,214.2035 C181.490502,213.351829 182.001497,212.60967 182.6585,211.977 C183.315503,211.34433 184.081996,210.845502 184.958,210.4805 C185.834004,210.115498 186.758662,209.933 187.732,209.933 C188.705338,209.933 189.617829,210.115498 190.4695,210.4805 C191.321171,210.845502 192.075497,211.332164 192.7325,211.9405 C193.389503,212.548836 193.900498,213.278829 194.2655,214.1305 C194.630502,214.982171 194.813,215.870329 194.813,216.795 C194.813,216.795 194.813,215.870329 194.813,216.795 Z M194.813,216.795" id="Rectangle-1" sketch:type="MSShapeGroup"></path>
        </g>
    </g>
</svg>