<?xml version="1.0" encoding="UTF-8" standalone="no"?>
<svg width="375px" height="300px" viewBox="0 0 375 300" version="1.1" xmlns="http://www.w3.org/2000/svg" xmlns:xlink="http://www.w3.org/1999/xlink" xmlns:sketch="http://www.bohemiancoding.com/sketch/ns">
    <title>adj-qualifier</title>
    <description>Created with Sketch (http://www.bohemiancoding.com/sketch)</description>
    <defs></defs>
    <g id="Adjectives" stroke="none" stroke-width="1" fill="none" fill-rule="evenodd" sketch:type="MSPage">
        <g id="adj-qualifier" sketch:type="MSArtboardGroup" fill="#0090D7">
            <path d="M187.5,52 L335,300 L40,300 L187.5,52 Z M238.085039,245.88141 C240.367035,248.578378 240.595234,251.01943 238.769638,253.204565 L233.521047,258.637874 C232.303983,259.759971 230.972819,260.29149 229.527555,260.29149 C228.082291,260.29149 226.827193,259.759971 225.762261,258.637874 L204.083301,236.215632 C201.497039,237.790504 198.682578,239.01103 195.639917,239.87721 C192.597255,240.743389 189.478528,241.176479 186.283734,241.176479 C181.415476,241.176479 176.775418,240.133126 172.363559,238.085793 C167.9517,236.058145 164.110341,233.34149 160.83948,229.935829 C157.568619,226.549854 154.944324,222.592988 152.966595,218.006172 C150.988865,213.458729 150,208.655369 150,203.596092 C150,198.576187 150.912798,193.792513 152.738395,189.304127 C154.563992,184.815741 157.074187,180.937619 160.268981,177.630387 C163.463775,174.323156 167.191035,171.704931 171.450761,169.83477 C175.710486,167.925237 180.274478,167 185.142736,167 C190.010993,167 194.651052,168.023667 199.06291,170.051315 C203.474769,172.118335 207.354162,174.834989 210.701089,178.201278 C214.048016,181.606939 216.710345,185.563806 218.688074,190.130935 C220.665804,194.71775 221.654669,199.501424 221.654669,204.560701 C221.654669,211.490139 219.905139,217.868371 216.406079,223.675712 L238.085039,245.88141 Z M160.72538,203.596092 C160.72538,207.080497 161.409979,210.4271 162.779177,213.655588 C164.148374,216.884076 166.012004,219.718846 168.370066,222.140212 C170.728129,224.60095 173.466524,226.510482 176.585251,227.947553 C179.703979,229.364938 182.936806,230.07363 186.283734,230.07363 C189.630661,230.07363 192.787422,229.40431 195.754016,228.065668 C198.720611,226.727027 201.306873,224.915924 203.512802,222.632359 C205.718731,220.348795 207.468262,217.671512 208.761393,214.600511 C210.054523,211.529511 210.701089,208.182907 210.701089,204.560701 C210.701089,201.095983 210.01649,197.788751 208.647293,194.619321 C207.278095,191.489262 205.414465,188.693864 203.056403,186.252812 C200.698341,183.81176 197.959946,181.882542 194.841218,180.465157 C191.72249,179.028086 188.489663,178.33908 185.142736,178.33908 C181.795809,178.33908 178.639048,178.988714 175.672453,180.327356 C172.705858,181.685683 170.119597,183.4771 167.913667,185.780351 C165.707738,188.044229 163.958208,190.741198 162.665077,193.792513 C161.371946,196.883199 160.72538,200.151059 160.72538,203.596092 Z M160.72538,203.596092" id="Triangle-1-copy-3" sketch:type="MSShapeGroup"></path>
        </g>
    </g>
</svg>