<?xml version="1.0" encoding="UTF-8" standalone="no"?>
<svg width="375px" height="300px" viewBox="0 0 375 300" version="1.1" xmlns="http://www.w3.org/2000/svg" xmlns:xlink="http://www.w3.org/1999/xlink" xmlns:sketch="http://www.bohemiancoding.com/sketch/ns">
    <title>adj-opinion</title>
    <description>Created with Sketch (http://www.bohemiancoding.com/sketch)</description>
    <defs></defs>
    <g id="Adjectives" stroke="none" stroke-width="1" fill="none" fill-rule="evenodd" sketch:type="MSPage">
        <g id="adj-opinion" sketch:type="MSArtboardGroup" fill="#0090D7">
            <path d="M185.5,52 L333,300 L38,300 L185.5,52 Z M185.011325,193 C192.656437,193 199.426067,194.192752 205.320214,196.573148 C211.21115,198.955733 216.132766,201.682586 220.081704,204.752977 C224.030497,207.826287 227.00705,210.802694 229.013844,213.684971 C231.01772,216.570313 232.022504,218.451017 232.022504,219.326354 C232.022504,220.204755 231.01772,222.085459 229.013844,224.967882 C227.00705,227.853224 224.030497,230.829193 220.081704,233.899876 C216.132766,236.973186 211.21115,239.699747 205.320214,242.079851 C199.426067,244.462728 192.656437,245.652707 185.011325,245.652707 C177.236766,245.652707 170.437803,244.462728 164.608306,242.079851 C158.778955,239.699747 153.889738,236.973186 149.940799,233.899876 C145.991861,230.829193 143.012535,227.853224 141.008659,224.967882 C139.001865,222.085459 138,220.204755 138,219.326354 C138,218.451017 139.001865,216.570313 141.008659,213.684971 C143.012535,210.802694 145.991861,207.826287 149.940799,204.752977 C153.889738,201.682586 158.778955,198.955733 164.608306,196.573148 C170.437803,194.192752 177.236766,193 185.011325,193 C185.011325,193 177.236766,193 185.011325,193 Z M185.011325,239.447274 C187.893748,239.447274 190.588057,238.915476 193.09717,237.849106 C195.603365,236.785218 197.798273,235.342474 199.678831,233.523648 C201.559244,231.708178 203.063573,229.574709 204.191675,227.130246 C205.320214,224.685492 205.884264,222.085459 205.884264,219.326354 C205.884264,216.570313 205.320214,213.937736 204.191675,211.428623 C203.063573,208.922136 201.559244,206.759626 199.678831,204.940945 C197.798273,203.125038 195.603365,201.682586 193.09717,200.615633 C190.588057,199.552036 187.893748,199.017319 185.011325,199.017319 C182.125983,199.017319 179.431674,199.552036 176.925188,200.615633 C174.416075,201.682586 172.224231,203.125038 170.343672,204.940945 C168.46326,206.759626 166.958931,208.922136 165.830683,211.428623 C164.702436,213.937736 164.138239,216.570313 164.138239,219.326354 C164.138239,222.085459 164.702436,224.685492 165.830683,227.130246 C166.958931,229.574709 168.46326,231.708178 170.343672,233.523648 C172.224231,235.342474 174.416075,236.785218 176.925188,237.849106 C179.431674,238.915476 182.125983,239.447274 185.011325,239.447274 C185.011325,239.447274 182.125983,239.447274 185.011325,239.447274 Z M185.011325,239.447274" id="Triangle-1-copy-2" sketch:type="MSShapeGroup"></path>
        </g>
    </g>
</svg>