<?xml version="1.0" encoding="UTF-8" standalone="no"?>
<svg width="375px" height="300px" viewBox="0 0 375 300" version="1.1" xmlns="http://www.w3.org/2000/svg" xmlns:xlink="http://www.w3.org/1999/xlink" xmlns:sketch="http://www.bohemiancoding.com/sketch/ns">
    <title>adj-origin</title>
    <description>Created with Sketch (http://www.bohemiancoding.com/sketch)</description>
    <defs></defs>
    <g id="Adjectives" stroke="none" stroke-width="1" fill="none" fill-rule="evenodd" sketch:type="MSPage">
        <g id="adj-origin" sketch:type="MSArtboardGroup" fill="#0090D7">
            <path d="M187.5,52 L335,300 L40,300 L187.5,52 Z M187.5,173 C193.263584,173 198.652221,174.095774 203.667937,176.285152 C208.681484,178.476699 213.062409,181.445467 216.808399,185.191456 C220.554533,188.937591 223.523301,193.347869 225.714848,198.420124 C227.904226,203.492378 229,208.851517 229,214.5 C229,220.265897 227.904226,225.654535 225.714848,230.667937 C223.523301,235.683798 220.554533,240.064723 216.808399,243.810713 C213.062409,247.556702 208.681484,250.525615 203.667937,252.714848 C198.652221,254.906395 193.263584,256 187.5,256 C181.734103,256 176.345465,254.906395 171.331918,252.714848 C166.316202,250.525615 161.935277,247.556702 158.189287,243.810713 C154.443298,240.064723 151.474385,235.683798 149.285152,230.667937 C147.09346,225.654535 146,220.265897 146,214.5 C146,208.851517 147.09346,203.492378 149.285152,198.420124 C151.474385,193.347869 154.443298,188.937591 158.189287,185.191456 C161.935277,181.445467 166.316202,178.476699 171.331918,176.285152 C176.345465,174.095774 181.734103,173 187.5,173 C187.5,173 181.734103,173 187.5,173 Z M182.658237,179.565676 C176.067545,180.487497 170.2882,182.968242 165.319768,187.003575 C160.351481,191.038763 156.713941,195.995772 154.409317,201.874601 C155.100646,201.99216 155.934406,202.078052 156.914934,202.134446 C157.895606,202.193153 158.876134,202.308399 159.856662,202.480183 C160.83719,202.654136 161.73197,202.884627 162.540859,203.173826 C163.349603,203.463024 163.871606,203.894509 164.101953,204.468423 C164.332444,205.046821 164.305404,205.622904 164.016206,206.199132 C163.727007,206.77753 163.378956,207.410152 162.974657,208.101481 C162.570213,208.79281 162.195122,209.601699 161.847216,210.523519 C161.499166,211.44534 161.327526,212.482406 161.327526,213.634573 C161.327526,214.904444 161.677746,215.884972 162.378185,216.576301 C163.078479,217.267631 163.835456,217.902566 164.65331,218.478794 C165.468995,219.054878 166.228141,219.630962 166.928436,220.20719 C167.628875,220.785587 167.979094,221.533455 167.979094,222.455275 C167.979094,224.416331 168.207272,226.375218 168.668254,228.336274 C169.129092,230.297474 169.359584,231.565031 169.359584,232.138801 C169.359584,232.486852 169.646469,233.092289 170.222697,233.955402 C170.79878,234.820685 171.519463,235.742505 172.382577,236.723033 C173.24569,237.703706 174.079305,238.568988 174.886024,239.319169 C175.690286,240.069206 176.381615,240.441983 176.960012,240.441983 C177.418681,240.441983 177.705711,240.039852 177.820812,239.230963 C177.936057,238.424389 177.965411,237.443861 177.909017,236.291549 C177.85031,235.139237 177.764418,234.01411 177.649172,232.918336 C177.533927,231.824732 177.477389,230.988803 177.477389,230.410406 C177.477389,230.064669 177.533927,229.603831 177.649172,229.027747 C177.764418,228.451519 177.879664,227.816728 177.994909,227.125254 C178.11001,226.433925 178.225256,225.799134 178.340502,225.222906 C178.455747,224.646822 178.570993,224.242378 178.686239,224.011887 C179.147077,222.398737 179.836237,221.158364 180.758057,220.292937 C181.679878,219.429969 182.658237,218.679787 183.695159,218.044997 C184.732225,217.412375 185.712897,216.836146 186.634718,216.316456 C187.556538,215.796911 188.18916,215.01969 188.537066,213.98031 C189.689378,210.869111 189.804479,208.420033 188.882659,206.63293 C187.960838,204.845683 186.634718,203.490064 184.906178,202.568244 C183.175613,201.646423 181.420033,201.040986 179.635099,200.751787 C177.85031,200.462589 176.729666,200.202744 176.268683,199.972253 C175.346862,199.628829 174.165197,199.427692 172.728314,199.368984 C171.289117,199.310277 170.224866,199.396169 169.533537,199.62666 C168.957453,199.857007 168.180232,199.570122 167.199559,198.763547 C166.219031,197.956972 165.731009,197.091545 165.731009,196.167556 C165.731009,195.706573 165.98854,195.13049 166.50823,194.439016 C167.02792,193.747686 167.660542,193.029172 168.410578,192.279136 C169.158446,191.529099 169.906314,190.778918 170.656495,190.028882 C171.404218,189.2787 172.007486,188.616725 172.468469,188.040497 C173.27273,186.773084 174.049951,185.966509 174.800132,185.620772 C175.548,185.275035 176.670814,184.409753 178.168862,183.02478 C178.857878,182.448697 179.662284,181.929007 180.584105,181.468024 C181.505925,181.007186 182.197254,180.374564 182.658237,179.565676 C182.658237,179.565676 182.197254,180.374564 182.658237,179.565676 L182.658237,179.565676 L182.658237,179.565676 Z M176.433671,248.19612 C178.162066,248.774517 179.949169,249.206002 181.795124,249.495345 C183.638765,249.784544 185.541113,249.926829 187.502314,249.926829 C194.881361,249.926829 201.395125,247.967943 207.043463,244.045686 C206.234575,242.663028 204.707317,241.768247 202.459232,241.366117 C200.211146,240.963841 198.338152,240.87578 196.840247,241.106272 C195.109538,241.336763 193.351789,241.826955 191.564542,242.577136 C189.777439,243.327172 188.308889,243.815195 187.156577,244.045686 C185.88685,244.276178 184.763892,244.565376 183.783364,244.910969 C182.802836,245.256706 181.736416,245.42849 180.584105,245.42849 C179.662284,245.545904 178.997995,245.891641 178.595864,246.467725 C178.19142,247.043808 177.470737,247.620037 176.433671,248.19612 C176.433671,248.19612 177.470737,247.620037 176.433671,248.19612 L176.433671,248.19612 L176.433671,248.19612 Z M222.926829,214.5 C222.926829,210.582226 222.321247,206.863277 221.110228,203.345465 C219.899209,199.829967 218.229666,196.601354 216.096826,193.661939 C213.963986,190.72238 211.397348,188.18524 208.399082,186.052401 C205.40096,183.919416 202.172347,182.218206 198.715411,180.948479 C197.676176,182.333451 197.215193,183.255272 197.332753,183.71611 C197.563244,186.138148 198.08062,187.609012 198.887195,188.126389 C199.69377,188.646078 200.559052,188.817862 201.480873,188.646078 C202.402693,188.474294 203.297474,188.155742 204.162756,187.694904 C205.025869,187.233922 205.631451,187.177528 205.979357,187.520951 C207.131669,188.790678 207.362016,189.886451 206.670686,190.808272 C205.979357,191.730092 205.084577,192.740118 203.991117,193.833578 C202.895343,194.929352 202.000563,196.196909 201.309233,197.638275 C200.617904,199.079786 200.848251,200.896387 202.000563,203.08562 C203.152875,205.277312 204.363894,206.745862 205.63362,207.495899 C206.901178,208.24608 208.457789,208.621171 210.303744,208.621171 C211.225564,208.621171 212.002786,208.966763 212.637721,209.658237 C213.270343,210.349566 213.789889,211.185495 214.194333,212.166023 C214.596608,213.146551 214.91516,214.124909 215.145507,215.105437 C215.375998,216.08611 215.491244,216.8655 215.491244,217.439415 C215.604176,218.133057 215.663028,218.99834 215.663028,220.035406 C215.663028,221.072472 215.604176,222.168246 215.48893,223.320557 C215.373829,224.472869 215.22923,225.62735 215.057446,226.779662 C214.885807,227.931974 214.625962,228.853794 214.280225,229.545124 C213.588895,230.930096 213.47365,232.227007 213.934488,233.438026 C214.39547,234.649045 214.912847,235.541368 215.491244,236.117596 C217.795868,233.121643 219.612324,229.777784 220.938589,226.088333 C222.26254,222.398737 222.926829,218.535188 222.926829,214.5 L222.926829,214.5 Z M222.926829,214.5" id="Triangle-1-copy-2" sketch:type="MSShapeGroup"></path>
        </g>
    </g>
</svg>