<?xml version="1.0" encoding="UTF-8" standalone="no"?>
<svg width="375px" height="300px" viewBox="0 0 375 300" version="1.1" xmlns="http://www.w3.org/2000/svg" xmlns:xlink="http://www.w3.org/1999/xlink" xmlns:sketch="http://www.bohemiancoding.com/sketch/ns">
    <title>adj-color</title>
    <description>Created with Sketch (http://www.bohemiancoding.com/sketch)</description>
    <defs></defs>
    <g id="Adjectives" stroke="none" stroke-width="1" fill="none" fill-rule="evenodd" sketch:type="MSPage">
        <g id="adj-color" sketch:type="MSArtboardGroup" fill="#0090D7">
            <path d="M187.5,52 L335,300 L40,300 L187.5,52 Z M145.375626,229.667064 C147.587609,227.573874 150.059363,226.700435 152.793512,227.049373 C155.527516,227.398311 158.058666,228.736709 160.386817,231.06267 C162.712632,233.39082 164.080801,235.92197 164.48899,238.655974 C164.894844,241.392313 164.051176,243.80715 161.95784,245.900486 C159.513377,248.344949 156.576373,250.26491 153.142304,251.660516 C149.708236,253.055976 146.508981,254.015957 143.542352,254.540458 C140.575723,255.06496 138.249761,255.151647 136.562425,254.802709 C134.874943,254.453771 134.553442,253.756041 135.602445,252.707038 C137.811947,250.262721 139.237178,247.964196 139.877993,245.811464 C140.516472,243.659023 140.981576,241.682 141.273452,239.878205 C141.565329,238.074557 141.914267,236.330159 142.322455,234.642677 C142.728309,232.955341 143.747541,231.297484 145.375626,229.667064 C145.375626,229.667064 143.747541,231.297484 145.375626,229.667064 Z M218.684555,173.289433 C219.263637,173.873186 218.974096,175.268645 217.811115,177.480629 C216.648135,179.692466 214.960799,182.396845 212.748961,185.5961 C210.536978,188.797689 207.948912,192.259048 204.982283,195.980469 C202.013318,199.704225 199.017064,203.368585 195.993373,206.976028 C192.967492,210.583471 190.057779,213.930853 187.266713,217.013795 C184.473459,220.096737 182.145308,222.570971 180.284598,224.431681 C177.491197,227.224936 175.27936,229.204294 173.651129,230.367129 C172.023043,231.53011 170.625248,232.576777 169.462268,233.507133 C168.997163,233.85826 168.675662,233.887885 168.502287,233.596009 C168.329059,233.304133 168.183121,233.042028 168.066808,232.809403 C167.483056,231.646422 166.871867,230.656816 166.233388,229.842773 C165.59272,229.028731 164.808303,228.155291 163.877947,227.222747 C162.014902,225.362037 160.09494,223.966431 158.117917,223.033741 C157.885292,222.919763 157.623041,222.773825 157.331165,222.598261 C157.039289,222.425033 157.068914,222.103385 157.420187,221.638281 C158.350543,220.4753 159.39721,219.077505 160.560045,217.44942 C161.723026,215.821189 163.702384,213.668748 166.495639,210.99166 C168.356349,209.13095 170.857874,206.832425 174.000066,204.096086 C177.142259,201.361936 180.544514,198.511619 184.211208,195.54499 C187.875567,192.578361 191.628948,189.641357 195.468871,186.731644 C199.30894,183.822076 202.856986,181.290926 206.115638,179.13834 C209.374143,176.985753 212.137772,175.325707 214.406672,174.162727 C216.675571,172.999892 218.100802,172.710205 218.684555,173.289433 Z M218.684555,173.289433" id="Triangle-1-copy-2" sketch:type="MSShapeGroup"></path>
        </g>
    </g>
</svg>