<?xml version="1.0" encoding="UTF-8" standalone="no"?>
<svg width="375px" height="300px" viewBox="0 0 375 300" version="1.1" xmlns="http://www.w3.org/2000/svg" xmlns:xlink="http://www.w3.org/1999/xlink" xmlns:sketch="http://www.bohemiancoding.com/sketch/ns">
    <title>adj-age</title>
    <description>Created with Sketch (http://www.bohemiancoding.com/sketch)</description>
    <defs></defs>
    <g id="Adjectives" stroke="none" stroke-width="1" fill="none" fill-rule="evenodd" sketch:type="MSPage">
        <g id="adj-age" sketch:type="MSArtboardGroup" fill="#0090D7">
            <path d="M187.5,52 L335,300 L40,300 L187.5,52 Z M187,181 C192.563636,181 197.752291,182.045382 202.563636,184.131782 C207.374982,186.218182 211.606836,189.088582 215.259055,192.740945 C218.911418,196.393164 221.781818,200.625018 223.868218,205.436364 C225.954473,210.247709 227,215.436364 227,221 C227,226.565818 225.954473,231.754473 223.868218,236.565964 C221.781818,241.377309 218.911418,245.609018 215.259055,249.261382 C211.606836,252.9136 207.374982,255.784145 202.563636,257.8704 C197.752291,259.9568 192.563636,261 187,261 C181.434036,261 176.245382,259.9568 171.434036,257.8704 C166.622691,255.784145 162.390836,252.9136 158.738618,249.261382 C155.0864,245.609018 152.215855,241.377309 150.1296,236.565964 C148.0432,231.754473 147,226.565818 147,221 C147,215.436364 148.0432,210.247709 150.1296,205.436364 C152.215855,200.625018 155.0864,196.393164 158.738618,192.740945 C162.390836,189.088582 166.622691,186.218182 171.434036,184.131782 C176.245382,182.045382 181.434036,181 187,181 C187,181 181.434036,181 187,181 Z M187,252.272727 C191.284073,252.272727 195.338618,251.463564 199.161309,249.840873 C202.984145,248.220364 206.3136,245.990836 209.152291,243.152291 C211.988655,240.315927 214.218182,236.984 215.840873,233.161309 C217.461382,229.338618 218.272727,225.2864 218.272727,221 C218.272727,216.715927 217.461382,212.661382 215.840873,208.838545 C214.218182,205.015855 211.988655,201.6864 209.152291,198.847709 C206.3136,196.011345 202.984145,193.781818 199.161309,192.159127 C195.338618,190.538618 191.284073,189.727273 187,189.727273 C182.7136,189.727273 178.661382,190.538618 174.838691,192.159127 C171.015855,193.781818 167.684073,196.011345 164.847709,198.847709 C162.009018,201.6864 159.779491,205.015855 158.159127,208.838545 C156.536291,212.661382 155.727273,216.715927 155.727273,221 C155.727273,225.2864 156.536291,229.338618 158.159127,233.161309 C159.779491,236.984 162.009018,240.315927 164.847709,243.152291 C167.684073,245.990836 171.015855,248.220364 174.838691,249.840873 C178.661382,251.463564 182.7136,252.272727 187,252.272727 C187,252.272727 182.7136,252.272727 187,252.272727 Z M190.054545,219.609018 L203.102255,232.654545 L198.752291,237.004509 L183.945455,222.218182 L183.945455,198.384145 L190.054545,198.384145 L190.054545,219.609018 Z M190.054545,219.609018" id="Triangle-1-copy-2" sketch:type="MSShapeGroup"></path>
        </g>
    </g>
</svg>