<?xml version="1.0" encoding="UTF-8" standalone="no"?>
<svg width="375px" height="300px" viewBox="0 0 375 300" version="1.1" xmlns="http://www.w3.org/2000/svg" xmlns:xlink="http://www.w3.org/1999/xlink" xmlns:sketch="http://www.bohemiancoding.com/sketch/ns">
    <title>adj-size</title>
    <description>Created with Sketch (http://www.bohemiancoding.com/sketch)</description>
    <defs></defs>
    <g id="Adjectives" stroke="none" stroke-width="1" fill="none" fill-rule="evenodd" sketch:type="MSPage">
        <g id="adj-size" sketch:type="MSArtboardGroup" fill="#0090D7">
            <path d="M187.5,52 L335,300 L40,300 L187.5,52 Z M157.134427,227.39177 C158.418244,227.39177 159.469436,227.799959 160.285814,228.611666 C161.102046,229.42352 161.512569,230.467853 161.512569,231.744811 L161.512569,253.514686 L144,253.514686 L144,231.744811 C144,230.467853 144.262251,229.42352 144.786752,228.611666 C145.311254,227.799959 146.216362,227.39177 147.502514,227.39177 L157.134427,227.39177 Z M183.257343,201.152541 C184.54116,201.152541 185.592352,201.56073 186.40873,202.374773 C187.224961,203.19115 187.635485,204.237818 187.635485,205.516966 L187.635485,253.514686 L170.122916,253.514686 L170.122916,205.516966 C170.122916,204.237818 170.385167,203.19115 170.909668,202.374773 C171.434024,201.56073 172.339278,201.152541 173.62543,201.152541 L183.257343,201.152541 Z M209.380259,175 C210.664076,175 211.715268,175.408189 212.531646,176.222231 C213.347877,177.036274 213.758401,178.082942 213.758401,179.362235 L213.758401,253.514686 L196.245832,253.514686 L196.245832,179.362235 C196.245832,178.082942 196.508083,177.036274 197.032584,176.222231 C197.55694,175.408189 198.462193,175 199.748346,175 L209.380259,175 Z M209.380259,175" id="Triangle-1-copy-2" sketch:type="MSShapeGroup"></path>
        </g>
    </g>
</svg>