<?xml version="1.0" encoding="UTF-8" standalone="no"?>
<svg width="375px" height="300px" viewBox="0 0 375 300" version="1.1" xmlns="http://www.w3.org/2000/svg" xmlns:xlink="http://www.w3.org/1999/xlink" xmlns:sketch="http://www.bohemiancoding.com/sketch/ns">
    <title>adj-material</title>
    <description>Created with Sketch (http://www.bohemiancoding.com/sketch)</description>
    <defs></defs>
    <g id="Adjectives" stroke="none" stroke-width="1" fill="none" fill-rule="evenodd" sketch:type="MSPage">
        <g id="adj-material" sketch:type="MSArtboardGroup" fill="#0090D7">
            <path d="M187.5,52 L335,300 L40,300 L187.5,52 Z M209.101801,202.30129 C209.101801,202.299412 202.572615,193.593831 202.572615,193.593831 C201.945423,192.7582 201.354848,190.981781 201.354848,189.937712 L201.354848,173.636342 C201.354848,171.079688 199.27516,169 196.717567,169 L194.49986,169 C191.941328,169 189.862579,171.079688 189.862579,173.636342 L189.862579,189.937712 C189.862579,190.980842 189.271065,192.7582 188.643873,193.593831 C188.643873,193.593831 187.515302,195.101722 186.195193,196.861241 L185.957649,195.486675 L185.957649,180.614327 C185.957649,178.186304 183.980302,176.212713 181.554157,176.212713 L179.530804,176.212713 C177.104658,176.212713 175.130129,178.187243 175.130129,180.614327 L175.130129,195.486675 C175.130129,196.408686 174.605278,197.980422 174.05132,198.717467 L171.443965,202.197071 C171.307823,201.746394 171.223321,201.300411 171.223321,200.96522 L171.223321,187.501238 C171.223321,185.204662 169.354888,183.334352 167.054557,183.334352 L165.222741,183.334352 C162.92241,183.334352 161.053977,185.204662 161.053977,187.501238 L161.053977,200.966159 C161.053977,201.754844 160.589216,203.149127 160.116944,203.780075 L154.720085,210.970254 C153.738923,212.280035 153,214.495864 153,216.131447 L153,253.277577 C153,254.356385 153.871309,255.23145 154.950118,255.23145 C154.993308,255.23145 155.036498,255.218306 155.075932,255.218306 C155.119122,255.218306 155.158556,255.23145 155.201746,255.23145 L209.147808,255.23145 C210.227555,255.23145 211.10262,254.356385 211.10262,253.277577 L211.10262,208.299991 C211.10262,206.400575 210.2407,203.821387 209.101801,202.30129 C209.101801,202.30129 210.2407,203.821387 209.101801,202.30129 Z M191.768568,195.936413 C192.911222,194.416317 193.769387,191.837129 193.769387,189.936773 L193.769387,173.636342 C193.769387,173.24106 194.1027,172.908686 194.498921,172.908686 L196.716628,172.908686 C197.112849,172.908686 197.445223,173.24106 197.445223,173.636342 L197.445223,189.937712 C197.445223,191.837129 198.303387,194.417256 199.446042,195.937352 L205.975228,204.644812 C206.60242,205.480442 207.192995,207.255923 207.192995,208.30093 L207.192995,251.323703 L194.851951,251.323703 L194.851951,212.2406 C194.851951,210.474509 194.050121,208.07747 192.990091,206.66347 L188.359383,200.486375 C190.039094,198.245195 191.768568,195.936413 191.768568,195.936413 Z M163.238823,206.125474 C164.216229,204.817571 164.955152,202.599864 164.955152,200.966159 L164.955152,187.501238 C164.955152,187.363218 165.07721,187.24116 165.218986,187.24116 L167.050801,187.24116 C167.188821,187.24116 167.310879,187.363218 167.310879,187.501238 L167.310879,200.966159 C167.310879,202.454333 167.928683,204.418534 168.779336,205.747093 C168.86196,205.87854 168.944584,206.00811 169.030964,206.125474 C169.030964,206.125474 169.420612,206.645631 169.984897,207.394881 C170.338867,207.868093 170.760438,208.429561 171.20642,209.022953 C172.705861,211.021894 174.425007,213.315653 174.425007,213.315653 C174.901035,213.946601 175.362979,215.340884 175.362979,216.131447 L175.362979,251.323703 L156.90493,251.323703 L156.90493,216.131447 C156.90493,215.340884 157.369691,213.946601 157.841963,213.315653 L163.238823,206.125474 Z M163.238823,206.125474" id="Triangle-1-copy-3" sketch:type="MSShapeGroup"></path>
        </g>
    </g>
</svg>