<?xml version="1.0" encoding="UTF-8" standalone="no"?>
<svg width="375px" height="300px" viewBox="0 0 375 300" version="1.1" xmlns="http://www.w3.org/2000/svg" xmlns:xlink="http://www.w3.org/1999/xlink" xmlns:sketch="http://www.bohemiancoding.com/sketch/ns">
    <title>adj-shape</title>
    <description>Created with Sketch (http://www.bohemiancoding.com/sketch)</description>
    <defs></defs>
    <g id="Adjectives" stroke="none" stroke-width="1" fill="none" fill-rule="evenodd" sketch:type="MSPage">
        <g id="adj-shape" sketch:type="MSArtboardGroup" fill="#0090D7">
            <path d="M187.5,52 L335,300 L40,300 L187.5,52 Z M202.956364,183.529231 C203.285236,183.859067 203.451491,184.229679 203.451491,184.640777 C203.451491,185.053906 203.285236,185.424228 202.956364,185.752467 L202.584873,186.122934 L176.090036,202.550449 C175.099491,203.210411 174.252218,203.3339 173.552,202.920915 C172.849745,202.509818 172.499636,201.685881 172.499636,200.450701 L172.499636,168.707363 C172.499636,167.472184 172.849745,166.649988 173.552,166.237149 C174.252218,165.826051 175.099491,165.949395 176.090036,166.607471 L202.584873,183.034985 C202.666182,183.200991 202.789964,183.365111 202.956364,183.529231 Z M175.966255,218.548001 C176.749673,219.084619 177.1424,220.134493 177.1424,221.697622 L177.1424,250.723622 C177.1424,252.288783 176.749673,253.359988 175.966255,253.935061 C175.1808,254.512165 174.047273,254.799628 172.561455,254.799628 L144.704727,254.799628 C143.135855,254.799628 141.959709,254.512165 141.176145,253.935061 C140.390836,253.359988 140,252.288783 140,250.723622 L140,221.697622 C140,220.134493 140.390836,219.084619 141.176145,218.548001 C141.959709,218.013414 143.135855,217.74525 144.704727,217.74525 L172.561455,217.74525 C174.047273,217.74525 175.1808,218.013414 175.966255,218.548001 Z M214.283927,214.6573 C217.255418,214.6573 220.060364,215.213073 222.702982,216.324764 C225.343564,217.436455 227.655273,218.980285 229.636218,220.956688 C231.617018,222.932947 233.1648,225.239042 234.278982,227.873521 C235.393309,230.509597 235.9504,233.308196 235.9504,236.272367 C235.9504,239.236827 235.393309,242.037168 234.278982,244.671357 C233.1648,247.307723 231.617018,249.592777 229.636218,251.526518 C227.655273,253.462146 225.343564,255.00612 222.702982,256.158297 C220.060364,257.31236 217.255418,257.887578 214.283927,257.887578 C211.312582,257.887578 208.5056,257.31236 205.865164,256.158297 C203.222545,255.00612 200.912727,253.462146 198.931927,251.526518 C196.950836,249.592777 195.403345,247.307723 194.289018,244.671357 C193.174691,242.037168 192.6176,239.236827 192.6176,236.272367 C192.6176,233.308196 193.174691,230.509597 194.289018,227.873521 C195.403345,225.239042 196.950836,222.932947 198.931927,220.956688 C200.912727,218.980285 203.222545,217.436455 205.865164,216.324764 C208.5056,215.213073 211.312582,214.6573 214.283927,214.6573 Z M214.283927,214.6573" id="Triangle-1-copy-2" sketch:type="MSShapeGroup"></path>
        </g>
    </g>
</svg>