<?xml version="1.0" encoding="UTF-8" standalone="no"?>
<svg width="375px" height="300px" viewBox="0 0 375 300" version="1.1" xmlns="http://www.w3.org/2000/svg" xmlns:xlink="http://www.w3.org/1999/xlink" xmlns:sketch="http://www.bohemiancoding.com/sketch/ns">
    <title>adv-place</title>
    <description>Created with Sketch (http://www.bohemiancoding.com/sketch)</description>
    <defs></defs>
    <g id="Adverbs-Copy" stroke="none" stroke-width="1" fill="none" fill-rule="evenodd" sketch:type="MSPage">
        <g id="adv-place" sketch:type="MSArtboardGroup" fill="#FF7E29">
            <path d="M113.500074,224 C113.500074,264.869164 146.63091,298 187.499926,298 C228.369238,298 261.499926,264.869164 261.499926,224 C261.499926,183.130984 228.369238,150 187.499926,150 C146.63091,150 113.500074,183.130984 113.500074,224 Z M208.314551,183.026381 C196.229764,170.991206 176.651544,170.991206 164.563664,183.026381 C152.478877,195.055393 152.478877,214.571725 164.563664,226.597656 C164.563664,226.597656 186.425185,247.950385 186.425185,272.6 C186.425185,247.950385 208.311457,226.597656 208.311457,226.597656 C220.402431,214.571725 220.402431,195.055393 208.314551,183.026381 C208.314551,183.026381 220.402431,195.055393 208.314551,183.026381 Z M186.087834,216.84 C179.334414,216.84 173.860074,211.36566 173.860074,204.6 C173.860074,197.83434 179.334414,192.36 186.087834,192.36 C192.865734,192.36 198.340074,197.83434 198.340074,204.6 C198.340074,211.36566 192.865734,216.84 186.087834,216.84 L186.087834,216.84 L186.087834,216.84 L186.087834,216.84 Z" id="Verb---Blank-copy" sketch:type="MSShapeGroup"></path>
        </g>
        <g id="Adverb" sketch:type="MSArtboardGroup" transform="translate(-743.000000, -317.000000)"></g>
    </g>
</svg>