<?xml version="1.0" encoding="UTF-8" standalone="no"?>
<svg width="375px" height="300px" viewBox="0 0 375 300" version="1.1" xmlns="http://www.w3.org/2000/svg" xmlns:xlink="http://www.w3.org/1999/xlink" xmlns:sketch="http://www.bohemiancoding.com/sketch/ns">
    <title>adv-degree</title>
    <description>Created with Sketch (http://www.bohemiancoding.com/sketch)</description>
    <defs></defs>
    <g id="Adverbs-Copy" stroke="none" stroke-width="1" fill="none" fill-rule="evenodd" sketch:type="MSPage">
        <g id="adv-degree" sketch:type="MSArtboardGroup" fill="#FF7E29">
            <path d="M113.500074,224 C113.500074,264.869164 146.63091,298 187.499926,298 C228.369238,298 261.499926,264.869164 261.499926,224 C261.499926,183.130984 228.369238,150 187.499926,150 C146.63091,150 113.500074,183.130984 113.500074,224 Z M198.232082,233.732008 L192.958881,233.732008 L192.958881,186.273201 C192.958881,183.359757 190.60967,181 187.68568,181 C184.780146,181 182.412479,183.359757 182.412479,186.273201 L182.412479,233.732008 L177.139279,233.732008 L177.139279,244.278409 L182.412479,244.278409 L182.412479,260.098011 C182.412479,263.011455 184.780146,265.371212 187.68568,265.371212 C190.60967,265.371212 192.958881,263.011455 192.958881,260.098011 L192.958881,244.278409 L198.232082,244.278409 L198.232082,233.732008 Z M229.871286,202.092803 L224.598085,202.092803 L224.598085,186.273201 C224.598085,183.359757 222.248874,181 219.324885,181 C216.419351,181 214.051684,183.359757 214.051684,186.273201 L214.051684,202.092803 L208.778483,202.092803 L208.778483,212.639205 L214.051684,212.639205 L214.051684,260.098011 C214.051684,263.011455 216.419351,265.371212 219.324885,265.371212 C222.248874,265.371212 224.598085,263.011455 224.598085,260.098011 L224.598085,212.639205 L229.871286,212.639205 L229.871286,202.092803 Z M166.592877,212.639205 L161.319676,212.639205 L161.319676,186.273201 C161.319676,183.359757 158.970465,181 156.046476,181 C153.140942,181 150.773275,183.359757 150.773275,186.273201 L150.773275,212.639205 L145.500074,212.639205 L145.500074,223.185606 L150.773275,223.185606 L150.773275,260.098011 C150.773275,263.011455 153.140942,265.371212 156.046476,265.371212 C158.970465,265.371212 161.319676,263.011455 161.319676,260.098011 L161.319676,223.185606 L166.592877,223.185606 L166.592877,212.639205 Z" id="Verb---Blank-copy" sketch:type="MSShapeGroup"></path>
        </g>
        <g id="Adverb" sketch:type="MSArtboardGroup" transform="translate(-2363.000000, -317.000000)"></g>
    </g>
</svg>