<?xml version="1.0" encoding="UTF-8" standalone="no"?>
<svg width="375px" height="300px" viewBox="0 0 375 300" version="1.1" xmlns="http://www.w3.org/2000/svg" xmlns:xlink="http://www.w3.org/1999/xlink" xmlns:sketch="http://www.bohemiancoding.com/sketch/ns">
    <title>adv-frequency</title>
    <description>Created with Sketch (http://www.bohemiancoding.com/sketch)</description>
    <defs></defs>
    <g id="Adverbs-Copy" stroke="none" stroke-width="1" fill="none" fill-rule="evenodd" sketch:type="MSPage">
        <g id="adv-frequency" sketch:type="MSArtboardGroup" fill="#FF7E29">
            <path d="M113.500074,224 C113.500074,264.869164 146.63091,298 187.499926,298 C228.369238,298 261.499926,264.869164 261.499926,224 C261.499926,183.130984 228.369238,150 187.499926,150 C146.63091,150 113.500074,183.130984 113.500074,224 Z M188.142574,173 C195.044228,173 201.582882,174.310413 207.749228,176.931239 C213.906266,179.542804 219.258189,183.149913 223.777074,187.734043 C228.295959,192.308913 231.874766,197.624652 234.499536,203.67663 C237.138266,209.733239 238.455305,216.280674 238.455305,223.309674 C238.455305,230.18587 237.156882,236.69163 234.569343,242.817696 C231.986459,248.953022 228.444882,254.319696 223.949266,258.894565 C219.439689,263.478696 214.101728,267.081174 207.92142,269.692739 C201.736459,272.318196 195.188497,273.614717 188.263574,273.614717 C182.32992,273.614717 176.726689,272.633065 171.453882,270.66513 C166.171766,268.701826 161.392266,266.081 157.106074,262.798022 L165.766882,253.444543 C172.519612,258.362065 180.026266,260.825457 188.263574,260.825457 C193.373497,260.825457 198.232112,259.843804 202.848728,257.871239 C207.460689,255.912565 211.504882,253.19913 214.962689,249.754087 C218.425151,246.309043 221.152305,242.33613 223.120882,237.821457 C225.10342,233.316043 226.090036,228.440196 226.090036,223.189283 C226.090036,217.943 225.094112,213.016217 223.111574,208.422826 C221.129036,203.838696 218.406536,199.814848 214.925459,196.374435 C211.453689,192.929391 207.395536,190.225217 202.769612,188.252652 C198.143689,186.289348 193.261805,185.303065 188.142574,185.303065 C183.014036,185.303065 178.174036,186.252304 173.627228,188.132261 C169.08042,190.016848 165.064151,192.609891 161.592382,195.883609 C158.125266,199.166587 155.398112,203.019109 153.415574,207.441174 C151.423728,211.87713 150.344036,216.632587 150.185805,221.716804 L167.740112,221.716804 L145.094497,247.049913 L122.500074,221.716804 L137.829843,221.716804 C137.992728,215.021196 139.388882,208.705283 142.018305,202.750543 C144.652382,196.791174 148.263766,191.605087 152.871074,187.201543 C157.478382,182.798 162.769805,179.325174 168.77792,176.801587 C174.781382,174.268739 181.231612,173 188.142574,173 C188.142574,173 181.231612,173 188.142574,173 Z M192.465997,196.129022 L192.465997,221.216717 L208.535728,237.21487 L202.360074,243.359457 L183.819151,224.911804 L183.819151,196.129022 L192.465997,196.129022 L192.465997,196.129022 Z M192.465997,196.129022" id="Verb---Blank-copy" sketch:type="MSShapeGroup"></path>
        </g>
    </g>
</svg>