<?xml version="1.0" encoding="UTF-8" standalone="no"?>
<svg width="375px" height="300px" viewBox="0 0 375 300" version="1.1" xmlns="http://www.w3.org/2000/svg" xmlns:xlink="http://www.w3.org/1999/xlink" xmlns:sketch="http://www.bohemiancoding.com/sketch/ns">
    <title>adv-manner</title>
    <description>Created with Sketch (http://www.bohemiancoding.com/sketch)</description>
    <defs></defs>
    <g id="Adverbs-Copy" stroke="none" stroke-width="1" fill="none" fill-rule="evenodd" sketch:type="MSPage">
        <g id="adv-manner" sketch:type="MSArtboardGroup" fill="#FF7E29">
            <path d="M113.500074,224 C113.500074,264.869164 146.63091,298 187.499926,298 C228.369238,298 261.499926,264.869164 261.499926,224 C261.499926,183.130984 228.369238,150 187.499926,150 C146.63091,150 113.500074,183.130984 113.500074,224 Z M230.585113,255.88141 C232.867109,258.578378 233.095308,261.01943 231.269712,263.204565 L226.021121,268.637874 C224.804057,269.759971 223.472893,270.29149 222.027629,270.29149 C220.582365,270.29149 219.327267,269.759971 218.262335,268.637874 L196.583375,246.215632 C193.997113,247.790504 191.182652,249.01103 188.139991,249.87721 C185.097329,250.743389 181.978602,251.176479 178.783808,251.176479 C173.91555,251.176479 169.275492,250.133126 164.863633,248.085793 C160.451774,246.058145 156.610415,243.34149 153.339554,239.935829 C150.068693,236.549854 147.444398,232.592988 145.466669,228.006172 C143.488939,223.458729 142.500074,218.655369 142.500074,213.596092 C142.500074,208.576187 143.412872,203.792513 145.238469,199.304127 C147.064066,194.815741 149.574261,190.937619 152.769055,187.630387 C155.963849,184.323156 159.691109,181.704931 163.950835,179.83477 C168.21056,177.925237 172.774552,177 177.64281,177 C182.511067,177 187.151126,178.023667 191.562984,180.051315 C195.974843,182.118335 199.854236,184.834989 203.201163,188.201278 C206.54809,191.606939 209.210419,195.563806 211.188148,200.130935 C213.165878,204.71775 214.154743,209.501424 214.154743,214.560701 C214.154743,221.490139 212.405213,227.868371 208.906153,233.675712 L230.585113,255.88141 Z M153.500074,213.257012 C153.500074,216.741417 154.184673,220.08802 155.55387,223.316508 C156.923068,226.544996 158.786698,229.379766 161.14476,231.801132 C163.502822,234.26187 166.241217,236.171403 169.359945,237.608473 C172.478673,239.025858 175.7115,239.734551 179.058427,239.734551 C182.405354,239.734551 185.562115,239.06523 188.52871,237.726589 C191.495305,236.387947 194.081566,234.576844 196.287496,232.29328 C198.493425,230.009715 200.242955,227.332432 201.536086,224.261432 C202.829217,221.190431 203.475783,217.843828 203.475783,214.221622 C203.475783,210.756903 202.791184,207.449671 201.421986,204.280241 C200.052789,201.150183 198.189159,198.354785 195.831097,195.913733 C193.473034,193.472681 190.734639,191.543462 187.615912,190.126077 C184.497184,188.689007 181.264357,188 177.917429,188 C174.570502,188 171.413741,188.649635 168.447147,189.988276 C165.480552,191.346603 162.89429,193.13802 160.688361,195.441271 C158.482432,197.70515 156.732901,200.402118 155.43977,203.453433 C154.146639,206.54412 153.500074,209.81198 153.500074,213.257012 Z M153.500074,213.257012" id="Verb---Blank-copy" sketch:type="MSShapeGroup"></path>
        </g>
    </g>
</svg>