<?xml version="1.0" encoding="UTF-8" standalone="no"?>
<svg width="375px" height="300px" viewBox="0 0 375 300" version="1.1" xmlns="http://www.w3.org/2000/svg" xmlns:xlink="http://www.w3.org/1999/xlink" xmlns:sketch="http://www.bohemiancoding.com/sketch/ns">
    <title>adv-frequency</title>
    <description>Created with Sketch (http://www.bohemiancoding.com/sketch)</description>
    <defs></defs>
    <g id="Adverbs-Copy" stroke="none" stroke-width="1" fill="none" fill-rule="evenodd" sketch:type="MSPage">
        <g id="adv-frequency" sketch:type="MSArtboardGroup" fill="#FF7E29">
            <path d="M113.500074,224 C113.500074,264.869164 146.63091,298 187.499926,298 C228.369238,298 261.499926,264.869164 261.499926,224 C261.499926,183.130984 228.369238,150 187.499926,150 C146.63091,150 113.500074,183.130984 113.500074,224 Z M166.905901,177.62388 C160.748862,180.235446 155.396939,183.842554 150.878055,188.426685 C146.35917,193.001554 142.780362,198.317293 140.155593,204.369272 C137.516862,210.42588 136.199824,216.973315 136.199824,224.002315 C136.199824,230.878511 137.498247,237.384272 140.085786,243.510337 C142.66867,249.645663 146.210247,255.012337 150.705862,259.587207 C155.215439,264.171337 160.553401,267.773815 166.733709,270.38538 C172.91867,273.010837 179.466632,274.307359 186.391555,274.307359 C192.325209,274.307359 197.928439,273.325707 203.201247,271.357772 C208.483362,269.394467 213.262862,266.773641 217.549055,263.490663 L208.888247,254.137185 C202.135516,259.054707 194.628862,261.518098 186.391555,261.518098 C181.281632,261.518098 176.423016,260.536446 171.806401,258.56388 C167.194439,256.605207 163.150247,253.891772 159.692439,250.446728 C156.229978,247.001685 153.502824,243.028772 151.534247,238.514098 C149.551709,234.008685 148.565093,229.132837 148.565093,223.881924 C148.565093,218.635641 149.561016,213.708859 151.543555,209.115467 C153.526093,204.531337 156.248593,200.507489 159.72967,197.067076 C163.201439,193.622033 167.259593,190.917859 171.885516,188.945293 C176.511439,186.981989 181.393324,185.995707 186.512555,185.995707 C191.641093,185.995707 196.481093,186.944946 201.027901,188.824902 C205.574709,190.709489 209.590978,193.302533 213.062747,196.57625 C216.529862,199.859228 219.257016,203.71175 221.239555,208.133815 C223.231401,212.569772 224.311093,217.325228 224.469324,222.409446 L206.915016,222.409446 L229.560632,247.742554 L252.155055,222.409446 L236.825286,222.409446 C236.662401,215.713837 235.266247,209.397924 232.636824,203.443185 C230.002747,197.483815 226.391362,192.297728 221.784055,187.894185 C217.176747,183.490641 211.885324,180.017815 205.877209,177.494228 C199.873747,174.96138 193.423516,173.692641 186.512555,173.692641 C179.610901,173.692641 173.072247,175.003054 166.905901,177.62388 Z M187.465997,200.384783 L187.465997,225.472478 L203.535728,241.47063 L197.360074,247.615217 L178.819151,229.167565 L178.819151,200.384783 L187.465997,200.384783 L187.465997,200.384783 Z" id="Verb---Blank-copy" sketch:type="MSShapeGroup"></path>
        </g>
        <g id="Adverb" sketch:type="MSArtboardGroup" transform="translate(-1553.000000, -317.000000)"></g>
    </g>
</svg>