<?xml version="1.0" encoding="UTF-8" standalone="no"?>
<svg width="375px" height="300px" viewBox="0 0 375 300" version="1.1" xmlns="http://www.w3.org/2000/svg" xmlns:xlink="http://www.w3.org/1999/xlink" xmlns:sketch="http://www.bohemiancoding.com/sketch/ns">
    <title>art-some</title>
    <description>Created with Sketch (http://www.bohemiancoding.com/sketch)</description>
    <defs></defs>
    <g id="Articles" stroke="none" stroke-width="1" fill="none" fill-rule="evenodd" sketch:type="MSPage">
        <g id="art-some" sketch:type="MSArtboardGroup" fill="#8FCFF5">
            <path d="M187.5,101 L306,300 L69,300 L187.5,101 Z M135.756,242.288 C135.158664,241.503996 134.337339,240.82267 133.292,240.244 C132.246661,239.66533 131.108006,239.376 129.876,239.376 C128.793328,239.376 127.804004,239.599998 126.908,240.048 C126.011996,240.496002 125.564,241.242661 125.564,242.288 C125.564,243.333339 126.058662,244.070665 127.048,244.5 C128.037338,244.929335 129.48399,245.367998 131.388,245.816 C132.396005,246.040001 133.413328,246.338665 134.44,246.712 C135.466672,247.085335 136.399996,247.579997 137.24,248.196 C138.080004,248.812003 138.761331,249.577329 139.284,250.492 C139.806669,251.406671 140.068,252.517327 140.068,253.824 C140.068,255.466675 139.760003,256.857328 139.144,257.996 C138.527997,259.134672 137.706672,260.058663 136.68,260.768 C135.653328,261.477337 134.458673,261.990665 133.096,262.308 C131.733327,262.625335 130.324007,262.784 128.868,262.784 C126.777323,262.784 124.742677,262.401337 122.764,261.636 C120.785323,260.870663 119.142673,259.778674 117.836,258.36 L122.26,254.216 C123.00667,255.186672 123.977327,255.98933 125.172,256.624 C126.366673,257.25867 127.691993,257.576 129.148,257.576 C129.633336,257.576 130.127997,257.520001 130.632,257.408 C131.136003,257.295999 131.602665,257.118668 132.032,256.876 C132.461335,256.633332 132.806665,256.306669 133.068,255.896 C133.329335,255.485331 133.46,254.981336 133.46,254.384 C133.46,253.263994 132.946672,252.461336 131.92,251.976 C130.893328,251.490664 129.353344,251.005336 127.3,250.52 C126.291995,250.295999 125.312005,250.006668 124.36,249.652 C123.407995,249.297332 122.55867,248.83067 121.812,248.252 C121.06533,247.67333 120.468002,246.954671 120.02,246.096 C119.571998,245.237329 119.348,244.17334 119.348,242.904 C119.348,241.410659 119.655997,240.122672 120.272,239.04 C120.888003,237.957328 121.699995,237.07067 122.708,236.38 C123.716005,235.68933 124.85466,235.176002 126.124,234.84 C127.39334,234.503998 128.699993,234.336 130.044,234.336 C131.985343,234.336 133.879991,234.671997 135.728,235.344 C137.576009,236.016003 139.041328,237.04266 140.124,238.424 C140.124,238.424 139.041328,237.04266 140.124,238.424 L135.756,242.288 Z M144.324,248.448 C144.324,246.319989 144.706663,244.388009 145.472,242.652 C146.237337,240.915991 147.273327,239.432006 148.58,238.2 C149.886673,236.967994 151.435991,236.016003 153.228,235.344 C155.020009,234.671997 156.92399,234.336 158.94,234.336 C160.95601,234.336 162.859991,234.671997 164.652,235.344 C166.444009,236.016003 167.993327,236.967994 169.3,238.2 C170.606673,239.432006 171.642663,240.915991 172.408,242.652 C173.173337,244.388009 173.556,246.319989 173.556,248.448 C173.556,250.576011 173.173337,252.517325 172.408,254.272 C171.642663,256.026675 170.606673,257.529327 169.3,258.78 C167.993327,260.030673 166.444009,261.010663 164.652,261.72 C162.859991,262.429337 160.95601,262.784 158.94,262.784 C156.92399,262.784 155.020009,262.429337 153.228,261.72 C151.435991,261.010663 149.886673,260.030673 148.58,258.78 C147.273327,257.529327 146.237337,256.026675 145.472,254.272 C144.706663,252.517325 144.324,250.576011 144.324,248.448 C144.324,248.448 144.324,250.576011 144.324,248.448 Z M151.156,248.448 C151.156,249.493339 151.314665,250.538661 151.632,251.584 C151.949335,252.629339 152.42533,253.562663 153.06,254.384 C153.69467,255.205337 154.497328,255.877331 155.468,256.4 C156.438672,256.922669 157.595993,257.184 158.94,257.184 C160.284007,257.184 161.441328,256.922669 162.412,256.4 C163.382672,255.877331 164.18533,255.205337 164.82,254.384 C165.45467,253.562663 165.930665,252.629339 166.248,251.584 C166.565335,250.538661 166.724,249.493339 166.724,248.448 C166.724,247.402661 166.565335,246.366672 166.248,245.34 C165.930665,244.313328 165.45467,243.389337 164.82,242.568 C164.18533,241.746663 163.382672,241.084003 162.412,240.58 C161.441328,240.075997 160.284007,239.824 158.94,239.824 C157.595993,239.824 156.438672,240.075997 155.468,240.58 C154.497328,241.084003 153.69467,241.746663 153.06,242.568 C152.42533,243.389337 151.949335,244.313328 151.632,245.34 C151.314665,246.366672 151.156,247.402661 151.156,248.448 C151.156,248.448 151.156,247.402661 151.156,248.448 Z M212.14,234.336 C213.894675,234.336 215.397327,234.643997 216.648,235.26 C217.898673,235.876003 218.925329,236.687995 219.728,237.696 C220.530671,238.704005 221.118665,239.861327 221.492,241.168 C221.865335,242.474673 222.052,243.81866 222.052,245.2 L222.052,262 L215.332,262 L215.332,247.104 C215.332,246.319996 215.276001,245.498671 215.164,244.64 C215.051999,243.781329 214.809335,243.00667 214.436,242.316 C214.062665,241.62533 213.549337,241.056002 212.896,240.608 C212.242663,240.159998 211.374672,239.936 210.292,239.936 C209.246661,239.936 208.35067,240.159998 207.604,240.608 C206.85733,241.056002 206.241336,241.634663 205.756,242.344 C205.270664,243.053337 204.916001,243.846662 204.692,244.724 C204.467999,245.601338 204.356,246.469329 204.356,247.328 L204.356,262 L197.636,262 L197.636,245.76 C197.636,244.079992 197.234671,242.689339 196.432,241.588 C195.629329,240.486661 194.369342,239.936 192.652,239.936 C191.643995,239.936 190.76667,240.150665 190.02,240.58 C189.27333,241.009335 188.666669,241.559997 188.2,242.232 C187.733331,242.904003 187.378668,243.678662 187.136,244.556 C186.893332,245.433338 186.772,246.319996 186.772,247.216 L186.772,262 L180.052,262 L180.052,235.12 L186.436,235.12 L186.436,239.432 L186.548,239.432 C186.846668,238.759997 187.247997,238.125336 187.752,237.528 C188.256003,236.930664 188.85333,236.389336 189.544,235.904 C190.23467,235.418664 191.027996,235.036001 191.924,234.756 C192.820004,234.475999 193.809328,234.336 194.892,234.336 C196.982677,234.336 198.71866,234.802662 200.1,235.736 C201.48134,236.669338 202.54533,237.901326 203.292,239.432 C204.188004,237.789325 205.382659,236.529338 206.876,235.652 C208.369341,234.774662 210.12399,234.336 212.14,234.336 C212.14,234.336 210.12399,234.336 212.14,234.336 Z M248.82,245.872 C248.82,245.013329 248.698668,244.192004 248.456,243.408 C248.213332,242.623996 247.830669,241.933336 247.308,241.336 C246.785331,240.738664 246.122671,240.262668 245.32,239.908 C244.517329,239.553332 243.574672,239.376 242.492,239.376 C240.47599,239.376 238.768007,239.982661 237.368,241.196 C235.967993,242.409339 235.193334,243.96799 235.044,245.872 C235.044,245.872 235.193334,243.96799 235.044,245.872 L248.82,245.872 Z M255.54,248.896 L255.54,249.792 C255.54,250.090668 255.521334,250.389332 255.484,250.688 L235.044,250.688 C235.118667,251.658672 235.370665,252.545329 235.8,253.348 C236.229335,254.150671 236.798663,254.84133 237.508,255.42 C238.217337,255.99867 239.019996,256.455998 239.916,256.792 C240.812004,257.128002 241.745328,257.296 242.716,257.296 C244.396008,257.296 245.814661,256.988003 246.972,256.372 C248.129339,255.755997 249.08133,254.906672 249.828,253.824 L254.308,257.408 C251.65732,260.992018 247.812025,262.784 242.772,262.784 C240.681323,262.784 238.758675,262.457337 237.004,261.804 C235.249325,261.150663 233.728006,260.226673 232.44,259.032 C231.151994,257.837327 230.144004,256.372009 229.416,254.636 C228.687996,252.899991 228.324,250.930678 228.324,248.728 C228.324,246.562656 228.687996,244.593342 229.416,242.82 C230.144004,241.046658 231.14266,239.534673 232.412,238.284 C233.68134,237.033327 235.183991,236.06267 236.92,235.372 C238.656009,234.68133 240.53199,234.336 242.548,234.336 C244.414676,234.336 246.141325,234.643997 247.728,235.26 C249.314675,235.876003 250.686661,236.790661 251.844,238.004 C253.001339,239.217339 253.906663,240.729324 254.56,242.54 C255.213337,244.350676 255.54,246.469321 255.54,248.896 C255.54,248.896 255.54,246.469321 255.54,248.896 Z" id="Triangle-1-copy-3" sketch:type="MSShapeGroup"></path>
        </g>
    </g>
</svg>