<?xml version="1.0" encoding="UTF-8" standalone="no"?>
<svg width="375px" height="300px" viewBox="0 0 375 300" version="1.1" xmlns="http://www.w3.org/2000/svg" xmlns:xlink="http://www.w3.org/1999/xlink" xmlns:sketch="http://www.bohemiancoding.com/sketch/ns">
    <title>art-that</title>
    <description>Created with Sketch (http://www.bohemiancoding.com/sketch)</description>
    <defs></defs>
    <g id="Articles" stroke="none" stroke-width="1" fill="none" fill-rule="evenodd" sketch:type="MSPage">
        <g id="art-that" sketch:type="MSArtboardGroup" fill="#8FCFF5">
            <path d="M187.5,101 L306,300 L69,300 L187.5,101 Z M137.156,240.496 L137.156,235.12 L141.86,235.12 L141.86,227.336 L148.468,227.336 L148.468,235.12 L155.188,235.12 L155.188,240.496 L148.468,240.496 L148.468,252.984 C148.468,254.178673 148.682665,255.167996 149.112,255.952 C149.541335,256.736004 150.502659,257.128 151.996,257.128 C152.444002,257.128 152.929331,257.081334 153.452,256.988 C153.974669,256.894666 154.441331,256.754668 154.852,256.568 L155.076,261.832 C154.478664,262.056001 153.769337,262.233333 152.948,262.364 C152.126663,262.494667 151.34267,262.56 150.596,262.56 C148.803991,262.56 147.348006,262.308003 146.228,261.804 C145.107994,261.299997 144.221337,260.609338 143.568,259.732 C142.914663,258.854662 142.466668,257.846672 142.224,256.708 C141.981332,255.569328 141.86,254.346673 141.86,253.04 L141.86,240.496 L137.156,240.496 Z M175.012,234.336 C176.766675,234.336 178.269327,234.643997 179.52,235.26 C180.770673,235.876003 181.797329,236.687995 182.6,237.696 C183.402671,238.704005 183.990665,239.861327 184.364,241.168 C184.737335,242.474673 184.924,243.81866 184.924,245.2 L184.924,262 L178.204,262 L178.204,247.216 C178.204,246.431996 178.148001,245.620004 178.036,244.78 C177.923999,243.939996 177.690668,243.17467 177.336,242.484 C176.981332,241.79333 176.477337,241.224002 175.824,240.776 C175.170663,240.327998 174.302672,240.104 173.22,240.104 C172.137328,240.104 171.204004,240.309331 170.42,240.72 C169.635996,241.130669 168.982669,241.68133 168.46,242.372 C167.937331,243.06267 167.545335,243.837329 167.284,244.696 C167.022665,245.554671 166.892,246.431996 166.892,247.328 L166.892,262 L160.172,262 L160.172,219.664 L166.892,219.664 L166.892,238.872 L167.004,238.872 C167.265335,238.311997 167.647997,237.761336 168.152,237.22 C168.656003,236.678664 169.243997,236.193335 169.916,235.764 C170.588003,235.334665 171.353329,234.989335 172.212,234.728 C173.070671,234.466665 174.003995,234.336 175.012,234.336 C175.012,234.336 174.003995,234.336 175.012,234.336 Z M209.452,258.584 L209.284,258.584 C208.611997,259.778673 207.529341,260.758663 206.036,261.524 C204.542659,262.289337 202.84401,262.672 200.94,262.672 C199.857328,262.672 198.728006,262.532001 197.552,262.252 C196.375994,261.971999 195.293338,261.505337 194.304,260.852 C193.314662,260.198663 192.493337,259.340005 191.84,258.276 C191.186663,257.211995 190.86,255.896008 190.86,254.328 C190.86,252.31199 191.429328,250.706673 192.568,249.512 C193.706672,248.317327 195.171991,247.40267 196.964,246.768 C198.756009,246.13333 200.743989,245.713334 202.928,245.508 C205.112011,245.302666 207.249323,245.2 209.34,245.2 L209.34,244.528 C209.34,242.847992 208.733339,241.606671 207.52,240.804 C206.306661,240.001329 204.860008,239.6 203.18,239.6 C201.761326,239.6 200.398673,239.898664 199.092,240.496 C197.785327,241.093336 196.702671,241.821329 195.844,242.68 L192.372,238.592 C193.902674,237.173326 195.666657,236.109337 197.664,235.4 C199.661343,234.690663 201.686656,234.336 203.74,234.336 C206.129345,234.336 208.098659,234.671997 209.648,235.344 C211.197341,236.016003 212.419996,236.893328 213.316,237.976 C214.212004,239.058672 214.837332,240.271993 215.192,241.616 C215.546668,242.960007 215.724,244.303993 215.724,245.648 L215.724,262 L209.452,262 L209.452,258.584 Z M209.34,249.736 L207.828,249.736 C206.745328,249.736 205.606673,249.782666 204.412,249.876 C203.217327,249.969334 202.116005,250.174665 201.108,250.492 C200.099995,250.809335 199.260003,251.25733 198.588,251.836 C197.915997,252.41467 197.58,253.207995 197.58,254.216 C197.58,254.85067 197.719999,255.382665 198,255.812 C198.280001,256.241335 198.643998,256.586665 199.092,256.848 C199.540002,257.109335 200.043997,257.295999 200.604,257.408 C201.164003,257.520001 201.723997,257.576 202.284,257.576 C204.598678,257.576 206.353327,256.960006 207.548,255.728 C208.742673,254.495994 209.34,252.816011 209.34,250.688 C209.34,250.688 209.34,252.816011 209.34,250.688 L209.34,249.736 Z M219.14,240.496 L219.14,235.12 L223.844,235.12 L223.844,227.336 L230.452,227.336 L230.452,235.12 L237.172,235.12 L237.172,240.496 L230.452,240.496 L230.452,252.984 C230.452,254.178673 230.666665,255.167996 231.096,255.952 C231.525335,256.736004 232.486659,257.128 233.98,257.128 C234.428002,257.128 234.913331,257.081334 235.436,256.988 C235.958669,256.894666 236.425331,256.754668 236.836,256.568 L237.06,261.832 C236.462664,262.056001 235.753337,262.233333 234.932,262.364 C234.110663,262.494667 233.32667,262.56 232.58,262.56 C230.787991,262.56 229.332006,262.308003 228.212,261.804 C227.091994,261.299997 226.205337,260.609338 225.552,259.732 C224.898663,258.854662 224.450668,257.846672 224.208,256.708 C223.965332,255.569328 223.844,254.346673 223.844,253.04 L223.844,240.496 L219.14,240.496 Z" id="Triangle-1-copy-3" sketch:type="MSShapeGroup"></path>
        </g>
    </g>
</svg>