<?xml version="1.0" encoding="UTF-8" standalone="no"?>
<svg width="375px" height="300px" viewBox="0 0 375 300" version="1.1" xmlns="http://www.w3.org/2000/svg" xmlns:xlink="http://www.w3.org/1999/xlink" xmlns:sketch="http://www.bohemiancoding.com/sketch/ns">
    <title>art-the</title>
    <description>Created with Sketch (http://www.bohemiancoding.com/sketch)</description>
    <defs></defs>
    <g id="Articles" stroke="none" stroke-width="1" fill="none" fill-rule="evenodd" sketch:type="MSPage">
        <g id="art-the" sketch:type="MSArtboardGroup" fill="#8FCFF5">
            <g id="Triangle-1-copy-3-+-the" sketch:type="MSLayerGroup" transform="translate(69.000000, 101.000000)">
                <path d="M118.5,0 L237,199 L0,199 L118.5,0 Z M70.78,136.12 L70.78,129.4 L76.66,129.4 L76.66,119.67 L84.92,119.67 L84.92,129.4 L93.32,129.4 L93.32,136.12 L84.92,136.12 L84.92,151.73 C84.92,153.223341 85.1883307,154.459995 85.725,155.44 C86.2616694,156.420005 87.463324,156.91 89.33,156.91 C89.8900028,156.91 90.4966634,156.851667 91.15,156.735 C91.8033366,156.618333 92.3866641,156.443334 92.9,156.21 L93.18,162.79 C92.4333296,163.070001 91.5466718,163.291666 90.52,163.455 C89.4933282,163.618334 88.513338,163.7 87.58,163.7 C85.3399888,163.7 83.520007,163.385003 82.12,162.755 C80.719993,162.124997 79.6116708,161.261672 78.795,160.165 C77.9783293,159.068328 77.4183349,157.80834 77.115,156.385 C76.8116652,154.96166 76.66,153.433341 76.66,151.8 L76.66,136.12 L70.78,136.12 Z M118.1,128.42 C120.293344,128.42 122.171659,128.804996 123.735,129.575 C125.298341,130.345004 126.581662,131.359994 127.585,132.62 C128.588338,133.880006 129.323331,135.326659 129.79,136.96 C130.256669,138.593342 130.49,140.273325 130.49,142 L130.49,163 L122.09,163 L122.09,144.52 C122.09,143.539995 122.020001,142.525005 121.88,141.475 C121.739999,140.424995 121.448336,139.468338 121.005,138.605 C120.561664,137.741662 119.931671,137.030003 119.115,136.47 C118.298329,135.909997 117.21334,135.63 115.86,135.63 C114.50666,135.63 113.340005,135.886664 112.36,136.4 C111.379995,136.913336 110.563337,137.601662 109.91,138.465 C109.256663,139.328338 108.766668,140.296661 108.44,141.37 C108.113332,142.443339 107.95,143.539994 107.95,144.66 L107.95,163 L99.55,163 L99.55,110.08 L107.95,110.08 L107.95,134.09 L108.09,134.09 C108.416668,133.389996 108.894997,132.70167 109.525,132.025 C110.155003,131.34833 110.889996,130.741669 111.73,130.205 C112.570004,129.668331 113.526661,129.236668 114.6,128.91 C115.673339,128.583332 116.839994,128.42 118.1,128.42 Z M163.95,142.84 C163.95,141.766661 163.798335,140.740005 163.495,139.76 C163.191665,138.779995 162.713337,137.91667 162.06,137.17 C161.406663,136.42333 160.578338,135.828336 159.575,135.385 C158.571662,134.941664 157.39334,134.72 156.04,134.72 C153.519987,134.72 151.385009,135.478326 149.635,136.995 C147.884991,138.511674 146.916668,140.459988 146.73,142.84 L163.95,142.84 Z M172.35,146.62 L172.35,147.74 C172.35,148.113335 172.326667,148.486665 172.28,148.86 L146.73,148.86 C146.823334,150.073339 147.138331,151.181662 147.675,152.185 C148.211669,153.188338 148.923329,154.051663 149.81,154.775 C150.696671,155.498337 151.699994,156.069998 152.82,156.49 C153.940006,156.910002 155.106661,157.12 156.32,157.12 C158.42001,157.12 160.193326,156.735004 161.64,155.965 C163.086674,155.194996 164.276662,154.13334 165.21,152.78 L170.81,157.26 C167.49665,161.740022 162.690032,163.98 156.39,163.98 C153.776654,163.98 151.373344,163.571671 149.18,162.755 C146.986656,161.938329 145.085008,160.783341 143.475,159.29 C141.864992,157.796659 140.605005,155.965011 139.695,153.795 C138.784995,151.624989 138.33,149.163347 138.33,146.41 C138.33,143.70332 138.784995,141.241678 139.695,139.025 C140.605005,136.808322 141.853325,134.918341 143.44,133.355 C145.026675,131.791659 146.904989,130.578338 149.075,129.715 C151.245011,128.851662 153.589987,128.42 156.11,128.42 C158.443345,128.42 160.601657,128.804996 162.585,129.575 C164.568343,130.345004 166.283326,131.488326 167.73,133.005 C169.176674,134.521674 170.308329,136.411655 171.125,138.675 C171.941671,140.938345 172.35,143.586651 172.35,146.62 Z" id="Triangle-1-copy-3" sketch:type="MSShapeGroup"></path>
            </g>
        </g>
    </g>
</svg>