<?xml version="1.0" encoding="UTF-8" standalone="no"?>
<svg width="375px" height="300px" viewBox="0 0 375 300" version="1.1" xmlns="http://www.w3.org/2000/svg" xmlns:xlink="http://www.w3.org/1999/xlink" xmlns:sketch="http://www.bohemiancoding.com/sketch/ns">
    <title>art-this</title>
    <description>Created with Sketch (http://www.bohemiancoding.com/sketch)</description>
    <defs></defs>
    <g id="Articles" stroke="none" stroke-width="1" fill="none" fill-rule="evenodd" sketch:type="MSPage">
        <g id="art-this" sketch:type="MSArtboardGroup" fill="#8FCFF5">
            <path d="M187.5,101 L306,300 L69,300 L187.5,101 Z M141.86,240.496 L141.86,235.12 L146.564,235.12 L146.564,227.336 L153.172,227.336 L153.172,235.12 L159.892,235.12 L159.892,240.496 L153.172,240.496 L153.172,252.984 C153.172,254.178673 153.386665,255.167996 153.816,255.952 C154.245335,256.736004 155.206659,257.128 156.7,257.128 C157.148002,257.128 157.633331,257.081334 158.156,256.988 C158.678669,256.894666 159.145331,256.754668 159.556,256.568 L159.78,261.832 C159.182664,262.056001 158.473337,262.233333 157.652,262.364 C156.830663,262.494667 156.04667,262.56 155.3,262.56 C153.507991,262.56 152.052006,262.308003 150.932,261.804 C149.811994,261.299997 148.925337,260.609338 148.272,259.732 C147.618663,258.854662 147.170668,257.846672 146.928,256.708 C146.685332,255.569328 146.564,254.346673 146.564,253.04 L146.564,240.496 L141.86,240.496 Z M179.716,234.336 C181.470675,234.336 182.973327,234.643997 184.224,235.26 C185.474673,235.876003 186.501329,236.687995 187.304,237.696 C188.106671,238.704005 188.694665,239.861327 189.068,241.168 C189.441335,242.474673 189.628,243.81866 189.628,245.2 L189.628,262 L182.908,262 L182.908,247.216 C182.908,246.431996 182.852001,245.620004 182.74,244.78 C182.627999,243.939996 182.394668,243.17467 182.04,242.484 C181.685332,241.79333 181.181337,241.224002 180.528,240.776 C179.874663,240.327998 179.006672,240.104 177.924,240.104 C176.841328,240.104 175.908004,240.309331 175.124,240.72 C174.339996,241.130669 173.686669,241.68133 173.164,242.372 C172.641331,243.06267 172.249335,243.837329 171.988,244.696 C171.726665,245.554671 171.596,246.431996 171.596,247.328 L171.596,262 L164.876,262 L164.876,219.664 L171.596,219.664 L171.596,238.872 L171.708,238.872 C171.969335,238.311997 172.351997,237.761336 172.856,237.22 C173.360003,236.678664 173.947997,236.193335 174.62,235.764 C175.292003,235.334665 176.057329,234.989335 176.916,234.728 C177.774671,234.466665 178.707995,234.336 179.716,234.336 C179.716,234.336 178.707995,234.336 179.716,234.336 Z M197.58,235.12 L204.3,235.12 L204.3,262 L197.58,262 L197.58,235.12 Z M196.628,225.992 C196.628,224.909328 197.029329,223.966671 197.832,223.164 C198.634671,222.361329 199.651994,221.96 200.884,221.96 C202.116006,221.96 203.151996,222.342663 203.992,223.108 C204.832004,223.873337 205.252,224.834661 205.252,225.992 C205.252,227.149339 204.832004,228.110663 203.992,228.876 C203.151996,229.641337 202.116006,230.024 200.884,230.024 C199.651994,230.024 198.634671,229.622671 197.832,228.82 C197.029329,228.017329 196.628,227.074672 196.628,225.992 C196.628,225.992 196.628,227.074672 196.628,225.992 Z M227.204,242.288 C226.606664,241.503996 225.785339,240.82267 224.74,240.244 C223.694661,239.66533 222.556006,239.376 221.324,239.376 C220.241328,239.376 219.252004,239.599998 218.356,240.048 C217.459996,240.496002 217.012,241.242661 217.012,242.288 C217.012,243.333339 217.506662,244.070665 218.496,244.5 C219.485338,244.929335 220.93199,245.367998 222.836,245.816 C223.844005,246.040001 224.861328,246.338665 225.888,246.712 C226.914672,247.085335 227.847996,247.579997 228.688,248.196 C229.528004,248.812003 230.209331,249.577329 230.732,250.492 C231.254669,251.406671 231.516,252.517327 231.516,253.824 C231.516,255.466675 231.208003,256.857328 230.592,257.996 C229.975997,259.134672 229.154672,260.058663 228.128,260.768 C227.101328,261.477337 225.906673,261.990665 224.544,262.308 C223.181327,262.625335 221.772007,262.784 220.316,262.784 C218.225323,262.784 216.190677,262.401337 214.212,261.636 C212.233323,260.870663 210.590673,259.778674 209.284,258.36 L213.708,254.216 C214.45467,255.186672 215.425327,255.98933 216.62,256.624 C217.814673,257.25867 219.139993,257.576 220.596,257.576 C221.081336,257.576 221.575997,257.520001 222.08,257.408 C222.584003,257.295999 223.050665,257.118668 223.48,256.876 C223.909335,256.633332 224.254665,256.306669 224.516,255.896 C224.777335,255.485331 224.908,254.981336 224.908,254.384 C224.908,253.263994 224.394672,252.461336 223.368,251.976 C222.341328,251.490664 220.801344,251.005336 218.748,250.52 C217.739995,250.295999 216.760005,250.006668 215.808,249.652 C214.855995,249.297332 214.00667,248.83067 213.26,248.252 C212.51333,247.67333 211.916002,246.954671 211.468,246.096 C211.019998,245.237329 210.796,244.17334 210.796,242.904 C210.796,241.410659 211.103997,240.122672 211.72,239.04 C212.336003,237.957328 213.147995,237.07067 214.156,236.38 C215.164005,235.68933 216.30266,235.176002 217.572,234.84 C218.84134,234.503998 220.147993,234.336 221.492,234.336 C223.433343,234.336 225.327991,234.671997 227.176,235.344 C229.024009,236.016003 230.489328,237.04266 231.572,238.424 C231.572,238.424 230.489328,237.04266 231.572,238.424 L227.204,242.288 Z" id="Triangle-1-copy-3" sketch:type="MSShapeGroup"></path>
        </g>
    </g>
</svg>