<?xml version="1.0" encoding="UTF-8" standalone="no"?>
<svg width="375px" height="300px" viewBox="0 0 375 300" version="1.1" xmlns="http://www.w3.org/2000/svg" xmlns:xlink="http://www.w3.org/1999/xlink" xmlns:sketch="http://www.bohemiancoding.com/sketch/ns">
    <title>art-those</title>
    <description>Created with Sketch (http://www.bohemiancoding.com/sketch)</description>
    <defs></defs>
    <g id="Articles" stroke="none" stroke-width="1" fill="none" fill-rule="evenodd" sketch:type="MSPage">
        <g id="art-those" sketch:type="MSArtboardGroup" fill="#8FCFF5">
            <path d="M184.5,101 L303,300 L66,300 L184.5,101 Z M113.212,240.496 L113.212,235.12 L117.916,235.12 L117.916,227.336 L124.524,227.336 L124.524,235.12 L131.244,235.12 L131.244,240.496 L124.524,240.496 L124.524,252.984 C124.524,254.178673 124.738665,255.167996 125.168,255.952 C125.597335,256.736004 126.558659,257.128 128.052,257.128 C128.500002,257.128 128.985331,257.081334 129.508,256.988 C130.030669,256.894666 130.497331,256.754668 130.908,256.568 L131.132,261.832 C130.534664,262.056001 129.825337,262.233333 129.004,262.364 C128.182663,262.494667 127.39867,262.56 126.652,262.56 C124.859991,262.56 123.404006,262.308003 122.284,261.804 C121.163994,261.299997 120.277337,260.609338 119.624,259.732 C118.970663,258.854662 118.522668,257.846672 118.28,256.708 C118.037332,255.569328 117.916,254.346673 117.916,253.04 L117.916,240.496 L113.212,240.496 Z M151.068,234.336 C152.822675,234.336 154.325327,234.643997 155.576,235.26 C156.826673,235.876003 157.853329,236.687995 158.656,237.696 C159.458671,238.704005 160.046665,239.861327 160.42,241.168 C160.793335,242.474673 160.98,243.81866 160.98,245.2 L160.98,262 L154.26,262 L154.26,247.216 C154.26,246.431996 154.204001,245.620004 154.092,244.78 C153.979999,243.939996 153.746668,243.17467 153.392,242.484 C153.037332,241.79333 152.533337,241.224002 151.88,240.776 C151.226663,240.327998 150.358672,240.104 149.276,240.104 C148.193328,240.104 147.260004,240.309331 146.476,240.72 C145.691996,241.130669 145.038669,241.68133 144.516,242.372 C143.993331,243.06267 143.601335,243.837329 143.34,244.696 C143.078665,245.554671 142.948,246.431996 142.948,247.328 L142.948,262 L136.228,262 L136.228,219.664 L142.948,219.664 L142.948,238.872 L143.06,238.872 C143.321335,238.311997 143.703997,237.761336 144.208,237.22 C144.712003,236.678664 145.299997,236.193335 145.972,235.764 C146.644003,235.334665 147.409329,234.989335 148.268,234.728 C149.126671,234.466665 150.059995,234.336 151.068,234.336 C151.068,234.336 150.059995,234.336 151.068,234.336 Z M167.252,248.448 C167.252,246.319989 167.634663,244.388009 168.4,242.652 C169.165337,240.915991 170.201327,239.432006 171.508,238.2 C172.814673,236.967994 174.363991,236.016003 176.156,235.344 C177.948009,234.671997 179.85199,234.336 181.868,234.336 C183.88401,234.336 185.787991,234.671997 187.58,235.344 C189.372009,236.016003 190.921327,236.967994 192.228,238.2 C193.534673,239.432006 194.570663,240.915991 195.336,242.652 C196.101337,244.388009 196.484,246.319989 196.484,248.448 C196.484,250.576011 196.101337,252.517325 195.336,254.272 C194.570663,256.026675 193.534673,257.529327 192.228,258.78 C190.921327,260.030673 189.372009,261.010663 187.58,261.72 C185.787991,262.429337 183.88401,262.784 181.868,262.784 C179.85199,262.784 177.948009,262.429337 176.156,261.72 C174.363991,261.010663 172.814673,260.030673 171.508,258.78 C170.201327,257.529327 169.165337,256.026675 168.4,254.272 C167.634663,252.517325 167.252,250.576011 167.252,248.448 C167.252,248.448 167.252,250.576011 167.252,248.448 Z M174.084,248.448 C174.084,249.493339 174.242665,250.538661 174.56,251.584 C174.877335,252.629339 175.35333,253.562663 175.988,254.384 C176.62267,255.205337 177.425328,255.877331 178.396,256.4 C179.366672,256.922669 180.523993,257.184 181.868,257.184 C183.212007,257.184 184.369328,256.922669 185.34,256.4 C186.310672,255.877331 187.11333,255.205337 187.748,254.384 C188.38267,253.562663 188.858665,252.629339 189.176,251.584 C189.493335,250.538661 189.652,249.493339 189.652,248.448 C189.652,247.402661 189.493335,246.366672 189.176,245.34 C188.858665,244.313328 188.38267,243.389337 187.748,242.568 C187.11333,241.746663 186.310672,241.084003 185.34,240.58 C184.369328,240.075997 183.212007,239.824 181.868,239.824 C180.523993,239.824 179.366672,240.075997 178.396,240.58 C177.425328,241.084003 176.62267,241.746663 175.988,242.568 C175.35333,243.389337 174.877335,244.313328 174.56,245.34 C174.242665,246.366672 174.084,247.402661 174.084,248.448 C174.084,248.448 174.084,247.402661 174.084,248.448 Z M217.708,242.288 C217.110664,241.503996 216.289339,240.82267 215.244,240.244 C214.198661,239.66533 213.060006,239.376 211.828,239.376 C210.745328,239.376 209.756004,239.599998 208.86,240.048 C207.963996,240.496002 207.516,241.242661 207.516,242.288 C207.516,243.333339 208.010662,244.070665 209,244.5 C209.989338,244.929335 211.43599,245.367998 213.34,245.816 C214.348005,246.040001 215.365328,246.338665 216.392,246.712 C217.418672,247.085335 218.351996,247.579997 219.192,248.196 C220.032004,248.812003 220.713331,249.577329 221.236,250.492 C221.758669,251.406671 222.02,252.517327 222.02,253.824 C222.02,255.466675 221.712003,256.857328 221.096,257.996 C220.479997,259.134672 219.658672,260.058663 218.632,260.768 C217.605328,261.477337 216.410673,261.990665 215.048,262.308 C213.685327,262.625335 212.276007,262.784 210.82,262.784 C208.729323,262.784 206.694677,262.401337 204.716,261.636 C202.737323,260.870663 201.094673,259.778674 199.788,258.36 L204.212,254.216 C204.95867,255.186672 205.929327,255.98933 207.124,256.624 C208.318673,257.25867 209.643993,257.576 211.1,257.576 C211.585336,257.576 212.079997,257.520001 212.584,257.408 C213.088003,257.295999 213.554665,257.118668 213.984,256.876 C214.413335,256.633332 214.758665,256.306669 215.02,255.896 C215.281335,255.485331 215.412,254.981336 215.412,254.384 C215.412,253.263994 214.898672,252.461336 213.872,251.976 C212.845328,251.490664 211.305344,251.005336 209.252,250.52 C208.243995,250.295999 207.264005,250.006668 206.312,249.652 C205.359995,249.297332 204.51067,248.83067 203.764,248.252 C203.01733,247.67333 202.420002,246.954671 201.972,246.096 C201.523998,245.237329 201.3,244.17334 201.3,242.904 C201.3,241.410659 201.607997,240.122672 202.224,239.04 C202.840003,237.957328 203.651995,237.07067 204.66,236.38 C205.668005,235.68933 206.80666,235.176002 208.076,234.84 C209.34534,234.503998 210.651993,234.336 211.996,234.336 C213.937343,234.336 215.831991,234.671997 217.68,235.344 C219.528009,236.016003 220.993328,237.04266 222.076,238.424 C222.076,238.424 220.993328,237.04266 222.076,238.424 L217.708,242.288 Z M246.772,245.872 C246.772,245.013329 246.650668,244.192004 246.408,243.408 C246.165332,242.623996 245.782669,241.933336 245.26,241.336 C244.737331,240.738664 244.074671,240.262668 243.272,239.908 C242.469329,239.553332 241.526672,239.376 240.444,239.376 C238.42799,239.376 236.720007,239.982661 235.32,241.196 C233.919993,242.409339 233.145334,243.96799 232.996,245.872 C232.996,245.872 233.145334,243.96799 232.996,245.872 L246.772,245.872 Z M253.492,248.896 L253.492,249.792 C253.492,250.090668 253.473334,250.389332 253.436,250.688 L232.996,250.688 C233.070667,251.658672 233.322665,252.545329 233.752,253.348 C234.181335,254.150671 234.750663,254.84133 235.46,255.42 C236.169337,255.99867 236.971996,256.455998 237.868,256.792 C238.764004,257.128002 239.697328,257.296 240.668,257.296 C242.348008,257.296 243.766661,256.988003 244.924,256.372 C246.081339,255.755997 247.03333,254.906672 247.78,253.824 L252.26,257.408 C249.60932,260.992018 245.764025,262.784 240.724,262.784 C238.633323,262.784 236.710675,262.457337 234.956,261.804 C233.201325,261.150663 231.680006,260.226673 230.392,259.032 C229.103994,257.837327 228.096004,256.372009 227.368,254.636 C226.639996,252.899991 226.276,250.930678 226.276,248.728 C226.276,246.562656 226.639996,244.593342 227.368,242.82 C228.096004,241.046658 229.09466,239.534673 230.364,238.284 C231.63334,237.033327 233.135991,236.06267 234.872,235.372 C236.608009,234.68133 238.48399,234.336 240.5,234.336 C242.366676,234.336 244.093325,234.643997 245.68,235.26 C247.266675,235.876003 248.638661,236.790661 249.796,238.004 C250.953339,239.217339 251.858663,240.729324 252.512,242.54 C253.165337,244.350676 253.492,246.469321 253.492,248.896 C253.492,248.896 253.492,246.469321 253.492,248.896 Z M253.492,248.896" id="Triangle-1-copy-3" sketch:type="MSShapeGroup"></path>
        </g>
    </g>
</svg>