<?xml version="1.0" encoding="UTF-8" standalone="no"?>
<svg width="375px" height="300px" viewBox="0 0 375 300" version="1.1" xmlns="http://www.w3.org/2000/svg" xmlns:xlink="http://www.w3.org/1999/xlink" xmlns:sketch="http://www.bohemiancoding.com/sketch/ns">
    <title>art-that</title>
    <description>Created with Sketch (http://www.bohemiancoding.com/sketch)</description>
    <defs></defs>
    <g id="Articles" stroke="none" stroke-width="1" fill="none" fill-rule="evenodd" sketch:type="MSPage">
        <g id="art-that" sketch:type="MSArtboardGroup" fill="#8FCFF5">
            <path d="M205.5,101 L324,300 L87,300 L205.5,101 Z M155.156,240.496 L155.156,235.12 L159.86,235.12 L159.86,227.336 L166.468,227.336 L166.468,235.12 L173.188,235.12 L173.188,240.496 L166.468,240.496 L166.468,252.984 C166.468,254.178673 166.682665,255.167996 167.112,255.952 C167.541335,256.736004 168.502659,257.128 169.996,257.128 C170.444002,257.128 170.929331,257.081334 171.452,256.988 C171.974669,256.894666 172.441331,256.754668 172.852,256.568 L173.076,261.832 C172.478664,262.056001 171.769337,262.233333 170.948,262.364 C170.126663,262.494667 169.34267,262.56 168.596,262.56 C166.803991,262.56 165.348006,262.308003 164.228,261.804 C163.107994,261.299997 162.221337,260.609338 161.568,259.732 C160.914663,258.854662 160.466668,257.846672 160.224,256.708 C159.981332,255.569328 159.86,254.346673 159.86,253.04 L159.86,240.496 L155.156,240.496 Z M193.012,234.336 C194.766675,234.336 196.269327,234.643997 197.52,235.26 C198.770673,235.876003 199.797329,236.687995 200.6,237.696 C201.402671,238.704005 201.990665,239.861327 202.364,241.168 C202.737335,242.474673 202.924,243.81866 202.924,245.2 L202.924,262 L196.204,262 L196.204,247.216 C196.204,246.431996 196.148001,245.620004 196.036,244.78 C195.923999,243.939996 195.690668,243.17467 195.336,242.484 C194.981332,241.79333 194.477337,241.224002 193.824,240.776 C193.170663,240.327998 192.302672,240.104 191.22,240.104 C190.137328,240.104 189.204004,240.309331 188.42,240.72 C187.635996,241.130669 186.982669,241.68133 186.46,242.372 C185.937331,243.06267 185.545335,243.837329 185.284,244.696 C185.022665,245.554671 184.892,246.431996 184.892,247.328 L184.892,262 L178.172,262 L178.172,219.664 L184.892,219.664 L184.892,238.872 L185.004,238.872 C185.265335,238.311997 185.647997,237.761336 186.152,237.22 C186.656003,236.678664 187.243997,236.193335 187.916,235.764 C188.588003,235.334665 189.353329,234.989335 190.212,234.728 C191.070671,234.466665 192.003995,234.336 193.012,234.336 C193.012,234.336 192.003995,234.336 193.012,234.336 Z M227.452,258.584 L227.284,258.584 C226.611997,259.778673 225.529341,260.758663 224.036,261.524 C222.542659,262.289337 220.84401,262.672 218.94,262.672 C217.857328,262.672 216.728006,262.532001 215.552,262.252 C214.375994,261.971999 213.293338,261.505337 212.304,260.852 C211.314662,260.198663 210.493337,259.340005 209.84,258.276 C209.186663,257.211995 208.86,255.896008 208.86,254.328 C208.86,252.31199 209.429328,250.706673 210.568,249.512 C211.706672,248.317327 213.171991,247.40267 214.964,246.768 C216.756009,246.13333 218.743989,245.713334 220.928,245.508 C223.112011,245.302666 225.249323,245.2 227.34,245.2 L227.34,244.528 C227.34,242.847992 226.733339,241.606671 225.52,240.804 C224.306661,240.001329 222.860008,239.6 221.18,239.6 C219.761326,239.6 218.398673,239.898664 217.092,240.496 C215.785327,241.093336 214.702671,241.821329 213.844,242.68 L210.372,238.592 C211.902674,237.173326 213.666657,236.109337 215.664,235.4 C217.661343,234.690663 219.686656,234.336 221.74,234.336 C224.129345,234.336 226.098659,234.671997 227.648,235.344 C229.197341,236.016003 230.419996,236.893328 231.316,237.976 C232.212004,239.058672 232.837332,240.271993 233.192,241.616 C233.546668,242.960007 233.724,244.303993 233.724,245.648 L233.724,262 L227.452,262 L227.452,258.584 Z M227.34,249.736 L225.828,249.736 C224.745328,249.736 223.606673,249.782666 222.412,249.876 C221.217327,249.969334 220.116005,250.174665 219.108,250.492 C218.099995,250.809335 217.260003,251.25733 216.588,251.836 C215.915997,252.41467 215.58,253.207995 215.58,254.216 C215.58,254.85067 215.719999,255.382665 216,255.812 C216.280001,256.241335 216.643998,256.586665 217.092,256.848 C217.540002,257.109335 218.043997,257.295999 218.604,257.408 C219.164003,257.520001 219.723997,257.576 220.284,257.576 C222.598678,257.576 224.353327,256.960006 225.548,255.728 C226.742673,254.495994 227.34,252.816011 227.34,250.688 C227.34,250.688 227.34,252.816011 227.34,250.688 L227.34,249.736 Z M237.14,240.496 L237.14,235.12 L241.844,235.12 L241.844,227.336 L248.452,227.336 L248.452,235.12 L255.172,235.12 L255.172,240.496 L248.452,240.496 L248.452,252.984 C248.452,254.178673 248.666665,255.167996 249.096,255.952 C249.525335,256.736004 250.486659,257.128 251.98,257.128 C252.428002,257.128 252.913331,257.081334 253.436,256.988 C253.958669,256.894666 254.425331,256.754668 254.836,256.568 L255.06,261.832 C254.462664,262.056001 253.753337,262.233333 252.932,262.364 C252.110663,262.494667 251.32667,262.56 250.58,262.56 C248.787991,262.56 247.332006,262.308003 246.212,261.804 C245.091994,261.299997 244.205337,260.609338 243.552,259.732 C242.898663,258.854662 242.450668,257.846672 242.208,256.708 C241.965332,255.569328 241.844,254.346673 241.844,253.04 L241.844,240.496 L237.14,240.496 Z M237.14,240.496" id="Triangle-1-copy-3" sketch:type="MSShapeGroup"></path>
        </g>
    </g>
</svg>