<?xml version="1.0" encoding="UTF-8" standalone="no"?>
<svg width="375px" height="300px" viewBox="0 0 375 300" version="1.1" xmlns="http://www.w3.org/2000/svg" xmlns:xlink="http://www.w3.org/1999/xlink" xmlns:sketch="http://www.bohemiancoding.com/sketch/ns">
    <title>art-these</title>
    <description>Created with Sketch (http://www.bohemiancoding.com/sketch)</description>
    <defs></defs>
    <g id="Articles" stroke="none" stroke-width="1" fill="none" fill-rule="evenodd" sketch:type="MSPage">
        <g id="art-these" sketch:type="MSArtboardGroup" fill="#8FCFF5">
            <path d="M187.5,101 L306,300 L69,300 L187.5,101 Z M117.22,240.496 L117.22,235.12 L121.924,235.12 L121.924,227.336 L128.532,227.336 L128.532,235.12 L135.252,235.12 L135.252,240.496 L128.532,240.496 L128.532,252.984 C128.532,254.178673 128.746665,255.167996 129.176,255.952 C129.605335,256.736004 130.566659,257.128 132.06,257.128 C132.508002,257.128 132.993331,257.081334 133.516,256.988 C134.038669,256.894666 134.505331,256.754668 134.916,256.568 L135.14,261.832 C134.542664,262.056001 133.833337,262.233333 133.012,262.364 C132.190663,262.494667 131.40667,262.56 130.66,262.56 C128.867991,262.56 127.412006,262.308003 126.292,261.804 C125.171994,261.299997 124.285337,260.609338 123.632,259.732 C122.978663,258.854662 122.530668,257.846672 122.288,256.708 C122.045332,255.569328 121.924,254.346673 121.924,253.04 L121.924,240.496 L117.22,240.496 Z M155.076,234.336 C156.830675,234.336 158.333327,234.643997 159.584,235.26 C160.834673,235.876003 161.861329,236.687995 162.664,237.696 C163.466671,238.704005 164.054665,239.861327 164.428,241.168 C164.801335,242.474673 164.988,243.81866 164.988,245.2 L164.988,262 L158.268,262 L158.268,247.216 C158.268,246.431996 158.212001,245.620004 158.1,244.78 C157.987999,243.939996 157.754668,243.17467 157.4,242.484 C157.045332,241.79333 156.541337,241.224002 155.888,240.776 C155.234663,240.327998 154.366672,240.104 153.284,240.104 C152.201328,240.104 151.268004,240.309331 150.484,240.72 C149.699996,241.130669 149.046669,241.68133 148.524,242.372 C148.001331,243.06267 147.609335,243.837329 147.348,244.696 C147.086665,245.554671 146.956,246.431996 146.956,247.328 L146.956,262 L140.236,262 L140.236,219.664 L146.956,219.664 L146.956,238.872 L147.068,238.872 C147.329335,238.311997 147.711997,237.761336 148.216,237.22 C148.720003,236.678664 149.307997,236.193335 149.98,235.764 C150.652003,235.334665 151.417329,234.989335 152.276,234.728 C153.134671,234.466665 154.067995,234.336 155.076,234.336 C155.076,234.336 154.067995,234.336 155.076,234.336 Z M191.756,245.872 C191.756,245.013329 191.634668,244.192004 191.392,243.408 C191.149332,242.623996 190.766669,241.933336 190.244,241.336 C189.721331,240.738664 189.058671,240.262668 188.256,239.908 C187.453329,239.553332 186.510672,239.376 185.428,239.376 C183.41199,239.376 181.704007,239.982661 180.304,241.196 C178.903993,242.409339 178.129334,243.96799 177.98,245.872 C177.98,245.872 178.129334,243.96799 177.98,245.872 L191.756,245.872 Z M198.476,248.896 L198.476,249.792 C198.476,250.090668 198.457334,250.389332 198.42,250.688 L177.98,250.688 C178.054667,251.658672 178.306665,252.545329 178.736,253.348 C179.165335,254.150671 179.734663,254.84133 180.444,255.42 C181.153337,255.99867 181.955996,256.455998 182.852,256.792 C183.748004,257.128002 184.681328,257.296 185.652,257.296 C187.332008,257.296 188.750661,256.988003 189.908,256.372 C191.065339,255.755997 192.01733,254.906672 192.764,253.824 L197.244,257.408 C194.59332,260.992018 190.748025,262.784 185.708,262.784 C183.617323,262.784 181.694675,262.457337 179.94,261.804 C178.185325,261.150663 176.664006,260.226673 175.376,259.032 C174.087994,257.837327 173.080004,256.372009 172.352,254.636 C171.623996,252.899991 171.26,250.930678 171.26,248.728 C171.26,246.562656 171.623996,244.593342 172.352,242.82 C173.080004,241.046658 174.07866,239.534673 175.348,238.284 C176.61734,237.033327 178.119991,236.06267 179.856,235.372 C181.592009,234.68133 183.46799,234.336 185.484,234.336 C187.350676,234.336 189.077325,234.643997 190.664,235.26 C192.250675,235.876003 193.622661,236.790661 194.78,238.004 C195.937339,239.217339 196.842663,240.729324 197.496,242.54 C198.149337,244.350676 198.476,246.469321 198.476,248.896 C198.476,248.896 198.476,246.469321 198.476,248.896 Z M219.7,242.288 C219.102664,241.503996 218.281339,240.82267 217.236,240.244 C216.190661,239.66533 215.052006,239.376 213.82,239.376 C212.737328,239.376 211.748004,239.599998 210.852,240.048 C209.955996,240.496002 209.508,241.242661 209.508,242.288 C209.508,243.333339 210.002662,244.070665 210.992,244.5 C211.981338,244.929335 213.42799,245.367998 215.332,245.816 C216.340005,246.040001 217.357328,246.338665 218.384,246.712 C219.410672,247.085335 220.343996,247.579997 221.184,248.196 C222.024004,248.812003 222.705331,249.577329 223.228,250.492 C223.750669,251.406671 224.012,252.517327 224.012,253.824 C224.012,255.466675 223.704003,256.857328 223.088,257.996 C222.471997,259.134672 221.650672,260.058663 220.624,260.768 C219.597328,261.477337 218.402673,261.990665 217.04,262.308 C215.677327,262.625335 214.268007,262.784 212.812,262.784 C210.721323,262.784 208.686677,262.401337 206.708,261.636 C204.729323,260.870663 203.086673,259.778674 201.78,258.36 L206.204,254.216 C206.95067,255.186672 207.921327,255.98933 209.116,256.624 C210.310673,257.25867 211.635993,257.576 213.092,257.576 C213.577336,257.576 214.071997,257.520001 214.576,257.408 C215.080003,257.295999 215.546665,257.118668 215.976,256.876 C216.405335,256.633332 216.750665,256.306669 217.012,255.896 C217.273335,255.485331 217.404,254.981336 217.404,254.384 C217.404,253.263994 216.890672,252.461336 215.864,251.976 C214.837328,251.490664 213.297344,251.005336 211.244,250.52 C210.235995,250.295999 209.256005,250.006668 208.304,249.652 C207.351995,249.297332 206.50267,248.83067 205.756,248.252 C205.00933,247.67333 204.412002,246.954671 203.964,246.096 C203.515998,245.237329 203.292,244.17334 203.292,242.904 C203.292,241.410659 203.599997,240.122672 204.216,239.04 C204.832003,237.957328 205.643995,237.07067 206.652,236.38 C207.660005,235.68933 208.79866,235.176002 210.068,234.84 C211.33734,234.503998 212.643993,234.336 213.988,234.336 C215.929343,234.336 217.823991,234.671997 219.672,235.344 C221.520009,236.016003 222.985328,237.04266 224.068,238.424 C224.068,238.424 222.985328,237.04266 224.068,238.424 L219.7,242.288 Z M248.764,245.872 C248.764,245.013329 248.642668,244.192004 248.4,243.408 C248.157332,242.623996 247.774669,241.933336 247.252,241.336 C246.729331,240.738664 246.066671,240.262668 245.264,239.908 C244.461329,239.553332 243.518672,239.376 242.436,239.376 C240.41999,239.376 238.712007,239.982661 237.312,241.196 C235.911993,242.409339 235.137334,243.96799 234.988,245.872 C234.988,245.872 235.137334,243.96799 234.988,245.872 L248.764,245.872 Z M255.484,248.896 L255.484,249.792 C255.484,250.090668 255.465334,250.389332 255.428,250.688 L234.988,250.688 C235.062667,251.658672 235.314665,252.545329 235.744,253.348 C236.173335,254.150671 236.742663,254.84133 237.452,255.42 C238.161337,255.99867 238.963996,256.455998 239.86,256.792 C240.756004,257.128002 241.689328,257.296 242.66,257.296 C244.340008,257.296 245.758661,256.988003 246.916,256.372 C248.073339,255.755997 249.02533,254.906672 249.772,253.824 L254.252,257.408 C251.60132,260.992018 247.756025,262.784 242.716,262.784 C240.625323,262.784 238.702675,262.457337 236.948,261.804 C235.193325,261.150663 233.672006,260.226673 232.384,259.032 C231.095994,257.837327 230.088004,256.372009 229.36,254.636 C228.631996,252.899991 228.268,250.930678 228.268,248.728 C228.268,246.562656 228.631996,244.593342 229.36,242.82 C230.088004,241.046658 231.08666,239.534673 232.356,238.284 C233.62534,237.033327 235.127991,236.06267 236.864,235.372 C238.600009,234.68133 240.47599,234.336 242.492,234.336 C244.358676,234.336 246.085325,234.643997 247.672,235.26 C249.258675,235.876003 250.630661,236.790661 251.788,238.004 C252.945339,239.217339 253.850663,240.729324 254.504,242.54 C255.157337,244.350676 255.484,246.469321 255.484,248.896 C255.484,248.896 255.484,246.469321 255.484,248.896 Z" id="Triangle-1-copy-3" sketch:type="MSShapeGroup"></path>
        </g>
    </g>
</svg>