<?xml version="1.0" encoding="UTF-8" standalone="no"?>
<svg width="375px" height="300px" viewBox="0 0 375 300" version="1.1" xmlns="http://www.w3.org/2000/svg" xmlns:xlink="http://www.w3.org/1999/xlink" xmlns:sketch="http://www.bohemiancoding.com/sketch/ns">
    <title>art-a</title>
    <description>Created with Sketch (http://www.bohemiancoding.com/sketch)</description>
    <defs></defs>
    <g id="Articles" stroke="none" stroke-width="1" fill="none" fill-rule="evenodd" sketch:type="MSPage">
        <g id="art-a" sketch:type="MSArtboardGroup" fill="#8FCFF5">
            <path d="M187.5,101 L306,300 L69,300 L187.5,101 Z M200.455,257.571 L200.188,257.571 C199.119995,259.469676 197.399345,261.027161 195.026,262.2435 C192.652655,263.459839 189.953015,264.068 186.927,264.068 C185.206325,264.068 183.411509,263.845502 181.5425,263.4005 C179.673491,262.955498 177.952841,262.213839 176.3805,261.1755 C174.808159,260.137161 173.502839,258.772508 172.4645,257.0815 C171.426161,255.390492 170.907,253.299012 170.907,250.807 C170.907,247.602984 171.811824,245.051676 173.6215,243.153 C175.431176,241.254324 177.759986,239.800672 180.608,238.792 C183.456014,237.783328 186.615483,237.115835 190.0865,236.7895 C193.557517,236.463165 196.954317,236.3 200.277,236.3 L200.277,235.232 C200.277,232.561987 199.312843,230.589173 197.3845,229.3135 C195.456157,228.037827 193.157013,227.4 190.487,227.4 C188.232322,227.4 186.066677,227.874662 183.99,228.824 C181.913323,229.773338 180.192673,230.930327 178.828,232.295 L173.31,225.798 C175.742679,223.543322 178.546151,221.852339 181.7205,220.725 C184.894849,219.597661 188.11365,219.034 191.377,219.034 C195.174352,219.034 198.304154,219.567995 200.7665,220.636 C203.228846,221.704005 205.171993,223.098325 206.596,224.819 C208.020007,226.539675 209.013831,228.467989 209.5775,230.604 C210.141169,232.740011 210.423,234.875989 210.423,237.012 L210.423,263 L200.455,263 L200.455,257.571 Z M197.874,243.509 C196.153325,243.509 194.343676,243.583166 192.445,243.7315 C190.546324,243.879834 188.796008,244.206164 187.194,244.7105 C185.591992,245.214836 184.257005,245.926829 183.189,246.8465 C182.120995,247.766171 181.587,249.026992 181.587,250.629 C181.587,251.637672 181.809498,252.483163 182.2545,253.1655 C182.699502,253.847837 183.277996,254.396665 183.99,254.812 C184.702004,255.227335 185.502996,255.523999 186.393,255.702 C187.283004,255.880001 188.172996,255.969 189.063,255.969 C192.741685,255.969 195.530324,254.99001 197.429,253.032 C199.327676,251.07399 200.277,248.404017 200.277,245.022 L200.277,243.509 L197.874,243.509 Z" id="Triangle-1-copy-3" sketch:type="MSShapeGroup"></path>
        </g>
    </g>
</svg>