<?xml version="1.0" encoding="UTF-8" standalone="no"?>
<svg width="375px" height="300px" viewBox="0 0 375 300" version="1.1" xmlns="http://www.w3.org/2000/svg" xmlns:xlink="http://www.w3.org/1999/xlink" xmlns:sketch="http://www.bohemiancoding.com/sketch/ns">
    <title>art-the-caps</title>
    <description>Created with Sketch (http://www.bohemiancoding.com/sketch)</description>
    <defs></defs>
    <g id="Articles" stroke="none" stroke-width="1" fill="none" fill-rule="evenodd" sketch:type="MSPage">
        <g id="art-the-caps" sketch:type="MSArtboardGroup" fill="#8FCFF5">
            <g id="Triangle-1-copy-3-+-the" sketch:type="MSLayerGroup" transform="translate(69.000000, 101.000000)">
                <path d="M118.5,0 L237,199 L0,199 L118.5,0 Z M78.69,121.14 L63.5,121.14 L63.5,113.44 L102.7,113.44 L102.7,121.14 L87.51,121.14 L87.51,163 L78.69,163 L78.69,121.14 Z M125.45,128.42 C127.643344,128.42 129.521659,128.804996 131.085,129.575 C132.648341,130.345004 133.931662,131.359994 134.935,132.62 C135.938338,133.880006 136.673331,135.326659 137.14,136.96 C137.606669,138.593342 137.84,140.273325 137.84,142 L137.84,163 L129.44,163 L129.44,144.52 C129.44,143.539995 129.370001,142.525005 129.23,141.475 C129.089999,140.424995 128.798336,139.468338 128.355,138.605 C127.911664,137.741662 127.281671,137.030003 126.465,136.47 C125.648329,135.909997 124.56334,135.63 123.21,135.63 C121.85666,135.63 120.690005,135.886664 119.71,136.4 C118.729995,136.913336 117.913337,137.601662 117.26,138.465 C116.606663,139.328338 116.116668,140.296661 115.79,141.37 C115.463332,142.443339 115.3,143.539994 115.3,144.66 L115.3,163 L106.9,163 L106.9,110.08 L115.3,110.08 L115.3,134.09 L115.44,134.09 C115.766668,133.389996 116.244997,132.70167 116.875,132.025 C117.505003,131.34833 118.239996,130.741669 119.08,130.205 C119.920004,129.668331 120.876661,129.236668 121.95,128.91 C123.023339,128.583332 124.189994,128.42 125.45,128.42 Z M171.3,142.84 C171.3,141.766661 171.148335,140.740005 170.845,139.76 C170.541665,138.779995 170.063337,137.91667 169.41,137.17 C168.756663,136.42333 167.928338,135.828336 166.925,135.385 C165.921662,134.941664 164.74334,134.72 163.39,134.72 C160.869987,134.72 158.735009,135.478326 156.985,136.995 C155.234991,138.511674 154.266668,140.459988 154.08,142.84 L171.3,142.84 Z M179.7,146.62 L179.7,147.74 C179.7,148.113335 179.676667,148.486665 179.63,148.86 L154.08,148.86 C154.173334,150.073339 154.488331,151.181662 155.025,152.185 C155.561669,153.188338 156.273329,154.051663 157.16,154.775 C158.046671,155.498337 159.049994,156.069998 160.17,156.49 C161.290006,156.910002 162.456661,157.12 163.67,157.12 C165.77001,157.12 167.543326,156.735004 168.99,155.965 C170.436674,155.194996 171.626662,154.13334 172.56,152.78 L178.16,157.26 C174.84665,161.740022 170.040031,163.98 163.74,163.98 C161.126654,163.98 158.723344,163.571671 156.53,162.755 C154.336656,161.938329 152.435008,160.783341 150.825,159.29 C149.214992,157.796659 147.955005,155.965011 147.045,153.795 C146.134995,151.624989 145.68,149.163347 145.68,146.41 C145.68,143.70332 146.134995,141.241678 147.045,139.025 C147.955005,136.808322 149.203325,134.918341 150.79,133.355 C152.376675,131.791659 154.254989,130.578338 156.425,129.715 C158.595011,128.851662 160.939987,128.42 163.46,128.42 C165.793345,128.42 167.951657,128.804996 169.935,129.575 C171.918343,130.345004 173.633326,131.488326 175.08,133.005 C176.526674,134.521674 177.658329,136.411655 178.475,138.675 C179.291671,140.938345 179.7,143.586651 179.7,146.62 Z" id="Triangle-1-copy-3" sketch:type="MSShapeGroup"></path>
            </g>
        </g>
    </g>
</svg>