<?xml version="1.0" encoding="UTF-8" standalone="no"?>
<svg width="375px" height="300px" viewBox="0 0 375 300" version="1.1" xmlns="http://www.w3.org/2000/svg" xmlns:xlink="http://www.w3.org/1999/xlink" xmlns:sketch="http://www.bohemiancoding.com/sketch/ns">
    <title>art-those</title>
    <description>Created with Sketch (http://www.bohemiancoding.com/sketch)</description>
    <defs></defs>
    <g id="Articles" stroke="none" stroke-width="1" fill="none" fill-rule="evenodd" sketch:type="MSPage">
        <g id="art-those" sketch:type="MSArtboardGroup" fill="#8FCFF5">
            <path d="M187.5,101 L306,300 L69,300 L187.5,101 Z M116.212,240.496 L116.212,235.12 L120.916,235.12 L120.916,227.336 L127.524,227.336 L127.524,235.12 L134.244,235.12 L134.244,240.496 L127.524,240.496 L127.524,252.984 C127.524,254.178673 127.738665,255.167996 128.168,255.952 C128.597335,256.736004 129.558659,257.128 131.052,257.128 C131.500002,257.128 131.985331,257.081334 132.508,256.988 C133.030669,256.894666 133.497331,256.754668 133.908,256.568 L134.132,261.832 C133.534664,262.056001 132.825337,262.233333 132.004,262.364 C131.182663,262.494667 130.39867,262.56 129.652,262.56 C127.859991,262.56 126.404006,262.308003 125.284,261.804 C124.163994,261.299997 123.277337,260.609338 122.624,259.732 C121.970663,258.854662 121.522668,257.846672 121.28,256.708 C121.037332,255.569328 120.916,254.346673 120.916,253.04 L120.916,240.496 L116.212,240.496 Z M154.068,234.336 C155.822675,234.336 157.325327,234.643997 158.576,235.26 C159.826673,235.876003 160.853329,236.687995 161.656,237.696 C162.458671,238.704005 163.046665,239.861327 163.42,241.168 C163.793335,242.474673 163.98,243.81866 163.98,245.2 L163.98,262 L157.26,262 L157.26,247.216 C157.26,246.431996 157.204001,245.620004 157.092,244.78 C156.979999,243.939996 156.746668,243.17467 156.392,242.484 C156.037332,241.79333 155.533337,241.224002 154.88,240.776 C154.226663,240.327998 153.358672,240.104 152.276,240.104 C151.193328,240.104 150.260004,240.309331 149.476,240.72 C148.691996,241.130669 148.038669,241.68133 147.516,242.372 C146.993331,243.06267 146.601335,243.837329 146.34,244.696 C146.078665,245.554671 145.948,246.431996 145.948,247.328 L145.948,262 L139.228,262 L139.228,219.664 L145.948,219.664 L145.948,238.872 L146.06,238.872 C146.321335,238.311997 146.703997,237.761336 147.208,237.22 C147.712003,236.678664 148.299997,236.193335 148.972,235.764 C149.644003,235.334665 150.409329,234.989335 151.268,234.728 C152.126671,234.466665 153.059995,234.336 154.068,234.336 C154.068,234.336 153.059995,234.336 154.068,234.336 Z M170.252,248.448 C170.252,246.319989 170.634663,244.388009 171.4,242.652 C172.165337,240.915991 173.201327,239.432006 174.508,238.2 C175.814673,236.967994 177.363991,236.016003 179.156,235.344 C180.948009,234.671997 182.85199,234.336 184.868,234.336 C186.88401,234.336 188.787991,234.671997 190.58,235.344 C192.372009,236.016003 193.921327,236.967994 195.228,238.2 C196.534673,239.432006 197.570663,240.915991 198.336,242.652 C199.101337,244.388009 199.484,246.319989 199.484,248.448 C199.484,250.576011 199.101337,252.517325 198.336,254.272 C197.570663,256.026675 196.534673,257.529327 195.228,258.78 C193.921327,260.030673 192.372009,261.010663 190.58,261.72 C188.787991,262.429337 186.88401,262.784 184.868,262.784 C182.85199,262.784 180.948009,262.429337 179.156,261.72 C177.363991,261.010663 175.814673,260.030673 174.508,258.78 C173.201327,257.529327 172.165337,256.026675 171.4,254.272 C170.634663,252.517325 170.252,250.576011 170.252,248.448 C170.252,248.448 170.252,250.576011 170.252,248.448 Z M177.084,248.448 C177.084,249.493339 177.242665,250.538661 177.56,251.584 C177.877335,252.629339 178.35333,253.562663 178.988,254.384 C179.62267,255.205337 180.425328,255.877331 181.396,256.4 C182.366672,256.922669 183.523993,257.184 184.868,257.184 C186.212007,257.184 187.369328,256.922669 188.34,256.4 C189.310672,255.877331 190.11333,255.205337 190.748,254.384 C191.38267,253.562663 191.858665,252.629339 192.176,251.584 C192.493335,250.538661 192.652,249.493339 192.652,248.448 C192.652,247.402661 192.493335,246.366672 192.176,245.34 C191.858665,244.313328 191.38267,243.389337 190.748,242.568 C190.11333,241.746663 189.310672,241.084003 188.34,240.58 C187.369328,240.075997 186.212007,239.824 184.868,239.824 C183.523993,239.824 182.366672,240.075997 181.396,240.58 C180.425328,241.084003 179.62267,241.746663 178.988,242.568 C178.35333,243.389337 177.877335,244.313328 177.56,245.34 C177.242665,246.366672 177.084,247.402661 177.084,248.448 C177.084,248.448 177.084,247.402661 177.084,248.448 Z M220.708,242.288 C220.110664,241.503996 219.289339,240.82267 218.244,240.244 C217.198661,239.66533 216.060006,239.376 214.828,239.376 C213.745328,239.376 212.756004,239.599998 211.86,240.048 C210.963996,240.496002 210.516,241.242661 210.516,242.288 C210.516,243.333339 211.010662,244.070665 212,244.5 C212.989338,244.929335 214.43599,245.367998 216.34,245.816 C217.348005,246.040001 218.365328,246.338665 219.392,246.712 C220.418672,247.085335 221.351996,247.579997 222.192,248.196 C223.032004,248.812003 223.713331,249.577329 224.236,250.492 C224.758669,251.406671 225.02,252.517327 225.02,253.824 C225.02,255.466675 224.712003,256.857328 224.096,257.996 C223.479997,259.134672 222.658672,260.058663 221.632,260.768 C220.605328,261.477337 219.410673,261.990665 218.048,262.308 C216.685327,262.625335 215.276007,262.784 213.82,262.784 C211.729323,262.784 209.694677,262.401337 207.716,261.636 C205.737323,260.870663 204.094673,259.778674 202.788,258.36 L207.212,254.216 C207.95867,255.186672 208.929327,255.98933 210.124,256.624 C211.318673,257.25867 212.643993,257.576 214.1,257.576 C214.585336,257.576 215.079997,257.520001 215.584,257.408 C216.088003,257.295999 216.554665,257.118668 216.984,256.876 C217.413335,256.633332 217.758665,256.306669 218.02,255.896 C218.281335,255.485331 218.412,254.981336 218.412,254.384 C218.412,253.263994 217.898672,252.461336 216.872,251.976 C215.845328,251.490664 214.305344,251.005336 212.252,250.52 C211.243995,250.295999 210.264005,250.006668 209.312,249.652 C208.359995,249.297332 207.51067,248.83067 206.764,248.252 C206.01733,247.67333 205.420002,246.954671 204.972,246.096 C204.523998,245.237329 204.3,244.17334 204.3,242.904 C204.3,241.410659 204.607997,240.122672 205.224,239.04 C205.840003,237.957328 206.651995,237.07067 207.66,236.38 C208.668005,235.68933 209.80666,235.176002 211.076,234.84 C212.34534,234.503998 213.651993,234.336 214.996,234.336 C216.937343,234.336 218.831991,234.671997 220.68,235.344 C222.528009,236.016003 223.993328,237.04266 225.076,238.424 C225.076,238.424 223.993328,237.04266 225.076,238.424 L220.708,242.288 Z M249.772,245.872 C249.772,245.013329 249.650668,244.192004 249.408,243.408 C249.165332,242.623996 248.782669,241.933336 248.26,241.336 C247.737331,240.738664 247.074671,240.262668 246.272,239.908 C245.469329,239.553332 244.526672,239.376 243.444,239.376 C241.42799,239.376 239.720007,239.982661 238.32,241.196 C236.919993,242.409339 236.145334,243.96799 235.996,245.872 C235.996,245.872 236.145334,243.96799 235.996,245.872 L249.772,245.872 Z M256.492,248.896 L256.492,249.792 C256.492,250.090668 256.473334,250.389332 256.436,250.688 L235.996,250.688 C236.070667,251.658672 236.322665,252.545329 236.752,253.348 C237.181335,254.150671 237.750663,254.84133 238.46,255.42 C239.169337,255.99867 239.971996,256.455998 240.868,256.792 C241.764004,257.128002 242.697328,257.296 243.668,257.296 C245.348008,257.296 246.766661,256.988003 247.924,256.372 C249.081339,255.755997 250.03333,254.906672 250.78,253.824 L255.26,257.408 C252.60932,260.992018 248.764025,262.784 243.724,262.784 C241.633323,262.784 239.710675,262.457337 237.956,261.804 C236.201325,261.150663 234.680006,260.226673 233.392,259.032 C232.103994,257.837327 231.096004,256.372009 230.368,254.636 C229.639996,252.899991 229.276,250.930678 229.276,248.728 C229.276,246.562656 229.639996,244.593342 230.368,242.82 C231.096004,241.046658 232.09466,239.534673 233.364,238.284 C234.63334,237.033327 236.135991,236.06267 237.872,235.372 C239.608009,234.68133 241.48399,234.336 243.5,234.336 C245.366676,234.336 247.093325,234.643997 248.68,235.26 C250.266675,235.876003 251.638661,236.790661 252.796,238.004 C253.953339,239.217339 254.858663,240.729324 255.512,242.54 C256.165337,244.350676 256.492,246.469321 256.492,248.896 C256.492,248.896 256.492,246.469321 256.492,248.896 Z" id="Triangle-1-copy-3" sketch:type="MSShapeGroup"></path>
        </g>
    </g>
</svg>