<?xml version="1.0" encoding="UTF-8" standalone="no"?>
<svg width="375px" height="300px" viewBox="0 0 375 300" version="1.1" xmlns="http://www.w3.org/2000/svg" xmlns:xlink="http://www.w3.org/1999/xlink" xmlns:sketch="http://www.bohemiancoding.com/sketch/ns">
    <title>art-this</title>
    <description>Created with Sketch (http://www.bohemiancoding.com/sketch)</description>
    <defs></defs>
    <g id="Articles" stroke="none" stroke-width="1" fill="none" fill-rule="evenodd" sketch:type="MSPage">
        <g id="art-this" sketch:type="MSArtboardGroup" fill="#8FCFF5">
            <path d="M191.5,101 L310,300 L73,300 L191.5,101 Z M145.86,240.496 L145.86,235.12 L150.564,235.12 L150.564,227.336 L157.172,227.336 L157.172,235.12 L163.892,235.12 L163.892,240.496 L157.172,240.496 L157.172,252.984 C157.172,254.178673 157.386665,255.167996 157.816,255.952 C158.245335,256.736004 159.206659,257.128 160.7,257.128 C161.148002,257.128 161.633331,257.081334 162.156,256.988 C162.678669,256.894666 163.145331,256.754668 163.556,256.568 L163.78,261.832 C163.182664,262.056001 162.473337,262.233333 161.652,262.364 C160.830663,262.494667 160.04667,262.56 159.3,262.56 C157.507991,262.56 156.052006,262.308003 154.932,261.804 C153.811994,261.299997 152.925337,260.609338 152.272,259.732 C151.618663,258.854662 151.170668,257.846672 150.928,256.708 C150.685332,255.569328 150.564,254.346673 150.564,253.04 L150.564,240.496 L145.86,240.496 Z M183.716,234.336 C185.470675,234.336 186.973327,234.643997 188.224,235.26 C189.474673,235.876003 190.501329,236.687995 191.304,237.696 C192.106671,238.704005 192.694665,239.861327 193.068,241.168 C193.441335,242.474673 193.628,243.81866 193.628,245.2 L193.628,262 L186.908,262 L186.908,247.216 C186.908,246.431996 186.852001,245.620004 186.74,244.78 C186.627999,243.939996 186.394668,243.17467 186.04,242.484 C185.685332,241.79333 185.181337,241.224002 184.528,240.776 C183.874663,240.327998 183.006672,240.104 181.924,240.104 C180.841328,240.104 179.908004,240.309331 179.124,240.72 C178.339996,241.130669 177.686669,241.68133 177.164,242.372 C176.641331,243.06267 176.249335,243.837329 175.988,244.696 C175.726665,245.554671 175.596,246.431996 175.596,247.328 L175.596,262 L168.876,262 L168.876,219.664 L175.596,219.664 L175.596,238.872 L175.708,238.872 C175.969335,238.311997 176.351997,237.761336 176.856,237.22 C177.360003,236.678664 177.947997,236.193335 178.62,235.764 C179.292003,235.334665 180.057329,234.989335 180.916,234.728 C181.774671,234.466665 182.707995,234.336 183.716,234.336 C183.716,234.336 182.707995,234.336 183.716,234.336 Z M201.58,235.12 L208.3,235.12 L208.3,262 L201.58,262 L201.58,235.12 Z M200.628,225.992 C200.628,224.909328 201.029329,223.966671 201.832,223.164 C202.634671,222.361329 203.651994,221.96 204.884,221.96 C206.116006,221.96 207.151996,222.342663 207.992,223.108 C208.832004,223.873337 209.252,224.834661 209.252,225.992 C209.252,227.149339 208.832004,228.110663 207.992,228.876 C207.151996,229.641337 206.116006,230.024 204.884,230.024 C203.651994,230.024 202.634671,229.622671 201.832,228.82 C201.029329,228.017329 200.628,227.074672 200.628,225.992 C200.628,225.992 200.628,227.074672 200.628,225.992 Z M231.204,242.288 C230.606664,241.503996 229.785339,240.82267 228.74,240.244 C227.694661,239.66533 226.556006,239.376 225.324,239.376 C224.241328,239.376 223.252004,239.599998 222.356,240.048 C221.459996,240.496002 221.012,241.242661 221.012,242.288 C221.012,243.333339 221.506662,244.070665 222.496,244.5 C223.485338,244.929335 224.93199,245.367998 226.836,245.816 C227.844005,246.040001 228.861328,246.338665 229.888,246.712 C230.914672,247.085335 231.847996,247.579997 232.688,248.196 C233.528004,248.812003 234.209331,249.577329 234.732,250.492 C235.254669,251.406671 235.516,252.517327 235.516,253.824 C235.516,255.466675 235.208003,256.857328 234.592,257.996 C233.975997,259.134672 233.154672,260.058663 232.128,260.768 C231.101328,261.477337 229.906673,261.990665 228.544,262.308 C227.181327,262.625335 225.772007,262.784 224.316,262.784 C222.225323,262.784 220.190677,262.401337 218.212,261.636 C216.233323,260.870663 214.590673,259.778674 213.284,258.36 L217.708,254.216 C218.45467,255.186672 219.425327,255.98933 220.62,256.624 C221.814673,257.25867 223.139993,257.576 224.596,257.576 C225.081336,257.576 225.575997,257.520001 226.08,257.408 C226.584003,257.295999 227.050665,257.118668 227.48,256.876 C227.909335,256.633332 228.254665,256.306669 228.516,255.896 C228.777335,255.485331 228.908,254.981336 228.908,254.384 C228.908,253.263994 228.394672,252.461336 227.368,251.976 C226.341328,251.490664 224.801344,251.005336 222.748,250.52 C221.739995,250.295999 220.760005,250.006668 219.808,249.652 C218.855995,249.297332 218.00667,248.83067 217.26,248.252 C216.51333,247.67333 215.916002,246.954671 215.468,246.096 C215.019998,245.237329 214.796,244.17334 214.796,242.904 C214.796,241.410659 215.103997,240.122672 215.72,239.04 C216.336003,237.957328 217.147995,237.07067 218.156,236.38 C219.164005,235.68933 220.30266,235.176002 221.572,234.84 C222.84134,234.503998 224.147993,234.336 225.492,234.336 C227.433343,234.336 229.327991,234.671997 231.176,235.344 C233.024009,236.016003 234.489328,237.04266 235.572,238.424 C235.572,238.424 234.489328,237.04266 235.572,238.424 L231.204,242.288 Z M231.204,242.288" id="Triangle-1-copy-3" sketch:type="MSShapeGroup"></path>
        </g>
    </g>
</svg>