<?xml version="1.0" encoding="UTF-8" standalone="no"?>
<svg width="375px" height="300px" viewBox="0 0 375 300" version="1.1" xmlns="http://www.w3.org/2000/svg" xmlns:xlink="http://www.w3.org/1999/xlink" xmlns:sketch="http://www.bohemiancoding.com/sketch/ns">
    <title>art-an</title>
    <description>Created with Sketch (http://www.bohemiancoding.com/sketch)</description>
    <defs></defs>
    <g id="Articles" stroke="none" stroke-width="1" fill="none" fill-rule="evenodd" sketch:type="MSPage">
        <g id="art-an" sketch:type="MSArtboardGroup" fill="#8FCFF5">
            <path d="M187.5,101 L306,300 L69,300 L187.5,101 Z M174.556,257.571 L174.289,257.571 C173.220995,259.469676 171.500345,261.027161 169.127,262.2435 C166.753655,263.459839 164.054015,264.068 161.028,264.068 C159.307325,264.068 157.512509,263.845502 155.6435,263.4005 C153.774491,262.955498 152.053841,262.213839 150.4815,261.1755 C148.909159,260.137161 147.603839,258.772508 146.5655,257.0815 C145.527161,255.390492 145.008,253.299012 145.008,250.807 C145.008,247.602984 145.912824,245.051676 147.7225,243.153 C149.532176,241.254324 151.860986,239.800672 154.709,238.792 C157.557014,237.783328 160.716483,237.115835 164.1875,236.7895 C167.658517,236.463165 171.055317,236.3 174.378,236.3 L174.378,235.232 C174.378,232.561987 173.413843,230.589173 171.4855,229.3135 C169.557157,228.037827 167.258013,227.4 164.588,227.4 C162.333322,227.4 160.167677,227.874662 158.091,228.824 C156.014323,229.773338 154.293673,230.930327 152.929,232.295 L147.411,225.798 C149.843679,223.543322 152.647151,221.852339 155.8215,220.725 C158.995849,219.597661 162.21465,219.034 165.478,219.034 C169.275352,219.034 172.405154,219.567995 174.8675,220.636 C177.329846,221.704005 179.272993,223.098325 180.697,224.819 C182.121007,226.539675 183.114831,228.467989 183.6785,230.604 C184.242169,232.740011 184.524,234.875989 184.524,237.012 L184.524,263 L174.556,263 L174.556,257.571 Z M174.378,243.509 L171.975,243.509 C170.254325,243.509 168.444676,243.583166 166.546,243.7315 C164.647324,243.879834 162.897008,244.206164 161.295,244.7105 C159.692992,245.214836 158.358005,245.926829 157.29,246.8465 C156.221995,247.766171 155.688,249.026992 155.688,250.629 C155.688,251.637672 155.910498,252.483163 156.3555,253.1655 C156.800502,253.847837 157.378996,254.396665 158.091,254.812 C158.803004,255.227335 159.603996,255.523999 160.494,255.702 C161.384004,255.880001 162.273996,255.969 163.164,255.969 C166.842685,255.969 169.631324,254.99001 171.53,253.032 C173.428676,251.07399 174.378,248.404017 174.378,245.022 L174.378,243.509 Z M196.984,220.28 L207.13,220.28 L207.13,227.133 L207.308,227.133 C208.257338,224.996989 209.903822,223.113175 212.2475,221.4815 C214.591178,219.849825 217.364984,219.034 220.569,219.034 C223.357681,219.034 225.745823,219.523495 227.7335,220.5025 C229.721177,221.481505 231.352827,222.771992 232.6285,224.374 C233.904173,225.976008 234.838664,227.815323 235.432,229.892 C236.025336,231.968677 236.322,234.104656 236.322,236.3 L236.322,263 L225.642,263 L225.642,239.326 C225.642,238.079994 225.553001,236.774673 225.375,235.41 C225.196999,234.045327 224.811336,232.814172 224.218,231.7165 C223.624664,230.618828 222.808839,229.714004 221.7705,229.002 C220.732161,228.289996 219.352675,227.934 217.632,227.934 C215.911325,227.934 214.428006,228.275163 213.182,228.9575 C211.935994,229.639837 210.912504,230.514995 210.1115,231.583 C209.310496,232.651005 208.702335,233.88216 208.287,235.2765 C207.871665,236.67084 207.664,238.079993 207.664,239.504 L207.664,263 L196.984,263 L196.984,220.28 Z" id="Triangle-1-copy-3" sketch:type="MSShapeGroup"></path>
        </g>
    </g>
</svg>