<?xml version="1.0" encoding="UTF-8" standalone="no"?>
<svg width="375px" height="300px" viewBox="0 0 375 300" version="1.1" xmlns="http://www.w3.org/2000/svg" xmlns:xlink="http://www.w3.org/1999/xlink" xmlns:sketch="http://www.bohemiancoding.com/sketch/ns">
    <title>conditional lower</title>
    <description>Created with Sketch (http://www.bohemiancoding.com/sketch)</description>
    <defs></defs>
    <g id="Misc" stroke="none" stroke-width="1" fill="none" fill-rule="evenodd" sketch:type="MSPage">
        <g id="conditional-lower" sketch:type="MSArtboardGroup" fill="#FED109">
            <path d="M267.5,7.5 L107.5,7.5 L107.5,302.5 L267.5,302.5 L267.5,7.5 Z M174.828,110.741134 C174.828,112.565143 174.468004,114.269126 173.748,115.853134 C173.027996,117.437142 172.068006,118.805128 170.868,119.957134 C169.667994,121.10914 168.228008,122.021131 166.548,122.693134 C164.867992,123.365137 163.116009,123.701134 161.292,123.701134 C157.451981,123.701134 154.236013,122.429147 151.644,119.885134 C149.051987,117.341121 147.756,114.293152 147.756,110.741134 C147.756,109.013125 148.091997,107.357142 148.764,105.773134 C149.436003,104.189126 150.395994,102.82114 151.644,101.669134 C152.892006,100.517128 154.331992,99.5811377 155.964,98.8611341 C157.596008,98.1411305 159.37199,97.7811341 161.292,97.7811341 C163.116009,97.7811341 164.867992,98.1171307 166.548,98.7891341 C168.228008,99.4611375 169.667994,100.373128 170.868,101.525134 C172.068006,102.67714 173.027996,104.045126 173.748,105.629134 C174.468004,107.213142 174.828,108.917125 174.828,110.741134 Z M149.484,205.349134 L149.484,133.637134 L173.1,133.637134 L173.1,205.349134 L149.484,205.349134 Z M236.316,113.909134 C235.451996,113.621133 234.444006,113.381135 233.292,113.189134 C232.139994,112.997133 230.988006,112.901134 229.836,112.901134 C227.627989,112.901134 225.852007,113.28513 224.508,114.053134 C223.163993,114.821138 222.108004,115.853128 221.34,117.149134 C220.571996,118.445141 220.044001,119.909126 219.756,121.541134 C219.467999,123.173142 219.324,124.805126 219.324,126.437134 L219.324,133.637134 L235.308,133.637134 L235.308,151.349134 L219.324,151.349134 L219.324,205.349134 L195.708,205.349134 L195.708,151.349134 L182.604,151.349134 L182.604,133.637134 L195.708,133.637134 L195.708,126.725134 C195.708,122.309112 196.187995,118.109154 197.148,114.125134 C198.108005,110.141114 199.763988,106.637149 202.116,103.613134 C204.468012,100.589119 207.63598,98.189143 211.62,96.4131341 C215.60402,94.6371252 220.57197,93.7491341 226.524,93.7491341 C228.54001,93.7491341 230.53199,93.8691329 232.5,94.1091341 C234.46801,94.3491353 236.267992,94.7091317 237.9,95.1891341 L236.316,113.909134 Z" id="Rectangle-1-copy" sketch:type="MSShapeGroup"></path>
        </g>
    </g>
</svg>