<?xml version="1.0" encoding="UTF-8" standalone="no"?>
<svg width="375px" height="300px" viewBox="0 0 375 300" version="1.1" xmlns="http://www.w3.org/2000/svg" xmlns:xlink="http://www.w3.org/1999/xlink" xmlns:sketch="http://www.bohemiancoding.com/sketch/ns">
    <title>conditional caps</title>
    <description>Created with Sketch (http://www.bohemiancoding.com/sketch)</description>
    <defs></defs>
    <g id="Misc" stroke="none" stroke-width="1" fill="none" fill-rule="evenodd" sketch:type="MSPage">
        <g id="conditional-caps" sketch:type="MSArtboardGroup" fill="#FED109">
            <path d="M267.5,7.5 L107.5,7.5 L107.5,302.5 L267.5,302.5 L267.5,7.5 Z M148.908,205.349134 L148.908,103.397134 L173.676,103.397134 L173.676,205.349134 L148.908,205.349134 Z M237.9,113.909134 C237.035996,113.621133 236.028006,113.381135 234.876,113.189134 C233.723994,112.997133 232.572006,112.901134 231.42,112.901134 C229.211989,112.901134 227.436007,113.28513 226.092,114.053134 C224.747993,114.821138 223.692004,115.853128 222.924,117.149134 C222.155996,118.445141 221.628001,119.909126 221.34,121.541134 C221.051999,123.173142 220.908,124.805126 220.908,126.437134 L220.908,133.637134 L236.892,133.637134 L236.892,151.349134 L220.908,151.349134 L220.908,205.349134 L197.292,205.349134 L197.292,151.349134 L184.188,151.349134 L184.188,133.637134 L197.292,133.637134 L197.292,126.725134 C197.292,122.309112 197.771995,118.109154 198.732,114.125134 C199.692005,110.141114 201.347988,106.637149 203.7,103.613134 C206.052012,100.589119 209.21998,98.189143 213.204,96.4131341 C217.18802,94.6371252 222.15597,93.7491341 228.108,93.7491341 C230.12401,93.7491341 232.11599,93.8691329 234.084,94.1091341 C236.05201,94.3491353 237.851992,94.7091317 239.484,95.1891341 L237.9,113.909134 Z" id="Rectangle-1-copy-2" sketch:type="MSShapeGroup"></path>
        </g>
    </g>
</svg>