<?xml version="1.0" encoding="utf-8"?>
<!-- Generator: Adobe Illustrator 16.0.0, SVG Export Plug-In . SVG Version: 6.00 Build 0)  -->
<!DOCTYPE svg PUBLIC "-//W3C//DTD SVG 1.1//EN" "http://www.w3.org/Graphics/SVG/1.1/DTD/svg11.dtd">
<svg version="1.1" id="Layer_1" xmlns="http://www.w3.org/2000/svg" xmlns:xlink="http://www.w3.org/1999/xlink" x="0px" y="0px"
	 width="162.734px" height="254.322px" viewBox="0 0 162.734 254.322" enable-background="new 0 0 162.734 254.322"
	 xml:space="preserve">
<g id="Layer_1_1_">
	<polygon fill="#FAC013" points="162.734,127.162 82.248,254.322 0,127.162 82.248,0 	"/>
	<g>
		<g>
			<g>
				<g>
					<defs>
						<rect id="SVGID_1_" x="82.248" width="94.01" height="254.322"/>
					</defs>
					<clipPath id="SVGID_2_">
						<use xlink:href="#SVGID_1_"  overflow="visible"/>
					</clipPath>
					<polygon clip-path="url(#SVGID_2_)" fill="#C4932C" points="162.734,127.162 82.248,254.322 0,127.162 82.248,0 					"/>
				</g>
			</g>
		</g>
		<g>
			<g>
				<g>
					<defs>
						<rect id="SVGID_3_" x="82.248" width="94.01" height="254.322"/>
					</defs>
					<clipPath id="SVGID_4_">
						<use xlink:href="#SVGID_3_"  overflow="visible"/>
					</clipPath>
					<g clip-path="url(#SVGID_4_)">
						<path fill="#BAB9B9" d="M57.007,151.137l6.345-11.292c0.614-0.929,2.011-1.699,3.399-0.929
							c2.939,1.701,7.116,2.942,10.364,2.942c2.783,0,3.867-1.396,3.867-2.787c0-2.01-1.702-3.401-6.188-6.031
							c-8.352-4.95-13.302-10.21-13.302-17.788c0-10.985,8.662-20.573,24.594-20.573c9.126,0,16.859,3.556,19.183,5.103
							c1.082,0.776,1.234,2.012,0.31,3.559l-6.033,10.828c-0.619,0.926-1.854,1.392-2.938,0.926
							c-2.319-1.082-6.188-2.783-10.981-2.783c-2.318,0-3.401,0.929-3.401,2.165c0,1.856,1.855,3.095,4.796,4.794
							c9.437,5.415,16.396,10.21,16.396,19.184c0,12.526-8.972,21.188-27.066,21.188c-9.125,0-16.396-3.248-18.719-5.26
							C56.697,153.457,56.079,152.528,57.007,151.137z"/>
					</g>
				</g>
			</g>
		</g>
	</g>
	<g>
		<g>
			<g>
				<defs>
					<polygon id="SVGID_5_" points="162.734,127.162 82.248,254.322 0,127.162 82.248,0 					"/>
				</defs>
				<clipPath id="SVGID_6_">
					<use xlink:href="#SVGID_5_"  overflow="visible"/>
				</clipPath>
				
					<rect x="0" y="127.161" opacity="0.6" clip-path="url(#SVGID_6_)" fill="#DBA11D" enable-background="new    " width="82.367" height="133.167"/>
			</g>
		</g>
		<g>
			<g>
				<defs>
					<polygon id="SVGID_7_" points="162.734,127.162 82.248,254.322 0,127.162 82.248,0 					"/>
				</defs>
				<clipPath id="SVGID_8_">
					<use xlink:href="#SVGID_7_"  overflow="visible"/>
				</clipPath>
				
					<rect x="82.248" y="127.161" opacity="0.6" clip-path="url(#SVGID_8_)" fill="#916714" enable-background="new    " width="82.367" height="133.167"/>
			</g>
		</g>
	</g>
	<g>
		<path fill="#FFFFFF" d="M57.007,151.137l6.345-11.292c0.614-0.929,2.011-1.699,3.399-0.929c2.939,1.701,7.116,2.942,10.364,2.942
			c2.783,0,3.867-1.396,3.867-2.787c0-2.01-1.702-3.401-6.188-6.031c-8.352-4.95-13.302-10.21-13.302-17.788
			c0-10.985,8.662-20.573,24.594-20.573c9.126,0,16.859,3.556,19.183,5.103c1.082,0.776,1.234,2.012,0.31,3.559l-6.033,10.828
			c-0.619,0.926-1.854,1.392-2.938,0.926c-2.319-1.082-6.188-2.783-10.981-2.783c-2.318,0-3.401,0.929-3.401,2.165
			c0,1.856,1.855,3.095,4.796,4.794c9.437,5.415,16.396,10.21,16.396,19.184c0,12.526-8.972,21.188-27.066,21.188
			c-9.125,0-16.396-3.248-18.719-5.26C56.697,153.457,56.079,152.528,57.007,151.137z"/>
	</g>
</g>
<g id="Layer_2" display="none">
	<g>
		<g display="inline">
			<g>
				<g>
					<defs>
						<rect id="SVGID_9_" x="82.248" width="94.01" height="254.322"/>
					</defs>
					<clipPath id="SVGID_10_">
						<use xlink:href="#SVGID_9_"  overflow="visible"/>
					</clipPath>
					<polygon clip-path="url(#SVGID_10_)" fill="#C4932C" points="162.734,127.162 82.248,254.322 0,127.162 82.248,0 					"/>
				</g>
			</g>
		</g>
		<g display="inline">
			<g>
				<g>
					<defs>
						<rect id="SVGID_11_" x="82.248" width="94.01" height="254.322"/>
					</defs>
					<clipPath id="SVGID_12_">
						<use xlink:href="#SVGID_11_"  overflow="visible"/>
					</clipPath>
					<g clip-path="url(#SVGID_12_)">
						<path fill="#BAB9B9" d="M57.007,151.137l6.345-11.292c0.614-0.929,2.011-1.699,3.399-0.929
							c2.939,1.701,7.116,2.942,10.364,2.942c2.783,0,3.867-1.396,3.867-2.787c0-2.01-1.702-3.401-6.188-6.031
							c-8.352-4.95-13.302-10.21-13.302-17.788c0-10.985,8.662-20.573,24.594-20.573c9.126,0,16.859,3.556,19.183,5.103
							c1.082,0.776,1.234,2.012,0.31,3.559l-6.033,10.828c-0.619,0.926-1.854,1.392-2.938,0.926
							c-2.319-1.082-6.188-2.783-10.981-2.783c-2.318,0-3.401,0.929-3.401,2.165c0,1.856,1.855,3.095,4.796,4.794
							c9.437,5.415,16.396,10.21,16.396,19.184c0,12.526-8.972,21.188-27.066,21.188c-9.125,0-16.396-3.248-18.719-5.26
							C56.697,153.457,56.079,152.528,57.007,151.137z"/>
					</g>
				</g>
			</g>
		</g>
	</g>
	<g>
		<g display="inline">
			<g>
				<defs>
					<polygon id="SVGID_13_" points="162.734,127.162 82.248,254.322 0,127.162 82.248,0 					"/>
				</defs>
				<clipPath id="SVGID_14_">
					<use xlink:href="#SVGID_13_"  overflow="visible"/>
				</clipPath>
				
					<rect x="0" y="127.161" opacity="0.6" clip-path="url(#SVGID_14_)" fill="#DBA11D" enable-background="new    " width="82.367" height="133.167"/>
			</g>
		</g>
		<g display="inline">
			<g>
				<defs>
					<polygon id="SVGID_15_" points="162.734,127.162 82.248,254.322 0,127.162 82.248,0 					"/>
				</defs>
				<clipPath id="SVGID_16_">
					<use xlink:href="#SVGID_15_"  overflow="visible"/>
				</clipPath>
				
					<rect x="82.248" y="127.161" opacity="0.6" clip-path="url(#SVGID_16_)" fill="#916714" enable-background="new    " width="82.367" height="133.167"/>
			</g>
		</g>
	</g>
	<polygon display="inline" fill="#FAC013" points="162.734,127.162 82.248,254.322 0,127.162 82.248,0 	"/>
	<g display="inline">
		<path fill="#FFFFFF" d="M57.007,151.137l6.345-11.292c0.614-0.929,2.011-1.699,3.399-0.929c2.939,1.701,7.116,2.942,10.364,2.942
			c2.783,0,3.867-1.396,3.867-2.787c0-2.01-1.702-3.401-6.188-6.031c-8.352-4.95-13.302-10.21-13.302-17.788
			c0-10.985,8.662-20.573,24.594-20.573c9.126,0,16.859,3.556,19.183,5.103c1.082,0.776,1.234,2.012,0.31,3.559l-6.033,10.828
			c-0.619,0.926-1.854,1.392-2.938,0.926c-2.319-1.082-6.188-2.783-10.981-2.783c-2.318,0-3.401,0.929-3.401,2.165
			c0,1.856,1.855,3.095,4.796,4.794c9.437,5.415,16.396,10.21,16.396,19.184c0,12.526-8.972,21.188-27.066,21.188
			c-9.125,0-16.396-3.248-18.719-5.26C56.697,153.457,56.079,152.528,57.007,151.137z"/>
	</g>
</g>
<rect x="293.867" y="61.661" fill="none" width="246" height="272"/>
<text transform="matrix(1 0 0 1 293.8669 71.2998)" font-family="'Cardo-Regular'" font-size="12">s</text>
</svg>
