<?xml version="1.0" encoding="UTF-8" standalone="no"?>
<svg width="375px" height="300px" viewBox="0 0 375 300" version="1.1" xmlns="http://www.w3.org/2000/svg" xmlns:xlink="http://www.w3.org/1999/xlink" xmlns:sketch="http://www.bohemiancoding.com/sketch/ns">
    <title>noun-ing</title>
    <description>Created with Sketch (http://www.bohemiancoding.com/sketch)</description>
    <defs></defs>
    <g id="Nouns" stroke="none" stroke-width="1" fill="none" fill-rule="evenodd" sketch:type="MSPage">
        <g id="noun-ing" sketch:type="MSArtboardGroup" fill="#393939">
            <path d="M188,2 L364,298 L12,298 L188,2 Z M188.5,276 C232.958925,276 269,239.958925 269,195.5 C269,151.041075 232.958925,115 188.5,115 C144.041075,115 108,151.041075 108,195.5 C108,239.958925 144.041075,276 188.5,276 Z M135.346,181.08 L144.826,181.08 L144.826,219 L135.346,219 L135.346,181.08 Z M134.003,168.203 C134.003,166.675659 134.569161,165.345839 135.7015,164.2135 C136.833839,163.081161 138.268991,162.515 140.007,162.515 C141.745009,162.515 143.206494,163.054828 144.3915,164.1345 C145.576506,165.214172 146.169,166.570325 146.169,168.203 C146.169,169.835675 145.576506,171.191828 144.3915,172.2715 C143.206494,173.351172 141.745009,173.891 140.007,173.891 C138.268991,173.891 136.833839,173.324839 135.7015,172.1925 C134.569161,171.060161 134.003,169.730341 134.003,168.203 C134.003,168.203 134.003,169.730341 134.003,168.203 Z M156.36,181.08 L165.366,181.08 L165.366,187.163 L165.524,187.163 C166.366671,185.266991 167.828156,183.594841 169.9085,182.1465 C171.988844,180.698159 174.450986,179.974 177.295,179.974 C179.770346,179.974 181.890158,180.408496 183.6545,181.2775 C185.418842,182.146504 186.867161,183.291993 187.9995,184.714 C189.131839,186.136007 189.961331,187.768657 190.488,189.612 C191.014669,191.455343 191.278,193.351324 191.278,195.3 L191.278,219 L181.798,219 L181.798,197.986 C181.798,196.879994 181.719001,195.721339 181.561,194.51 C181.402999,193.298661 181.060669,192.205838 180.534,191.2315 C180.007331,190.257162 179.283171,189.454003 178.3615,188.822 C177.439829,188.189997 176.215341,187.874 174.688,187.874 C173.160659,187.874 171.844006,188.17683 170.738,188.7825 C169.631994,189.38817 168.723504,190.164995 168.0125,191.113 C167.301496,192.061005 166.761669,193.153827 166.393,194.3915 C166.024331,195.629173 165.84,196.879994 165.84,198.144 L165.84,219 L156.36,219 L156.36,181.08 Z M240.89,181.08 L240.89,215.603 C240.89,219.02635 240.468671,222.120486 239.626,224.8855 C238.783329,227.650514 237.479842,229.994157 235.7155,231.9165 C233.951158,233.838843 231.726013,235.326661 229.04,236.38 C226.353987,237.433339 223.167685,237.96 219.481,237.96 C217.953659,237.96 216.334175,237.828335 214.6225,237.565 C212.910825,237.301665 211.225508,236.906669 209.5665,236.38 C207.907492,235.853331 206.314341,235.195004 204.787,234.405 C203.259659,233.614996 201.890339,232.719672 200.679,231.719 L206.13,224.372 C207.973343,226.110009 210.053655,227.439829 212.371,228.3615 C214.688345,229.283171 217.031988,229.744 219.402,229.744 C221.666678,229.744 223.575826,229.414837 225.1295,228.7565 C226.683174,228.098163 227.920829,227.189672 228.8425,226.031 C229.764171,224.872328 230.422498,223.503008 230.8175,221.923 C231.212502,220.342992 231.41,218.605009 231.41,216.709 L231.41,213.944 L231.252,213.944 C229.88266,215.787343 228.131511,217.196162 225.9985,218.1705 C223.865489,219.144838 221.482346,219.632 218.849,219.632 C216.004986,219.632 213.424345,219.105339 211.107,218.052 C208.789655,216.998661 206.827841,215.576676 205.2215,213.786 C203.615159,211.995324 202.364338,209.901845 201.469,207.5055 C200.573662,205.109155 200.126,202.568013 200.126,199.882 C200.126,197.14332 200.560496,194.562679 201.4295,192.14 C202.298504,189.717321 203.536159,187.610676 205.1425,185.82 C206.748841,184.029324 208.697489,182.607339 210.9885,181.554 C213.279511,180.500661 215.846986,179.974 218.691,179.974 C221.377013,179.974 223.878655,180.526994 226.196,181.633 C228.513345,182.739006 230.35666,184.450655 231.726,186.768 L231.884,186.768 L231.884,181.08 L240.89,181.08 Z M220.666,187.716 C218.927991,187.716 217.387507,188.031997 216.0445,188.664 C214.701493,189.296003 213.569171,190.151828 212.6475,191.2315 C211.725829,192.311172 211.014836,193.588326 210.5145,195.063 C210.014164,196.537674 209.764,198.117658 209.764,199.803 C209.764,201.330341 210.014164,202.804993 210.5145,204.227 C211.014836,205.649007 211.725829,206.926161 212.6475,208.0585 C213.569171,209.190839 214.701493,210.09933 216.0445,210.784 C217.387507,211.46867 218.901658,211.811 220.587,211.811 C222.325009,211.811 223.891826,211.481837 225.2875,210.8235 C226.683174,210.165163 227.868162,209.283006 228.8425,208.177 C229.816838,207.070994 230.567331,205.793841 231.094,204.3455 C231.620669,202.897159 231.884,201.383008 231.884,199.803 C231.884,198.170325 231.620669,196.616674 231.094,195.142 C230.567331,193.667326 229.816838,192.377006 228.8425,191.271 C227.868162,190.164994 226.69634,189.296003 225.327,188.664 C223.95766,188.031997 222.404009,187.716 220.666,187.716 Z M220.666,187.716" id="Triangle-1" sketch:type="MSShapeGroup"></path>
        </g>
    </g>
</svg>