<?xml version="1.0" encoding="UTF-8" standalone="no"?>
<svg width="375px" height="300px" viewBox="0 0 375 300" version="1.1" xmlns="http://www.w3.org/2000/svg" xmlns:xlink="http://www.w3.org/1999/xlink" xmlns:sketch="http://www.bohemiancoding.com/sketch/ns">
    <title>noun-to-block</title>
    <description>Created with Sketch (http://www.bohemiancoding.com/sketch)</description>
    <defs></defs>
    <g id="Adjectives-Copy" stroke="none" stroke-width="1" fill="none" fill-rule="evenodd" sketch:type="MSPage">
        <g id="noun-to-block" sketch:type="MSArtboardGroup" fill="#393939">
            <path d="M188,2 L364,298 L12,298 L188,2 Z M188.5,276 C232.958925,276 269,239.958925 269,195.5 C269,151.041075 232.958925,115 188.5,115 C144.041075,115 108,151.041075 108,195.5 C108,239.958925 144.041075,276 188.5,276 Z M150.737,188.664 L150.737,181.08 L157.373,181.08 L157.373,170.099 L166.695,170.099 L166.695,181.08 L176.175,181.08 L176.175,188.664 L166.695,188.664 L166.695,206.281 C166.695,207.966342 166.99783,209.361994 167.6035,210.468 C168.20917,211.574006 169.565323,212.127 171.672,212.127 C172.304003,212.127 172.988663,212.061167 173.726,211.9295 C174.463337,211.797833 175.121664,211.600335 175.701,211.337 L176.017,218.763 C175.174329,219.079002 174.173672,219.329166 173.015,219.5135 C171.856328,219.697834 170.750339,219.79 169.697,219.79 C167.168987,219.79 165.115008,219.434504 163.535,218.7235 C161.954992,218.012496 160.704171,217.038173 159.7825,215.8005 C158.860829,214.562827 158.228835,213.140841 157.8865,211.5345 C157.544165,209.928159 157.373,208.203343 157.373,206.36 L157.373,188.664 L150.737,188.664 Z M180.836,199.882 C180.836,196.879985 181.375828,194.154512 182.4555,191.7055 C183.535172,189.256488 184.996657,187.163009 186.84,185.425 C188.683343,183.686991 190.868987,182.344005 193.397,181.396 C195.925013,180.447995 198.610986,179.974 201.455,179.974 C204.299014,179.974 206.984987,180.447995 209.513,181.396 C212.041013,182.344005 214.226657,183.686991 216.07,185.425 C217.913343,187.163009 219.374828,189.256488 220.4545,191.7055 C221.534172,194.154512 222.074,196.879985 222.074,199.882 C222.074,202.884015 221.534172,205.622654 220.4545,208.098 C219.374828,210.573346 217.913343,212.693158 216.07,214.4575 C214.226657,216.221842 212.041013,217.604328 209.513,218.605 C206.984987,219.605672 204.299014,220.106 201.455,220.106 C198.610986,220.106 195.925013,219.605672 193.397,218.605 C190.868987,217.604328 188.683343,216.221842 186.84,214.4575 C184.996657,212.693158 183.535172,210.573346 182.4555,208.098 C181.375828,205.622654 180.836,202.884015 180.836,199.882 C180.836,199.882 180.836,202.884015 180.836,199.882 Z M190.474,199.882 C190.474,201.356674 190.697831,202.831326 191.1455,204.306 C191.593169,205.780674 192.264662,207.097328 193.16,208.256 C194.055338,209.414672 195.18766,210.362663 196.557,211.1 C197.92634,211.837337 199.558991,212.206 201.455,212.206 C203.351009,212.206 204.98366,211.837337 206.353,211.1 C207.72234,210.362663 208.854662,209.414672 209.75,208.256 C210.645338,207.097328 211.316831,205.780674 211.7645,204.306 C212.212169,202.831326 212.436,201.356674 212.436,199.882 C212.436,198.407326 212.212169,196.945841 211.7645,195.4975 C211.316831,194.049159 210.645338,192.745672 209.75,191.587 C208.854662,190.428328 207.72234,189.493504 206.353,188.7825 C204.98366,188.071496 203.351009,187.716 201.455,187.716 C199.558991,187.716 197.92634,188.071496 196.557,188.7825 C195.18766,189.493504 194.055338,190.428328 193.16,191.587 C192.264662,192.745672 191.593169,194.049159 191.1455,195.4975 C190.697831,196.945841 190.474,198.407326 190.474,199.882 C190.474,199.882 190.474,198.407326 190.474,199.882 Z" id="Triangle-1" sketch:type="MSShapeGroup"></path>
        </g>
    </g>
</svg>