<?xml version="1.0" encoding="UTF-8" standalone="no"?>
<svg width="375px" height="300px" viewBox="0 0 375 300" version="1.1" xmlns="http://www.w3.org/2000/svg" xmlns:xlink="http://www.w3.org/1999/xlink" xmlns:sketch="http://www.bohemiancoding.com/sketch/ns">
    <title>noun-ing</title>
    <description>Created with Sketch (http://www.bohemiancoding.com/sketch)</description>
    <defs></defs>
    <g id="Adjectives-Copy" stroke="none" stroke-width="1" fill="none" fill-rule="evenodd" sketch:type="MSPage">
        <g id="noun-ing" sketch:type="MSArtboardGroup" fill="#E03232">
            <path d="M193,283 C239.944206,283 278,244.944206 278,198 C278,151.055794 239.944206,113 193,113 C146.055794,113 108,151.055794 108,198 C108,244.944206 146.055794,283 193,283 Z M147.192919,169.065155 C147.192919,170.121765 146.984381,171.108846 146.567298,172.026429 C146.150215,172.944011 145.594113,173.736456 144.898975,174.403789 C144.203837,175.071121 143.369684,175.599418 142.396491,175.988696 C141.423297,176.377973 140.408411,176.572609 139.351801,176.572609 C137.127359,176.572609 135.264417,175.835773 133.762919,174.362081 C132.261421,172.888388 131.510683,171.122764 131.510683,169.065155 C131.510683,168.064156 131.705319,167.10488 132.094596,166.187298 C132.483874,165.269716 133.039976,164.47727 133.762919,163.809938 C134.485863,163.142605 135.320016,162.600406 136.265404,162.183323 C137.210791,161.76624 138.23958,161.557702 139.351801,161.557702 C140.408411,161.557702 141.423297,161.752338 142.396491,162.141615 C143.369684,162.530892 144.203837,163.059189 144.898975,163.726522 C145.594113,164.393854 146.150215,165.1863 146.567298,166.103882 C146.984381,167.021464 147.192919,168.008545 147.192919,169.065155 Z M132.511677,223.869565 L132.511677,182.328323 L146.191925,182.328323 L146.191925,223.869565 L132.511677,223.869565 Z M184.313106,223.869565 L184.313106,201.180373 C184.313106,200.012541 184.215788,198.900337 184.021149,197.843727 C183.82651,196.787117 183.506752,195.855646 183.061863,195.049286 C182.616975,194.242926 181.99136,193.603408 181.185,193.130714 C180.37864,192.65802 179.363754,192.421677 178.140311,192.421677 C176.916868,192.421677 175.846371,192.65802 174.928789,193.130714 C174.011207,193.603408 173.246566,194.256828 172.634845,195.090994 C172.023123,195.925159 171.564339,196.884436 171.258478,197.968851 C170.952618,199.053266 170.799689,200.179373 170.799689,201.347205 L170.799689,223.869565 L157.036025,223.869565 L157.036025,182.328323 L170.299193,182.328323 L170.299193,188.084037 L170.466025,188.084037 C170.966524,187.194261 171.619944,186.3184 172.426304,185.456429 C173.232664,184.594457 174.178038,183.857622 175.262453,183.245901 C176.346869,182.634179 177.528586,182.133687 178.80764,181.74441 C180.086694,181.355133 181.449144,181.160497 182.895031,181.160497 C185.675583,181.160497 188.039017,181.660989 189.985404,182.661988 C191.93179,183.662986 193.502779,184.955924 194.698416,186.540839 C195.894054,188.125753 196.756012,189.946988 197.284317,192.004596 C197.812622,194.062205 198.07677,196.119783 198.07677,198.177391 L198.07677,223.869565 L184.313106,223.869565 Z M252.464099,219.949006 C252.464099,224.008612 251.880192,227.539861 250.71236,230.542857 C249.544528,233.545854 247.904027,236.03441 245.790807,238.008602 C243.677588,239.982795 241.105616,241.456465 238.074814,242.429658 C235.044012,243.402852 231.693497,243.889441 228.023168,243.889441 C224.352839,243.889441 220.585247,243.333339 216.72028,242.221118 C212.855312,241.108897 209.504797,239.496201 206.668634,237.382981 L213.508758,227.623292 C215.510755,229.402845 217.721261,230.723588 220.140342,231.585559 C222.559422,232.44753 224.936759,232.878509 227.272422,232.878509 C231.276418,232.878509 234.237661,231.821915 236.156242,229.708696 C238.074823,227.595476 239.034099,224.78716 239.034099,221.283665 L239.034099,218.78118 L238.783851,218.78118 C237.504797,220.449511 235.78088,221.784156 233.61205,222.785155 C231.443219,223.786154 228.968565,224.286646 226.188012,224.286646 C223.018183,224.286646 220.209867,223.716641 217.762981,222.576615 C215.316095,221.436589 213.244615,219.893405 211.548478,217.947019 C209.852341,216.000632 208.559404,213.734516 207.669627,211.148602 C206.779851,208.562689 206.334969,205.823886 206.334969,202.932112 C206.334969,200.040338 206.779851,197.287632 207.669627,194.673913 C208.559404,192.060194 209.852341,189.75237 211.548478,187.750373 C213.244615,185.748375 215.316095,184.149582 217.762981,182.953944 C220.209867,181.758307 222.990378,181.160497 226.104596,181.160497 C228.718315,181.160497 231.220775,181.688794 233.61205,182.745404 C236.003325,183.802014 237.921877,185.442515 239.367764,187.666957 L239.534596,187.666957 L239.534596,182.328323 L252.464099,182.328323 L252.464099,219.949006 Z M239.45118,202.848696 C239.45118,201.45842 239.214837,200.123775 238.742143,198.84472 C238.269449,197.565666 237.588224,196.43956 236.698447,195.466366 C235.80867,194.493173 234.752077,193.728533 233.528634,193.172422 C232.305191,192.616312 230.914935,192.338261 229.357826,192.338261 C227.800717,192.338261 226.424364,192.616312 225.228727,193.172422 C224.033089,193.728533 223.018203,194.479271 222.184037,195.424658 C221.349872,196.370046 220.710354,197.48225 220.265466,198.761304 C219.820577,200.040358 219.598137,201.402809 219.598137,202.848696 C219.598137,204.238972 219.820577,205.573617 220.265466,206.852671 C220.710354,208.131725 221.349872,209.257832 222.184037,210.231025 C223.018203,211.204218 224.033089,211.982761 225.228727,212.566677 C226.424364,213.150593 227.800717,213.442547 229.357826,213.442547 C230.914935,213.442547 232.319093,213.150593 233.570342,212.566677 C234.82159,211.982761 235.878184,211.218121 236.740155,210.272733 C237.602126,209.327345 238.269449,208.215141 238.742143,206.936087 C239.214837,205.657033 239.45118,204.294583 239.45118,202.848696 Z" id="Oval-1-copy" sketch:type="MSShapeGroup"></path>
        </g>
    </g>
</svg>