<?xml version="1.0" encoding="UTF-8" standalone="no"?>
<svg width="375px" height="300px" viewBox="0 0 375 300" version="1.1" xmlns="http://www.w3.org/2000/svg" xmlns:xlink="http://www.w3.org/1999/xlink" xmlns:sketch="http://www.bohemiancoding.com/sketch/ns">
    <title>noun-place-plural</title>
    <description>Created with Sketch (http://www.bohemiancoding.com/sketch)</description>
    <defs></defs>
    <g id="Nouns" stroke="none" stroke-width="1" fill="none" fill-rule="evenodd" sketch:type="MSPage">
        <g id="noun-place-plural" sketch:type="MSArtboardGroup" fill="#393939">
            <path d="M188,-5 L364,291 L12,291 L188,-5 Z M164.5,263 C170.851275,263 176,257.851275 176,251.5 C176,245.148725 170.851275,240 164.5,240 C158.148725,240 153,245.148725 153,251.5 C153,257.851275 158.148725,263 164.5,263 Z M211.5,263 C217.851275,263 223,257.851275 223,251.5 C223,245.148725 217.851275,240 211.5,240 C205.148725,240 200,245.148725 200,251.5 C200,257.851275 205.148725,263 211.5,263 Z M155.732,110.048 L188.996,110.048 C194.852029,110.048 200.131976,110.575995 204.836,111.632 C209.540024,112.688005 213.571983,114.415988 216.932,116.816 C220.292017,119.216012 222.883991,122.287981 224.708,126.032 C226.532009,129.776019 227.444,134.287974 227.444,139.568 C227.444,145.232028 226.388011,149.983981 224.276,153.824 C222.163989,157.664019 219.308018,160.759988 215.708,163.112 C212.107982,165.464012 207.908024,167.167995 203.108,168.224 C198.307976,169.280005 193.220027,169.808 187.844,169.808 L173.876,169.808 L173.876,212 L155.732,212 L155.732,110.048 Z M186.548,154.544 C189.524015,154.544 192.355987,154.328002 195.044,153.896 C197.732013,153.463998 200.131989,152.696006 202.244,151.592 C204.356011,150.487994 206.035994,148.97601 207.284,147.056 C208.532006,145.13599 209.156,142.640015 209.156,139.568 C209.156,136.591985 208.532006,134.168009 207.284,132.296 C206.035994,130.423991 204.38001,128.960005 202.316,127.904 C200.25199,126.847995 197.900013,126.152002 195.26,125.816 C192.619987,125.479998 189.908014,125.312 187.124,125.312 L173.876,125.312 L173.876,154.544 L186.548,154.544 Z M186.548,154.544" id="Triangle-1" sketch:type="MSShapeGroup"></path>
        </g>
    </g>
</svg>