<?xml version="1.0" encoding="UTF-8" standalone="no"?>
<svg width="375px" height="300px" viewBox="0 0 375 300" version="1.1" xmlns="http://www.w3.org/2000/svg" xmlns:xlink="http://www.w3.org/1999/xlink" xmlns:sketch="http://www.bohemiancoding.com/sketch/ns">
    <title>noun-place</title>
    <description>Created with Sketch (http://www.bohemiancoding.com/sketch)</description>
    <defs></defs>
    <g id="Adjectives-Copy" stroke="none" stroke-width="1" fill="none" fill-rule="evenodd" sketch:type="MSPage">
        <g id="noun-place" sketch:type="MSArtboardGroup" fill="#393939">
            <path d="M188,0 L364,296 L12,296 L188,0 Z M155.732,141.048 L188.996,141.048 C194.852029,141.048 200.131976,141.575995 204.836,142.632 C209.540024,143.688005 213.571983,145.415988 216.932,147.816 C220.292017,150.216012 222.883991,153.287981 224.708,157.032 C226.532009,160.776019 227.444,165.287974 227.444,170.568 C227.444,176.232028 226.388011,180.983981 224.276,184.824 C222.163989,188.664019 219.308018,191.759988 215.708,194.112 C212.107982,196.464012 207.908024,198.167995 203.108,199.224 C198.307976,200.280005 193.220027,200.808 187.844,200.808 L173.876,200.808 L173.876,243 L155.732,243 L155.732,141.048 Z M186.548,185.544 C189.524015,185.544 192.355987,185.328002 195.044,184.896 C197.732013,184.463998 200.131989,183.696006 202.244,182.592 C204.356011,181.487994 206.035994,179.97601 207.284,178.056 C208.532006,176.13599 209.156,173.640015 209.156,170.568 C209.156,167.591985 208.532006,165.168009 207.284,163.296 C206.035994,161.423991 204.38001,159.960005 202.316,158.904 C200.25199,157.847995 197.900013,157.152002 195.26,156.816 C192.619987,156.479998 189.908014,156.312 187.124,156.312 L173.876,156.312 L173.876,185.544 L186.548,185.544 Z" id="Triangle-1" sketch:type="MSShapeGroup"></path>
        </g>
    </g>
</svg>