<?xml version="1.0" encoding="UTF-8" standalone="no"?>
<svg width="375px" height="300px" viewBox="0 0 375 300" version="1.1" xmlns="http://www.w3.org/2000/svg" xmlns:xlink="http://www.w3.org/1999/xlink" xmlns:sketch="http://www.bohemiancoding.com/sketch/ns">
    <title>noun-to</title>
    <description>Created with Sketch (http://www.bohemiancoding.com/sketch)</description>
    <defs></defs>
    <g id="Adjectives-Copy" stroke="none" stroke-width="1" fill="none" fill-rule="evenodd" sketch:type="MSPage">
        <g id="noun-to" sketch:type="MSArtboardGroup" fill="#E03232">
            <path d="M193,283 C239.944206,283 278,244.944206 278,198 C278,151.055794 239.944206,113 193,113 C146.055794,113 108,151.055794 108,198 C108,244.944206 146.055794,283 193,283 Z M170.950683,191.532609 L170.950683,207.381677 C170.950683,209.328064 171.326052,210.787832 172.076801,211.761025 C172.82755,212.734218 174.176098,213.220807 176.122484,213.220807 C176.789817,213.220807 177.498847,213.165197 178.249596,213.053975 C179.000345,212.942753 179.62596,212.775922 180.12646,212.553478 L180.293292,222.563416 C179.347904,222.897082 178.152285,223.189036 176.706398,223.439286 C175.26051,223.689535 173.814645,223.814658 172.368758,223.814658 C169.588206,223.814658 167.252577,223.467095 165.361801,222.771957 C163.471026,222.076818 161.955648,221.075835 160.815621,219.768975 C159.675595,218.462116 158.855344,216.90503 158.354845,215.097671 C157.854345,213.290312 157.604099,211.274442 157.604099,209.05 L157.604099,191.532609 L150.930807,191.532609 L150.930807,181.272422 L157.520683,181.272422 L157.520683,170.344907 L170.950683,170.344907 L170.950683,181.272422 L180.710373,181.272422 L180.710373,191.532609 L170.950683,191.532609 Z M231.177143,201.876211 C231.177143,205.268485 230.565431,208.340949 229.341988,211.093696 C228.118545,213.846442 226.450238,216.182071 224.337019,218.100652 C222.223799,220.019233 219.77695,221.506806 216.996398,222.563416 C214.215845,223.620026 211.240699,224.148323 208.07087,224.148323 C204.956651,224.148323 201.995407,223.620026 199.18705,222.563416 C196.378692,221.506806 193.931843,220.019233 191.846429,218.100652 C189.761014,216.182071 188.106611,213.846442 186.883168,211.093696 C185.659725,208.340949 185.048012,205.268485 185.048012,201.876211 C185.048012,198.483937 185.659725,195.425376 186.883168,192.700435 C188.106611,189.975494 189.761014,187.66767 191.846429,185.776894 C193.931843,183.886119 196.378692,182.440253 199.18705,181.439255 C201.995407,180.438256 204.956651,179.937764 208.07087,179.937764 C211.240699,179.937764 214.215845,180.438256 216.996398,181.439255 C219.77695,182.440253 222.223799,183.886119 224.337019,185.776894 C226.450238,187.66767 228.118545,189.975494 229.341988,192.700435 C230.565431,195.425376 231.177143,198.483937 231.177143,201.876211 Z M217.997391,201.876211 C217.997391,200.541546 217.77495,199.234706 217.330062,197.955652 C216.885174,196.676598 216.245656,195.550491 215.411491,194.577298 C214.577325,193.604105 213.548536,192.811659 212.325093,192.199938 C211.10165,191.588216 209.68359,191.28236 208.07087,191.28236 C206.458149,191.28236 205.040089,191.588216 203.816646,192.199938 C202.593203,192.811659 201.578317,193.604105 200.771957,194.577298 C199.965596,195.550491 199.353884,196.676598 198.936801,197.955652 C198.519718,199.234706 198.31118,200.541546 198.31118,201.876211 C198.31118,203.210876 198.519718,204.517716 198.936801,205.79677 C199.353884,207.075824 199.979499,208.229736 200.813665,209.25854 C201.64783,210.287345 202.676619,211.107595 203.900062,211.719317 C205.123505,212.331038 206.541565,212.636894 208.154286,212.636894 C209.767006,212.636894 211.185066,212.331038 212.408509,211.719317 C213.631952,211.107595 214.660741,210.287345 215.494907,209.25854 C216.329072,208.229736 216.954687,207.075824 217.37177,205.79677 C217.788853,204.517716 217.997391,203.210876 217.997391,201.876211 Z" id="Oval-1-copy" sketch:type="MSShapeGroup"></path>
        </g>
    </g>
</svg>