<?xml version="1.0" encoding="UTF-8" standalone="no"?>
<svg width="375px" height="300px" viewBox="0 0 375 300" version="1.1" xmlns="http://www.w3.org/2000/svg" xmlns:xlink="http://www.w3.org/1999/xlink" xmlns:sketch="http://www.bohemiancoding.com/sketch/ns">
    <title>noun-poss-place</title>
    <description>Created with Sketch (http://www.bohemiancoding.com/sketch)</description>
    <defs></defs>
    <g id="Adjectives-Copy" stroke="none" stroke-width="1" fill="none" fill-rule="evenodd" sketch:type="MSPage">
        <g id="noun-poss-place" sketch:type="MSArtboardGroup" fill="#393939">
            <path d="M307.216513,219.0005 L177,0 L1,296 L353,296 L352.772275,295.617007 L353.334,296 L374.335,201.666 L307.216513,219.0005 Z M141.732,141.048 L174.996,141.048 C180.852029,141.048 186.131976,141.575995 190.836,142.632 C195.540024,143.688005 199.571983,145.415988 202.932,147.816 C206.292017,150.216012 208.883991,153.287981 210.708,157.032 C212.532009,160.776019 213.444,165.287974 213.444,170.568 C213.444,176.232028 212.388011,180.983981 210.276,184.824 C208.163989,188.664019 205.308018,191.759988 201.708,194.112 C198.107982,196.464012 193.908024,198.167995 189.108,199.224 C184.307976,200.280005 179.220027,200.808 173.844,200.808 L159.876,200.808 L159.876,243 L141.732,243 L141.732,141.048 Z M172.548,185.544 C175.524015,185.544 178.355987,185.328002 181.044,184.896 C183.732013,184.463998 186.131989,183.696006 188.244,182.592 C190.356011,181.487994 192.035994,179.97601 193.284,178.056 C194.532006,176.13599 195.156,173.640015 195.156,170.568 C195.156,167.591985 194.532006,165.168009 193.284,163.296 C192.035994,161.423991 190.38001,159.960005 188.316,158.904 C186.25199,157.847995 183.900013,157.152002 181.26,156.816 C178.619987,156.479998 175.908014,156.312 173.124,156.312 L159.876,156.312 L159.876,185.544 L172.548,185.544 Z" id="Fill-1" sketch:type="MSShapeGroup"></path>
        </g>
    </g>
</svg>