<?xml version="1.0" encoding="UTF-8" standalone="no"?>
<svg width="375px" height="300px" viewBox="0 0 375 300" version="1.1" xmlns="http://www.w3.org/2000/svg" xmlns:xlink="http://www.w3.org/1999/xlink" xmlns:sketch="http://www.bohemiancoding.com/sketch/ns">
    <title>prep-where</title>
    <description>Created with Sketch (http://www.bohemiancoding.com/sketch)</description>
    <defs></defs>
    <g id="Prepositions" stroke="none" stroke-width="1" fill="none" fill-rule="evenodd" sketch:type="MSPage">
        <g id="prep-where" sketch:type="MSArtboardGroup" fill="#00C54F">
            <path d="M187.249918,187.949879 C130.599038,187.949879 84.2917533,237.233734 81.0591908,299.376096 C103.83534,267.362715 142.892079,246.249075 187.249897,246.249075 C231.608,246.249075 270.664728,267.36268 293.440857,299.376021 C290.20827,237.233692 243.901184,187.949879 187.249918,187.949879 Z M189.620858,195.627359 C192.632266,195.627359 195.448994,196.200733 198.069291,197.344298 C200.689748,198.489295 202.97831,200.041003 204.936728,201.997829 C206.893554,203.956088 208.445103,206.260091 209.5901,208.910314 C210.733824,211.561812 211.307039,214.36294 211.307039,217.313541 C211.307039,220.32654 210.733824,223.141836 209.5901,225.762134 C208.445103,228.38259 206.893554,230.672585 204.936728,232.629411 C202.97831,234.58767 200.689748,236.139378 198.069291,237.282942 C195.448994,238.42794 192.632266,238.999722 189.620858,238.999722 C186.607858,238.999722 183.792562,238.42794 181.172264,237.282942 C178.551808,236.139378 176.261813,234.58767 174.304987,232.629411 C172.346728,230.672585 170.79502,228.38259 169.651456,225.762134 C168.506458,223.141836 167.934676,220.32654 167.934676,217.313541 C167.934676,214.36294 168.506458,211.561812 169.651456,208.910314 C170.79502,206.260091 172.346728,203.956088 174.304987,201.997829 C176.261813,200.041003 178.551808,198.489295 181.172264,197.344298 C183.792562,196.200733 186.607858,195.627359 189.620858,195.627359 C189.620858,195.627359 186.607858,195.627359 189.620858,195.627359 Z M187.090816,199.061237 C183.657098,199.544036 180.644257,200.838665 178.054841,202.946555 C175.464151,205.055878 173.566541,207.645135 172.362169,210.71735 C172.723671,210.778158 173.15999,210.823206 173.672397,210.852974 C174.183531,210.884014 174.695938,210.94323 175.208505,211.033645 C175.719639,211.124061 176.186998,211.245358 176.609149,211.395148 C177.029867,211.546212 177.300954,211.772091 177.422251,212.072786 C177.542275,212.374914 177.526834,212.675609 177.377203,212.976304 C177.226139,213.278591 177.045308,213.608894 176.835028,213.970397 C176.623157,214.33174 176.428477,214.754051 176.247646,215.235418 C176.066974,215.718217 175.976559,216.260232 175.976559,216.861941 C175.976559,217.525412 176.15739,218.036546 176.518733,218.397889 C176.880236,218.759392 177.271347,219.091287 177.693498,219.391823 C178.114216,219.69411 178.506759,219.994646 178.868103,220.2955 C179.229605,220.597469 179.410277,220.988579 179.410277,221.470105 C179.410277,222.495079 179.530301,223.51878 179.771621,224.542321 C180.011667,225.567295 180.133123,226.229492 180.133123,226.530188 C180.133123,226.711019 180.282755,227.027154 180.584882,227.479072 C180.885577,227.930831 181.26268,228.413631 181.714439,228.924765 C182.166198,229.437331 182.602357,229.88909 183.024508,230.280201 C183.445386,230.672585 183.806729,230.867424 184.108857,230.867424 C184.348904,230.867424 184.500127,230.657144 184.560775,230.234834 C184.619991,229.814275 184.635591,229.301708 184.605824,228.698885 C184.574783,228.097495 184.529575,227.509954 184.47036,226.936898 C184.409711,226.365116 184.379944,225.928797 184.379944,225.62667 C184.379944,225.445839 184.409711,225.205951 184.47036,224.903664 C184.529575,224.603128 184.590383,224.271393 184.651031,223.909731 C184.710406,223.548387 184.771055,223.217925 184.831703,222.915957 C184.891078,222.615102 184.951726,222.404823 185.012534,222.283367 C185.252422,221.440497 185.613924,220.792467 186.096883,220.340549 C186.57825,219.88879 187.090816,219.497679 187.632832,219.165943 C188.175006,218.83564 188.68614,218.533513 189.168939,218.262266 C189.650465,217.991179 189.982201,217.584787 190.163032,217.042613 C190.764422,215.416089 190.825071,214.136901 190.343704,213.202184 C189.860904,212.269058 189.168939,211.561812 188.265421,211.078853 C187.361744,210.597327 186.442627,210.281191 185.509501,210.130127 C184.574783,209.980337 183.98756,209.844873 183.747513,209.723417 C183.264555,209.542745 182.647724,209.438322 181.895111,209.407281 C181.141224,209.377514 180.584882,209.422722 180.223539,209.542745 C179.921411,209.664201 179.514701,209.513137 179.003726,209.090827 C178.491159,208.670268 178.235513,208.218509 178.235513,207.73555 C178.235513,207.495503 178.371136,207.193376 178.642223,206.832032 C178.91331,206.47053 179.243613,206.095019 179.636157,205.702476 C180.027267,205.311365 180.418378,204.920254 180.810762,204.527711 C181.201872,204.13676 181.518167,203.790698 181.759647,203.488729 C182.180365,202.826532 182.586916,202.40438 182.97946,202.223709 C183.37057,202.043037 183.957793,201.591119 184.741447,200.868273 C185.10279,200.567578 185.523509,200.29649 186.006467,200.05517 C186.487834,199.815123 186.849337,199.483229 187.090816,199.061237 C187.090816,199.061237 186.849337,199.483229 187.090816,199.061237 L187.090816,199.061237 L187.090816,199.061237 Z M183.83777,234.933573 C184.741447,235.235701 185.674732,235.46158 186.638898,235.611371 C187.601791,235.762434 188.595724,235.83725 189.620858,235.83725 C193.475135,235.83725 196.879246,234.81355 199.831279,232.765034 C199.409128,232.042188 198.611466,231.576103 197.436861,231.364391 C196.262096,231.154111 195.28233,231.108903 194.500268,231.228767 C193.596591,231.350223 192.677473,231.60587 191.744188,231.99698 C190.80963,232.389524 190.041576,232.645011 189.440027,232.765034 C188.776555,232.88649 188.189173,233.036122 187.678039,233.216793 C187.165473,233.397624 186.607858,233.487881 186.006467,233.487881 C185.523509,233.548529 185.177765,233.72936 184.967326,234.030055 C184.755455,234.332183 184.379944,234.632878 183.83777,234.933573 C183.83777,234.933573 184.379944,234.632878 183.83777,234.933573 L183.83777,234.933573 L183.83777,234.933573 Z M208.144408,217.313541 C208.144408,215.266458 207.828113,213.32364 207.195682,211.485404 C206.563092,209.648601 205.689182,207.96143 204.575225,206.425322 C203.459836,204.889214 202.12,203.564978 200.554284,202.449588 C198.987136,201.335472 197.301238,200.447554 195.494202,199.784083 C194.952027,200.506929 194.710548,200.989729 194.771196,201.229775 C194.89122,202.494796 195.162307,203.26285 195.584458,203.533778 C196.005176,203.804865 196.457095,203.89544 196.939894,203.804865 C197.421261,203.714609 197.88862,203.549378 198.340379,203.307898 C198.792138,203.067852 199.108433,203.036811 199.289263,203.217642 C199.890654,203.881273 200.01211,204.453055 199.650607,204.934422 C199.289263,205.417221 198.821905,205.943955 198.250122,206.515737 C197.676907,207.088952 197.210981,207.750991 196.849479,208.503604 C196.487976,209.257491 196.607999,210.206216 197.210981,211.34994 C197.812371,212.494937 198.444961,213.262991 199.108433,213.654102 C199.77063,214.046486 200.583892,214.241484 201.548217,214.241484 C202.029584,214.241484 202.436295,214.421997 202.76803,214.783499 C203.098333,215.145002 203.369421,215.582594 203.581292,216.093728 C203.791572,216.606294 203.956803,217.118861 204.078259,217.629836 C204.198282,218.142402 204.25893,218.548953 204.25893,218.849648 C204.318305,219.21131 204.349346,219.66291 204.349346,220.205085 C204.349346,220.747259 204.318305,221.320474 204.25893,221.922023 C204.198282,222.524846 204.123466,223.127669 204.033051,223.729059 C203.942636,224.331882 203.807172,224.813408 203.6265,225.174752 C203.264997,225.897598 203.204349,226.575395 203.445669,227.207985 C203.685716,227.840575 203.956803,228.307775 204.25893,228.60847 C205.463303,227.042754 206.412028,225.296207 207.105267,223.367716 C207.797072,221.440497 208.144408,219.423023 208.144408,217.313541 L208.144408,217.313541 Z M208.144408,217.313541" sketch:type="MSShapeGroup"></path>
        </g>
    </g>
</svg>