<?xml version="1.0" encoding="UTF-8" standalone="no"?>
<svg width="375px" height="300px" viewBox="0 0 375 300" version="1.1" xmlns="http://www.w3.org/2000/svg" xmlns:xlink="http://www.w3.org/1999/xlink" xmlns:sketch="http://www.bohemiancoding.com/sketch/ns">
    <title>pro-subject-possessive</title>
    <description>Created with Sketch (http://www.bohemiancoding.com/sketch)</description>
    <defs></defs>
    <g id="Pronouns" stroke="none" stroke-width="1" fill="none" fill-rule="evenodd" sketch:type="MSPage">
        <g id="pro-subject-possessive" sketch:type="MSArtboardGroup" fill="#A85DFA">
            <path d="M295.863761,297.65969 L316.789,203.666 L263.721407,217.371616 L177.5,2 L59,298 L296,298 L295.863761,297.65969 L295.863761,297.65969 Z M167.418222,187.623 C165.097222,187.623 163.130222,185.841 162.937222,183.489 C162.876222,182.786 161.382222,167.591 147.861222,164.379 C142.693222,163.153 138.467222,164.973 134.942222,169.945 C132.015222,174.078 130.781222,178.771 130.769222,178.817 C130.163222,181.227 127.721222,182.69 125.307222,182.083 C122.896222,181.477 121.434222,179.03 122.041222,176.62 C124.310222,167.605 133.069222,151.609 149.941222,155.623 C169.920222,160.369 171.837222,181.857 171.909222,182.77 C172.104222,185.247 170.254222,187.414 167.776222,187.609 C167.656222,187.618 167.536222,187.623 167.418222,187.623 Z M185.147103,187.608484 C182.669103,187.413484 180.819103,185.246484 181.014103,182.769484 C181.086103,181.856484 183.003103,160.368484 202.981103,155.622484 C219.859103,151.612484 228.612103,167.604484 230.881103,176.619484 C231.488103,179.029484 230.025103,181.476484 227.615103,182.082484 C225.210103,182.689484 222.760103,181.226484 222.153103,178.816484 C221.973103,178.115484 217.526103,161.424484 205.061103,164.378484 C191.389103,167.626484 189.998103,183.317484 189.986103,183.476484 C189.800103,185.833484 187.830103,187.622484 185.505103,187.622484 C185.386103,187.622484 185.267103,187.617484 185.147103,187.608484 Z" id="Fill-2-copy" sketch:type="MSShapeGroup" transform="translate(187.894500, 150.000000) scale(-1, 1) translate(-187.894500, -150.000000) "></path>
        </g>
    </g>
</svg>