<?xml version="1.0" encoding="UTF-8" standalone="no"?>
<svg width="375px" height="300px" viewBox="0 0 375 300" version="1.1" xmlns="http://www.w3.org/2000/svg" xmlns:xlink="http://www.w3.org/1999/xlink" xmlns:sketch="http://www.bohemiancoding.com/sketch/ns">
    <title>pro-subject</title>
    <description>Created with Sketch (http://www.bohemiancoding.com/sketch)</description>
    <defs></defs>
    <g id="Pronouns" stroke="none" stroke-width="1" fill="none" fill-rule="evenodd" sketch:type="MSPage">
        <g id="pro-subject" sketch:type="MSArtboardGroup" fill="#A85DFA">
            <path d="M187.5,2 L306,298 L69,298 L187.5,2 Z M177.418222,187.623 C175.097222,187.623 173.130222,185.841 172.937222,183.489 C172.876222,182.786 171.382222,167.591 157.861222,164.379 C152.693222,163.153 148.467222,164.973 144.942222,169.945 C142.015222,174.078 140.781222,178.771 140.769222,178.817 C140.163222,181.227 137.721222,182.69 135.307222,182.083 C132.896222,181.477 131.434222,179.03 132.041222,176.62 C134.310222,167.605 143.069222,151.609 159.941222,155.623 C179.920222,160.369 181.837222,181.857 181.909222,182.77 C182.104222,185.247 180.254222,187.414 177.776222,187.609 C177.656222,187.618 177.536222,187.623 177.418222,187.623 Z M195.147103,187.608484 C192.669103,187.413484 190.819103,185.246484 191.014103,182.769484 C191.086103,181.856484 193.003103,160.368484 212.981103,155.622484 C229.859103,151.612484 238.612103,167.604484 240.881103,176.619484 C241.488103,179.029484 240.025103,181.476484 237.615103,182.082484 C235.210103,182.689484 232.760103,181.226484 232.153103,178.816484 C231.973103,178.115484 227.526103,161.424484 215.061103,164.378484 C201.389103,167.626484 199.998103,183.317484 199.986103,183.476484 C199.800103,185.833484 197.830103,187.622484 195.505103,187.622484 C195.386103,187.622484 195.267103,187.617484 195.147103,187.608484 Z" id="Triangle-1-copy" sketch:type="MSShapeGroup"></path>
        </g>
    </g>
</svg>