<?xml version="1.0" encoding="UTF-8" standalone="no"?>
<svg width="375px" height="300px" viewBox="0 0 375 300" version="1.1" xmlns="http://www.w3.org/2000/svg" xmlns:xlink="http://www.w3.org/1999/xlink" xmlns:sketch="http://www.bohemiancoding.com/sketch/ns">
    <title>pro-object</title>
    <description>Created with Sketch (http://www.bohemiancoding.com/sketch)</description>
    <defs></defs>
    <g id="Pronouns" stroke="none" stroke-width="1" fill="none" fill-rule="evenodd" sketch:type="MSPage">
        <g id="pro-object" sketch:type="MSArtboardGroup" fill="#A85DFA">
            <path d="M187.5,2 L306,298 L69,298 L187.5,2 Z M178.933,187.433 C177.781,187.433 176.629,186.993 175.75,186.114 L147.602,157.966 C145.845,156.209 145.845,153.359 147.602,151.602 C149.36,149.845 152.208,149.845 153.966,151.602 L182.115,179.751 C183.872,181.508 183.872,184.357 182.115,186.114 C181.236,186.993 180.084,187.433 178.933,187.433 Z M197.067,187.433 C195.915,187.433 194.764,186.993 193.885,186.114 C192.128,184.357 192.128,181.508 193.885,179.751 L222.034,151.602 C223.791,149.845 226.64,149.845 228.398,151.602 C230.155,153.359 230.155,156.209 228.398,157.966 L200.249,186.114 C199.371,186.993 198.219,187.433 197.067,187.433 Z" id="Triangle-1-copy" sketch:type="MSShapeGroup"></path>
        </g>
    </g>
</svg>