<?xml version="1.0" encoding="UTF-8" standalone="no"?>
<svg width="375px" height="300px" viewBox="0 0 375 300" version="1.1" xmlns="http://www.w3.org/2000/svg" xmlns:xlink="http://www.w3.org/1999/xlink" xmlns:sketch="http://www.bohemiancoding.com/sketch/ns">
    <title>pro-object-possessive</title>
    <description>Created with Sketch (http://www.bohemiancoding.com/sketch)</description>
    <defs></defs>
    <g id="Pronouns" stroke="none" stroke-width="1" fill="none" fill-rule="evenodd" sketch:type="MSPage">
        <g id="pro-object-possessive" sketch:type="MSArtboardGroup" fill="#A85DFA">
            <path d="M294.783375,297.458895 L295.577,298 L316.578,203.666 L262.795341,217.556294 L176.5,2 L58,298 L295,298 L294.783375,297.458895 L294.783375,297.458895 Z M167.933,187.433 C166.781,187.433 165.629,186.993 164.75,186.114 L136.602,157.966 C134.845,156.209 134.845,153.359 136.602,151.602 C138.36,149.845 141.208,149.845 142.966,151.602 L171.115,179.751 C172.872,181.508 172.872,184.357 171.115,186.114 C170.236,186.993 169.084,187.433 167.933,187.433 Z M186.067,187.433 C184.915,187.433 183.764,186.993 182.885,186.114 C181.128,184.357 181.128,181.508 182.885,179.751 L211.034,151.602 C212.791,149.845 215.64,149.845 217.398,151.602 C219.155,153.359 219.155,156.209 217.398,157.966 L189.249,186.114 C188.371,186.993 187.219,187.433 186.067,187.433 Z M186.067,187.433" id="Fill-2-copy-2" sketch:type="MSShapeGroup"></path>
        </g>
    </g>
</svg>