<?xml version="1.0" encoding="UTF-8" standalone="no"?>
<svg width="375px" height="300px" viewBox="0 0 375 300" version="1.1" xmlns="http://www.w3.org/2000/svg" xmlns:xlink="http://www.w3.org/1999/xlink" xmlns:sketch="http://www.bohemiancoding.com/sketch/ns">
    <title>verb-done</title>
    <description>Created with Sketch (http://www.bohemiancoding.com/sketch)</description>
    <defs></defs>
    <g id="Verbs-Outlines" stroke="none" stroke-width="1" fill="none" fill-rule="evenodd" sketch:type="MSPage">
        <g id="verb-done" sketch:type="MSArtboardGroup" fill="#E03232">
            <path d="M187.499901,101.826788 C132.992525,101.826788 88.8056302,146.01388 88.8056302,200.521256 C88.8056302,255.028829 132.992525,299.215725 187.499901,299.215725 C242.007672,299.215725 286.19437,255.028829 286.19437,200.521256 C286.19437,146.01388 242.007672,101.826788 187.499901,101.826788 Z M169.469799,251.919463 L204.194631,251.919463 L186.832215,278.630872 L169.469799,251.919463 Z M231.746473,195.592642 C231.746473,203.498391 230.280106,210.320185 227.347328,216.058229 C224.41455,221.796273 220.546742,226.51415 215.743786,230.212 C210.940831,233.909851 205.521648,236.630068 199.486076,238.372733 C193.450504,240.115398 187.330016,240.986718 181.124427,240.986718 L147.461405,240.986718 L147.461405,150.708611 L180.104336,150.708611 C186.47994,150.708611 192.770442,151.45242 198.976031,152.940062 C205.181619,154.427703 210.70706,156.892899 215.552519,160.335726 C220.397978,163.778552 224.30829,168.39017 227.283573,174.170718 C230.258855,179.951266 231.746473,187.091836 231.746473,195.592642 C231.746473,195.592642 231.746473,187.091836 231.746473,195.592642 Z M209.049435,195.592642 C209.049435,190.492158 208.220619,186.263071 206.562962,182.905252 C204.905305,179.547434 202.695128,176.86972 199.932366,174.872031 C197.169605,172.874342 194.024354,171.450478 190.496519,170.600397 C186.968685,169.750317 183.334645,169.325283 179.59429,169.325283 L168.755817,169.325283 L168.755817,222.115023 L179.084244,222.115023 C182.994615,222.115023 186.756165,221.668738 190.369008,220.776153 C193.98185,219.883568 197.169605,218.417201 199.932366,216.377008 C202.695128,214.336815 204.905305,211.616598 206.562962,208.216275 C208.220619,204.815953 209.049435,200.608117 209.049435,195.592642 C209.049435,195.592642 209.049435,200.608117 209.049435,195.592642 Z" id="Fill-14-copy" sketch:type="MSShapeGroup"></path>
        </g>
    </g>
</svg>