<?xml version="1.0" encoding="UTF-8" standalone="no"?>
<svg width="375px" height="300px" viewBox="0 0 375 300" version="1.1" xmlns="http://www.w3.org/2000/svg" xmlns:xlink="http://www.w3.org/1999/xlink" xmlns:sketch="http://www.bohemiancoding.com/sketch/ns">
    <title>verb-ing</title>
    <description>Created with Sketch (http://www.bohemiancoding.com/sketch)</description>
    <defs></defs>
    <g id="Verbs-Outlines" stroke="none" stroke-width="1" fill="none" fill-rule="evenodd" sketch:type="MSPage">
        <g id="verb-ing" sketch:type="MSArtboardGroup" fill="#E03232">
            <path d="M187.499901,101.826788 C132.992525,101.826788 88.8056302,146.01388 88.8056302,200.521256 C88.8056302,255.028829 132.992525,299.215725 187.499901,299.215725 C242.007672,299.215725 286.19437,255.028829 286.19437,200.521256 C286.19437,146.01388 242.007672,101.826788 187.499901,101.826788 Z M135.637959,163.59893 C135.637959,164.808732 135.399186,165.938925 134.921633,166.989542 C134.444079,168.04016 133.807351,168.947498 133.011429,169.711583 C132.215506,170.475669 131.260414,171.08056 130.146122,171.526277 C129.031831,171.971993 127.869802,172.194848 126.66,172.194848 C124.113048,172.194848 121.980009,171.351183 120.260816,169.663828 C118.541624,167.976473 117.682041,165.95486 117.682041,163.59893 C117.682041,162.452802 117.904896,161.354445 118.350612,160.303828 C118.796329,159.25321 119.433057,158.345873 120.260816,157.581787 C121.088576,156.817702 122.043668,156.196892 123.126122,155.719338 C124.208577,155.241785 125.386524,155.003012 126.66,155.003012 C127.869802,155.003012 129.031831,155.225867 130.146122,155.671583 C131.260414,156.1173 132.215506,156.722192 133.011429,157.486277 C133.807351,158.250362 134.444079,159.1577 134.921633,160.208318 C135.399186,161.258935 135.637959,162.389128 135.637959,163.59893 C135.637959,163.59893 135.637959,162.389128 135.637959,163.59893 Z M118.828163,226.349134 L118.828163,178.785052 L134.491837,178.785052 L134.491837,226.349134 L118.828163,226.349134 Z M178.14,226.349134 L178.14,200.370359 C178.14,199.033209 178.028573,197.759752 177.805714,196.54995 C177.582856,195.340148 177.216737,194.273629 176.707347,193.350359 C176.197957,192.427089 175.481637,191.694851 174.558367,191.153624 C173.635097,190.612397 172.473068,190.341787 171.072245,190.341787 C169.671422,190.341787 168.44572,190.612397 167.395102,191.153624 C166.344485,191.694851 165.468983,192.443007 164.768571,193.398114 C164.06816,194.353221 163.542859,195.451577 163.192653,196.693216 C162.842447,197.934855 162.667347,199.224229 162.667347,200.561379 L162.667347,226.349134 L146.908163,226.349134 L146.908163,178.785052 L162.094286,178.785052 L162.094286,185.375257 L162.285306,185.375257 C162.85837,184.356476 163.606526,183.353629 164.529796,182.366685 C165.453066,181.379741 166.535504,180.536076 167.777143,179.835665 C169.018782,179.135253 170.371829,178.562198 171.836327,178.116481 C173.300824,177.670765 174.860808,177.44791 176.516327,177.44791 C179.700016,177.44791 182.406111,178.020965 184.634694,179.167093 C186.863276,180.313221 188.662034,181.793615 190.03102,183.608318 C191.400007,185.423021 192.386936,187.508306 192.991837,189.864236 C193.596738,192.220166 193.899184,194.576061 193.899184,196.931991 L193.899184,226.349134 L178.14,226.349134 Z M256.171837,221.860155 C256.171837,226.508341 255.503272,230.551566 254.166122,233.98995 C252.828973,237.428335 250.950624,240.277694 248.53102,242.538114 C246.111416,244.798533 243.166548,246.485863 239.696327,247.600155 C236.226105,248.714446 232.389817,249.271583 228.187347,249.271583 C223.984877,249.271583 219.671043,248.634855 215.245714,247.361379 C210.820386,246.087903 206.984098,244.241391 203.736735,241.821787 L211.568571,230.647093 C213.860828,232.684654 216.391823,234.196884 219.161633,235.183828 C221.931442,236.170772 224.653456,236.664236 227.327755,236.664236 C231.912268,236.664236 235.302846,235.454452 237.499592,233.034848 C239.696338,230.615244 240.794694,227.399766 240.794694,223.388318 L240.794694,220.523012 L240.508163,220.523012 C239.043666,222.433225 237.069808,223.961373 234.586531,225.107501 C232.103253,226.25363 229.269812,226.826685 226.086122,226.826685 C222.456717,226.826685 219.241238,226.174039 216.439592,224.868726 C213.637945,223.563413 211.266132,221.796492 209.324082,219.56791 C207.382031,217.339327 205.901638,214.744659 204.882857,211.783828 C203.864077,208.822997 203.354694,205.68711 203.354694,202.376073 C203.354694,199.065036 203.864077,195.913231 204.882857,192.920563 C205.901638,189.927895 207.382031,187.285472 209.324082,184.993216 C211.266132,182.700959 213.637945,180.870365 216.439592,179.501379 C219.241238,178.132393 222.42488,177.44791 225.990612,177.44791 C228.98328,177.44791 231.848558,178.052802 234.586531,179.262603 C237.324503,180.472405 239.521216,182.350754 241.176735,184.897706 L241.367755,184.897706 L241.367755,178.785052 L256.171837,178.785052 L256.171837,221.860155 Z M240.460408,197.696073 C239.919181,196.231576 239.139189,194.942201 238.120408,193.82791 C237.101628,192.713618 235.891844,191.838117 234.49102,191.201379 C233.090197,190.564641 231.498376,190.246277 229.71551,190.246277 C227.932644,190.246277 226.356742,190.564641 224.987755,191.201379 C223.618769,191.838117 222.456739,192.6977 221.501633,193.780155 C220.546526,194.862609 219.814288,196.136066 219.304898,197.600563 C218.795508,199.06506 218.540816,200.625044 218.540816,202.280563 C218.540816,203.872407 218.795508,205.400555 219.304898,206.865052 C219.814288,208.32955 220.546526,209.618924 221.501633,210.733216 C222.456739,211.847507 223.618769,212.738927 224.987755,213.407501 C226.356742,214.076076 227.932644,214.410359 229.71551,214.410359 C231.498376,214.410359 233.106115,214.076076 234.538776,213.407501 C235.971436,212.738927 237.18122,211.863425 238.168163,210.780971 C239.155107,209.698516 239.919181,208.42506 240.460408,206.960563 C241.001635,205.496066 241.272245,203.936081 241.272245,202.280563 C241.272245,200.688718 241.001635,199.16057 240.460408,197.696073 Z" id="Fill-14-copy" sketch:type="MSShapeGroup"></path>
        </g>
    </g>
</svg>