<?xml version="1.0" encoding="UTF-8" standalone="no"?>
<svg width="375px" height="300px" viewBox="0 0 375 300" version="1.1" xmlns="http://www.w3.org/2000/svg" xmlns:xlink="http://www.w3.org/1999/xlink" xmlns:sketch="http://www.bohemiancoding.com/sketch/ns">
    <title>verb-do</title>
    <description>Created with Sketch (http://www.bohemiancoding.com/sketch)</description>
    <defs></defs>
    <g id="Verbs-Outlines" stroke="none" stroke-width="1" fill="none" fill-rule="evenodd" sketch:type="MSPage">
        <g id="verb-do" sketch:type="MSArtboardGroup" fill="#E03232">
            <path d="M187.499901,101.826788 C132.992525,101.826788 88.8056302,146.01388 88.8056302,200.521256 C88.8056302,255.028829 132.992525,299.215725 187.499901,299.215725 C242.007672,299.215725 286.19437,255.028829 286.19437,200.521256 C286.19437,146.01388 242.007672,101.826788 187.499901,101.826788 Z M145.42953,245.241611 L180.154362,245.241611 L162.791946,271.95302 L145.42953,245.241611 Z M192.174497,245.241611 L226.899329,245.241611 L209.536913,271.95302 L192.174497,245.241611 Z M231.746473,188.914789 C231.746473,196.820539 230.280106,203.642333 227.347328,209.380377 C224.41455,215.118421 220.546742,219.836298 215.743786,223.534148 C210.940831,227.231999 205.521648,229.952216 199.486076,231.694881 C193.450504,233.437546 187.330016,234.308866 181.124427,234.308866 L147.461405,234.308866 L147.461405,144.030759 L180.104336,144.030759 C186.47994,144.030759 192.770442,144.774568 198.976031,146.262209 C205.181619,147.74985 210.70706,150.215047 215.552519,153.657873 C220.397978,157.1007 224.30829,161.712318 227.283573,167.492866 C230.258855,173.273414 231.746473,180.413983 231.746473,188.914789 C231.746473,188.914789 231.746473,180.413983 231.746473,188.914789 Z M209.049435,188.914789 C209.049435,183.814306 208.220619,179.585218 206.562962,176.2274 C204.905305,172.869582 202.695128,170.191868 199.932366,168.194179 C197.169605,166.196489 194.024354,164.772626 190.496519,163.922545 C186.968685,163.072464 183.334645,162.647431 179.59429,162.647431 L168.755817,162.647431 L168.755817,215.437171 L179.084244,215.437171 C182.994615,215.437171 186.756165,214.990885 190.369008,214.098301 C193.98185,213.205716 197.169605,211.739349 199.932366,209.699156 C202.695128,207.658962 204.905305,204.938745 206.562962,201.538423 C208.220619,198.138101 209.049435,193.930265 209.049435,188.914789 C209.049435,188.914789 209.049435,193.930265 209.049435,188.914789 Z" id="Fill-14-copy" sketch:type="MSShapeGroup"></path>
        </g>
    </g>
</svg>