<?xml version="1.0" encoding="UTF-8" standalone="no"?>
<svg width="375px" height="300px" viewBox="0 0 375 300" version="1.1" xmlns="http://www.w3.org/2000/svg" xmlns:xlink="http://www.w3.org/1999/xlink" xmlns:sketch="http://www.bohemiancoding.com/sketch/ns">
    <title>verb-should2</title>
    <description>Created with Sketch (http://www.bohemiancoding.com/sketch)</description>
    <defs></defs>
    <g id="Verbs-Outlines" stroke="none" stroke-width="1" fill="none" fill-rule="evenodd" sketch:type="MSPage">
        <g id="verb-should2" sketch:type="MSArtboardGroup" fill="#E03232">
            <path d="M187.499901,101.826788 C132.992525,101.826788 88.8056302,146.01388 88.8056302,200.521256 C88.8056302,255.028829 132.992525,299.215725 187.499901,299.215725 C242.007672,299.215725 286.19437,255.028829 286.19437,200.521256 C286.19437,146.01388 242.007672,101.826788 187.499901,101.826788 Z M206.817985,178.177429 C204.947807,175.797204 202.503862,173.905803 199.486076,172.50317 C196.46829,171.100537 193.556808,170.399231 190.751542,170.399231 C189.306405,170.399231 187.840038,170.526741 186.352397,170.781765 C184.864756,171.036789 183.525899,171.525578 182.335786,172.248147 C181.145673,172.970715 180.146844,173.90579 179.339267,175.053399 C178.531691,176.201008 178.127908,177.667375 178.127908,179.452544 C178.127908,180.982689 178.446684,182.257791 179.084244,183.277887 C179.721805,184.297984 180.656879,185.190555 181.889496,185.955628 C183.122113,186.7207 184.58848,187.422006 186.288641,188.059567 C187.988802,188.697127 189.901455,189.35593 192.026656,190.035994 C195.086947,191.056091 198.274701,192.182431 201.590015,193.415048 C204.90533,194.647665 207.92307,196.284045 210.643328,198.324239 C213.363586,200.364432 215.616266,202.893384 217.401435,205.91117 C219.186604,208.928956 220.079176,212.690506 220.079176,217.195933 C220.079176,222.381425 219.122849,226.865533 217.210168,230.648391 C215.297487,234.43125 212.726031,237.555249 209.495725,240.020483 C206.265419,242.485717 202.567624,244.313362 198.402229,245.503475 C194.236834,246.693588 189.943992,247.288636 185.523573,247.288636 C179.06296,247.288636 172.814961,246.162296 166.779389,243.909582 C160.743817,241.656869 155.728417,238.447862 151.733038,234.282468 L166.014321,219.746162 C168.22453,222.46642 171.136012,224.740352 174.748855,226.568025 C178.361697,228.395698 181.953234,229.309521 185.523573,229.309521 C187.138726,229.309521 188.711351,229.139507 190.241496,228.799475 C191.771641,228.459443 193.110498,227.906899 194.258107,227.141826 C195.405716,226.376754 196.319539,225.356672 196.999603,224.081552 C197.679668,222.806431 198.019695,221.276309 198.019695,219.491139 C198.019695,217.790978 197.594661,216.345863 196.74458,215.15575 C195.8945,213.965637 194.683153,212.881801 193.110504,211.904208 C191.537855,210.926615 189.582699,210.034044 187.244977,209.226468 C184.907255,208.418891 182.250794,207.547571 179.275511,206.612483 C176.385237,205.677394 173.558762,204.572306 170.796,203.297185 C168.033238,202.022064 165.568041,200.385684 163.400336,198.387994 C161.23263,196.390305 159.489991,193.967612 158.172366,191.119842 C156.854742,188.272072 156.195939,184.808045 156.195939,180.727658 C156.195939,175.712183 157.21602,171.41934 159.256214,167.849002 C161.296407,164.278663 163.974121,161.345929 167.289435,159.050712 C170.604749,156.755494 174.345048,155.07661 178.510443,154.01401 C182.675838,152.951409 186.883673,152.420116 191.134076,152.420116 C196.23456,152.420116 201.441225,153.355191 206.754229,155.225368 C212.067233,157.095546 216.721354,159.858266 220.716733,163.513613 C220.716733,163.513613 216.721354,159.858266 220.716733,163.513613 L206.817985,178.177429 Z" id="Fill-14-copy" sketch:type="MSShapeGroup"></path>
        </g>
    </g>
</svg>