<?xml version="1.0" encoding="UTF-8" standalone="no"?>
<svg width="375px" height="300px" viewBox="0 0 375 300" version="1.1" xmlns="http://www.w3.org/2000/svg" xmlns:xlink="http://www.w3.org/1999/xlink" xmlns:sketch="http://www.bohemiancoding.com/sketch/ns">
    <title>verb-did</title>
    <description>Created with Sketch (http://www.bohemiancoding.com/sketch)</description>
    <defs></defs>
    <g id="Verbs-Copy" stroke="none" stroke-width="1" fill="none" fill-rule="evenodd" sketch:type="MSPage">
        <g id="verb-did" sketch:type="MSArtboardGroup" fill="#E03232">
            <path d="M183.974094,101.826788 C129.206949,101.826788 84.8094696,146.01388 84.8094696,200.521256 C84.8094696,255.028829 129.206949,299.215725 183.974094,299.215725 C238.741636,299.215725 283.138917,255.028829 283.138917,200.521256 C283.138917,146.01388 238.741636,101.826788 183.974094,101.826788 Z M137.613769,178.380342 L137.613769,213.270665 L110.90236,195.825503 L137.613769,178.380342 Z M236.27228,195.592642 C236.27228,203.498391 234.805913,210.320185 231.873135,216.058229 C228.940357,221.796273 225.072548,226.51415 220.269593,230.212 C215.466637,233.909851 210.047455,236.630068 204.011883,238.372733 C197.976311,240.115398 191.855822,240.986718 185.650234,240.986718 L151.987211,240.986718 L151.987211,150.708611 L184.630142,150.708611 C191.005747,150.708611 197.296249,151.45242 203.501837,152.940062 C209.707425,154.427703 215.232866,156.892899 220.078326,160.335726 C224.923785,163.778552 228.834097,168.39017 231.809379,174.170718 C234.784661,179.951266 236.27228,187.091836 236.27228,195.592642 C236.27228,195.592642 236.27228,187.091836 236.27228,195.592642 Z M213.575242,195.592642 C213.575242,190.492158 212.746425,186.263071 211.088768,182.905252 C209.431111,179.547434 207.220935,176.86972 204.458173,174.872031 C201.695411,172.874342 198.55016,171.450478 195.022326,170.600397 C191.494491,169.750317 187.860451,169.325283 184.120097,169.325283 L173.281623,169.325283 L173.281623,222.115023 L183.610051,222.115023 C187.520421,222.115023 191.281972,221.668738 194.894814,220.776153 C198.507657,219.883568 201.695411,218.417201 204.458173,216.377008 C207.220935,214.336815 209.431111,211.616598 211.088768,208.216275 C212.746425,204.815953 213.575242,200.608117 213.575242,195.592642 C213.575242,195.592642 213.575242,200.608117 213.575242,195.592642 Z M213.575242,195.592642" id="Fill-14-copy" sketch:type="MSShapeGroup"></path>
        </g>
    </g>
</svg>