<?xml version="1.0" encoding="UTF-8" standalone="no"?>
<svg width="375px" height="300px" viewBox="0 0 375 300" version="1.1" xmlns="http://www.w3.org/2000/svg" xmlns:xlink="http://www.w3.org/1999/xlink" xmlns:sketch="http://www.bohemiancoding.com/sketch/ns">
    <title>verb-could</title>
    <description>Created with Sketch (http://www.bohemiancoding.com/sketch)</description>
    <defs></defs>
    <g id="Verbs-Outlines" stroke="none" stroke-width="1" fill="none" fill-rule="evenodd" sketch:type="MSPage">
        <g id="verb-could" sketch:type="MSArtboardGroup" fill="#E03232">
            <path d="M191.344057,101.826788 C136.751308,101.826788 92.4952037,146.01388 92.4952037,200.521256 C92.4952037,255.028829 136.751308,299.215725 191.344057,299.215725 C245.937202,299.215725 290.193108,255.028829 290.193108,200.521256 C290.193108,146.01388 245.937202,101.826788 191.344057,101.826788 Z M229.029829,232.497307 C225.03445,237.087742 220.104057,240.721782 214.238501,243.399536 C208.372945,246.07729 201.614905,247.416147 193.96418,247.416147 C186.993519,247.416147 180.554255,246.268555 174.646195,243.973338 C168.738135,241.67812 163.616477,238.426611 159.281066,234.218712 C154.945655,230.010813 151.545383,224.974161 149.080149,219.108605 C146.614916,213.243049 145.382317,206.782533 145.382317,199.726865 C145.382317,192.50118 146.636167,185.955657 149.143905,180.090101 C151.651643,174.224545 155.115669,169.230397 159.536088,165.107506 C163.956507,160.984615 169.141921,157.818112 175.092485,155.607903 C181.043049,153.397693 187.461062,152.292605 194.346714,152.292605 C200.722319,152.292605 206.991569,153.418945 213.154653,155.671658 C219.317738,157.924372 224.311886,161.218385 228.137249,165.553796 L213.34592,180.345124 C211.305727,177.539858 208.628013,175.457192 205.312699,174.097063 C201.997385,172.736934 198.597113,172.05688 195.111783,172.05688 C191.28642,172.05688 187.779891,172.758186 184.592088,174.160819 C181.404286,175.563452 178.662817,177.497356 176.3676,179.96259 C174.072382,182.427823 172.28724,185.339306 171.012119,188.697124 C169.736998,192.054942 169.099447,195.731486 169.099447,199.726865 C169.099447,203.807251 169.736998,207.54755 171.012119,210.947872 C172.28724,214.348194 174.051131,217.259677 176.303844,219.682407 C178.556558,222.105136 181.255523,223.996537 184.400821,225.356666 C187.546119,226.716795 190.988894,227.396849 194.729249,227.396849 C199.06466,227.396849 202.847462,226.546781 206.077768,224.84662 C209.308074,223.146459 211.900781,220.936283 213.855966,218.216025 C213.855966,218.216025 211.900781,220.936283 213.855966,218.216025 L229.029829,232.497307 Z" id="Fill-14-copy" sketch:type="MSShapeGroup"></path>
        </g>
    </g>
</svg>