<?xml version="1.0" encoding="UTF-8" standalone="no"?>
<svg width="375px" height="300px" viewBox="0 0 375 300" version="1.1" xmlns="http://www.w3.org/2000/svg" xmlns:xlink="http://www.w3.org/1999/xlink" xmlns:sketch="http://www.bohemiancoding.com/sketch/ns">
    <title>verb-being</title>
    <description>Created with Sketch (http://www.bohemiancoding.com/sketch)</description>
    <defs></defs>
    <g id="Verbs-Outlines" stroke="none" stroke-width="1" fill="none" fill-rule="evenodd" sketch:type="MSPage">
        <g id="verb-being" sketch:type="MSArtboardGroup" fill="#E03232">
            <path d="M187.499901,101.826788 C132.992525,101.826788 88.8056302,146.01388 88.8056302,200.521256 C88.8056302,255.028829 132.992525,299.215725 187.499901,299.215725 C242.007672,299.215725 286.19437,255.028829 286.19437,200.521256 C286.19437,146.01388 242.007672,101.826788 187.499901,101.826788 Z M140.6835,204.540134 C140.6835,206.585478 140.368836,208.552125 139.7395,210.440134 C139.110164,212.328144 138.195673,213.98996 136.996,215.425634 C135.796327,216.861308 134.331175,218.011796 132.6005,218.877134 C130.869825,219.742472 128.903178,220.175134 126.7005,220.175134 C124.733823,220.175134 122.875342,219.771971 121.125,218.965634 C119.374658,218.159297 118.027505,217.008808 117.0835,215.514134 L116.9655,215.514134 L116.9655,219.349134 L108.0565,219.349134 L108.0565,174.745134 L117.7325,174.745134 L117.7325,193.094134 L117.8505,193.094134 C118.676504,192.110796 119.836826,191.206138 121.3315,190.380134 C122.826174,189.55413 124.655156,189.141134 126.8185,189.141134 C128.942511,189.141134 130.859991,189.55413 132.571,190.380134 C134.282009,191.206138 135.737327,192.327127 136.937,193.743134 C138.136673,195.159141 139.060997,196.801291 139.71,198.669634 C140.359003,200.537977 140.6835,202.494791 140.6835,204.540134 Z M131.3615,204.540134 C131.3615,203.596129 131.214001,202.671805 130.919,201.767134 C130.623999,200.862463 130.181503,200.065971 129.5915,199.377634 C129.001497,198.689297 128.273838,198.128803 127.4085,197.696134 C126.543162,197.263465 125.540172,197.047134 124.3995,197.047134 C123.298161,197.047134 122.314838,197.263465 121.4495,197.696134 C120.584162,198.128803 119.84667,198.699131 119.237,199.407134 C118.62733,200.115138 118.155335,200.921463 117.821,201.826134 C117.486665,202.730805 117.3195,203.655129 117.3195,204.599134 C117.3195,205.543139 117.486665,206.467463 117.821,207.372134 C118.155335,208.276805 118.62733,209.083131 119.237,209.791134 C119.84667,210.499138 120.584162,211.069465 121.4495,211.502134 C122.314838,211.934803 123.298161,212.151134 124.3995,212.151134 C125.540172,212.151134 126.543162,211.934803 127.4085,211.502134 C128.273838,211.069465 129.001497,210.499138 129.5915,209.791134 C130.181503,209.083131 130.623999,208.266972 130.919,207.342634 C131.214001,206.418296 131.3615,205.484139 131.3615,204.540134 Z M167.0565,201.295134 C167.0565,199.761126 166.574671,198.443473 165.611,197.342134 C164.647329,196.240795 163.201843,195.690134 161.2745,195.690134 C160.330495,195.690134 159.465171,195.837633 158.6785,196.132634 C157.891829,196.427636 157.203503,196.830798 156.6135,197.342134 C156.023497,197.85347 155.551502,198.453297 155.1975,199.141634 C154.843498,199.829971 154.646834,200.547797 154.6075,201.295134 L167.0565,201.295134 Z M175.9655,205.012134 L175.9655,206.192134 C175.9655,206.585469 175.945834,206.959132 175.9065,207.313134 L154.6075,207.313134 C154.686167,208.139138 154.931998,208.886464 155.345,209.555134 C155.758002,210.223804 156.288997,210.803965 156.938,211.295634 C157.587003,211.787303 158.314663,212.170799 159.121,212.446134 C159.927337,212.721469 160.763162,212.859134 161.6285,212.859134 C163.162508,212.859134 164.460495,212.57397 165.5225,212.003634 C166.584505,211.433298 167.44983,210.695805 168.1185,209.791134 L174.8445,214.039134 C173.467826,216.045144 171.648678,217.588962 169.387,218.670634 C167.125322,219.752306 164.499848,220.293134 161.5105,220.293134 C159.307822,220.293134 157.223176,219.948971 155.2565,219.260634 C153.289823,218.572297 151.569007,217.569307 150.094,216.251634 C148.618993,214.933961 147.458671,213.311477 146.613,211.384134 C145.767329,209.456791 145.3445,207.254146 145.3445,204.776134 C145.3445,202.376789 145.757496,200.203644 146.5835,198.256634 C147.409504,196.309624 148.530493,194.657641 149.9465,193.300634 C151.362507,191.943627 153.034157,190.891471 154.9615,190.144134 C156.888843,189.396797 158.973489,189.023134 161.2155,189.023134 C163.378844,189.023134 165.365158,189.386964 167.1745,190.114634 C168.983842,190.842304 170.537494,191.894461 171.8355,193.271134 C173.133506,194.647808 174.14633,196.319458 174.874,198.286134 C175.60167,200.252811 175.9655,202.494788 175.9655,205.012134 Z M192.4855,180.586134 C192.4855,181.333471 192.338001,182.031631 192.043,182.680634 C191.747999,183.329637 191.354669,183.890132 190.863,184.362134 C190.371331,184.834136 189.781337,185.207799 189.093,185.483134 C188.404663,185.758469 187.686837,185.896134 186.9395,185.896134 C185.366159,185.896134 184.048505,185.374973 182.9865,184.332634 C181.924495,183.290296 181.3935,182.041475 181.3935,180.586134 C181.3935,179.878131 181.531165,179.199637 181.8065,178.550634 C182.081835,177.901631 182.475164,177.341136 182.9865,176.869134 C183.497836,176.397132 184.08783,176.013636 184.7565,175.718634 C185.42517,175.423633 186.152829,175.276134 186.9395,175.276134 C187.686837,175.276134 188.404663,175.413799 189.093,175.689134 C189.781337,175.964469 190.371331,176.338132 190.863,176.810134 C191.354669,177.282136 191.747999,177.842631 192.043,178.491634 C192.338001,179.140637 192.4855,179.838797 192.4855,180.586134 Z M182.1015,219.349134 L182.1015,189.967134 L191.7775,189.967134 L191.7775,219.349134 L182.1015,219.349134 Z M218.7405,219.349134 L218.7405,203.301134 C218.7405,202.47513 218.671667,201.688471 218.534,200.941134 C218.396333,200.193797 218.170168,199.53497 217.8555,198.964634 C217.540832,198.394298 217.098336,197.941969 216.528,197.607634 C215.957664,197.273299 215.239838,197.106134 214.3745,197.106134 C213.509162,197.106134 212.752003,197.273299 212.103,197.607634 C211.453997,197.941969 210.913169,198.404131 210.4805,198.994134 C210.047831,199.584137 209.723334,200.26263 209.507,201.029634 C209.290666,201.796638 209.1825,202.59313 209.1825,203.419134 L209.1825,219.349134 L199.4475,219.349134 L199.4475,189.967134 L208.8285,189.967134 L208.8285,194.038134 L208.9465,194.038134 C209.300502,193.408798 209.762664,192.789304 210.333,192.179634 C210.903336,191.569964 211.571996,191.048803 212.339,190.616134 C213.106004,190.183465 213.941829,189.829469 214.8465,189.554134 C215.751171,189.278799 216.714828,189.141134 217.7375,189.141134 C219.704176,189.141134 221.375826,189.495131 222.7525,190.203134 C224.129174,190.911138 225.240329,191.825628 226.086,192.946634 C226.931671,194.06764 227.541331,195.355793 227.915,196.811134 C228.288669,198.266475 228.4755,199.721793 228.4755,201.177134 L228.4755,219.349134 L218.7405,219.349134 Z M266.9435,216.576134 C266.9435,219.447482 266.530504,221.945123 265.7045,224.069134 C264.878496,226.193145 263.718174,227.953294 262.2235,229.349634 C260.728826,230.745974 258.909677,231.788297 256.766,232.476634 C254.622323,233.164971 252.252513,233.509134 249.6565,233.509134 C247.060487,233.509134 244.39568,233.115805 241.662,232.329134 C238.92832,231.542463 236.55851,230.401808 234.5525,228.907134 L239.3905,222.004134 C240.806507,223.262807 242.369991,224.196964 244.081,224.806634 C245.792009,225.416304 247.473492,225.721134 249.1255,225.721134 C251.957514,225.721134 254.051993,224.973808 255.409,223.479134 C256.766007,221.98446 257.4445,219.998146 257.4445,217.520134 L257.4445,215.750134 L257.2675,215.750134 C256.362829,216.93014 255.143508,217.874131 253.6095,218.582134 C252.075492,219.290138 250.325176,219.644134 248.3585,219.644134 C246.116489,219.644134 244.130175,219.240971 242.3995,218.434634 C240.668825,217.628297 239.203673,216.536808 238.004,215.160134 C236.804327,213.783461 235.889836,212.180643 235.2605,210.351634 C234.631164,208.522625 234.3165,206.585478 234.3165,204.540134 C234.3165,202.494791 234.631164,200.54781 235.2605,198.699134 C235.889836,196.850458 236.804327,195.218141 238.004,193.802134 C239.203673,192.386127 240.668825,191.255305 242.3995,190.409634 C244.130175,189.563963 246.096822,189.141134 248.2995,189.141134 C250.148176,189.141134 251.918158,189.514797 253.6095,190.262134 C255.300842,191.009471 256.657828,192.169793 257.6805,193.743134 L257.7985,193.743134 L257.7985,189.967134 L266.9435,189.967134 L266.9435,216.576134 Z M257.7395,204.481134 C257.7395,203.497796 257.572335,202.553805 257.238,201.649134 C256.903665,200.744463 256.421836,199.947971 255.7925,199.259634 C255.163164,198.571297 254.415838,198.030469 253.5505,197.637134 C252.685162,197.243799 251.701839,197.047134 250.6005,197.047134 C249.499161,197.047134 248.525671,197.243799 247.68,197.637134 C246.834329,198.030469 246.116503,198.561464 245.5265,199.230134 C244.936497,199.898804 244.484168,200.685463 244.1695,201.590134 C243.854832,202.494805 243.6975,203.458462 243.6975,204.481134 C243.6975,205.464472 243.854832,206.408463 244.1695,207.313134 C244.484168,208.217805 244.936497,209.014297 245.5265,209.702634 C246.116503,210.390971 246.834329,210.941632 247.68,211.354634 C248.525671,211.767636 249.499161,211.974134 250.6005,211.974134 C251.701839,211.974134 252.694996,211.767636 253.58,211.354634 C254.465004,210.941632 255.21233,210.400804 255.822,209.732134 C256.43167,209.063464 256.903665,208.276805 257.238,207.372134 C257.572335,206.467463 257.7395,205.503806 257.7395,204.481134 Z" id="Fill-14-copy" sketch:type="MSShapeGroup"></path>
        </g>
    </g>
</svg>