<?xml version="1.0" encoding="UTF-8" standalone="no"?>
<svg width="375px" height="300px" viewBox="0 0 375 300" version="1.1" xmlns="http://www.w3.org/2000/svg" xmlns:xlink="http://www.w3.org/1999/xlink" xmlns:sketch="http://www.bohemiancoding.com/sketch/ns">
    <title>verb-been</title>
    <description>Created with Sketch (http://www.bohemiancoding.com/sketch)</description>
    <defs></defs>
    <g id="Verbs-Outlines" stroke="none" stroke-width="1" fill="none" fill-rule="evenodd" sketch:type="MSPage">
        <g id="verb-been" sketch:type="MSArtboardGroup" fill="#E03232">
            <path d="M187.499901,101.826788 C132.992525,101.826788 88.8056302,146.01388 88.8056302,200.521256 C88.8056302,255.028829 132.992525,299.215725 187.499901,299.215725 C242.007672,299.215725 286.19437,255.028829 286.19437,200.521256 C286.19437,146.01388 242.007672,101.826788 187.499901,101.826788 Z M148.70194,202.358819 C148.70194,204.577497 148.36061,206.710809 147.67794,208.758819 C146.99527,210.806829 146.00328,212.609478 144.70194,214.166819 C143.4006,215.72416 141.811283,216.972147 139.93394,217.910819 C138.056598,218.84949 135.923286,219.318819 133.53394,219.318819 C131.400596,219.318819 129.384616,218.88149 127.48594,218.006819 C125.587264,217.132148 124.125945,215.88416 123.10194,214.262819 L122.97394,214.262819 L122.97394,218.422819 L113.30994,218.422819 L113.30994,170.038819 L123.80594,170.038819 L123.80594,189.942819 L123.93394,189.942819 C124.829945,188.876147 126.088599,187.894823 127.70994,186.998819 C129.331282,186.102814 131.315262,185.654819 133.66194,185.654819 C135.965952,185.654819 138.045931,186.102814 139.90194,186.998819 C141.75795,187.894823 143.3366,189.110811 144.63794,190.646819 C145.93928,192.182826 146.941937,193.964142 147.64594,195.990819 C148.349944,198.017496 148.70194,200.140141 148.70194,202.358819 C148.70194,202.358819 148.70194,200.140141 148.70194,202.358819 Z M138.58994,202.358819 C138.58994,201.334814 138.429942,200.332157 138.10994,199.350819 C137.789939,198.369481 137.309944,197.505489 136.66994,196.758819 C136.029937,196.012148 135.240612,195.404154 134.30194,194.934819 C133.363269,194.465483 132.27528,194.230819 131.03794,194.230819 C129.843268,194.230819 128.776612,194.465483 127.83794,194.934819 C126.899269,195.404154 126.099277,196.022815 125.43794,196.790819 C124.776604,197.558823 124.264609,198.433481 123.90194,199.414819 C123.539272,200.396157 123.35794,201.398814 123.35794,202.422819 C123.35794,203.446824 123.539272,204.449481 123.90194,205.430819 C124.264609,206.412157 124.776604,207.286815 125.43794,208.054819 C126.099277,208.822823 126.899269,209.441483 127.83794,209.910819 C128.776612,210.380154 129.843268,210.614819 131.03794,210.614819 C132.27528,210.614819 133.363269,210.380154 134.30194,209.910819 C135.240612,209.441483 136.029937,208.822823 136.66994,208.054819 C137.309944,207.286815 137.789939,206.40149 138.10994,205.398819 C138.429942,204.396147 138.58994,203.382824 138.58994,202.358819 C138.58994,202.358819 138.58994,203.382824 138.58994,202.358819 Z M177.30994,198.838819 C177.30994,197.17481 176.787279,195.745491 175.74194,194.550819 C174.696602,193.356146 173.128617,192.758819 171.03794,192.758819 C170.013935,192.758819 169.075278,192.918817 168.22194,193.238819 C167.368603,193.55882 166.621944,193.996149 165.98194,194.550819 C165.341937,195.105488 164.829942,195.756148 164.44594,196.502819 C164.061938,197.249489 163.848607,198.028148 163.80594,198.838819 C163.80594,198.838819 163.848607,198.028148 163.80594,198.838819 L177.30994,198.838819 Z M186.97394,202.870819 L186.97394,204.150819 C186.97394,204.577488 186.952607,204.982817 186.90994,205.366819 L163.80594,205.366819 C163.891274,206.262823 164.157938,207.073482 164.60594,207.798819 C165.053943,208.524156 165.629937,209.153483 166.33394,209.686819 C167.037944,210.220155 167.827269,210.636151 168.70194,210.934819 C169.576611,211.233487 170.483269,211.382819 171.42194,211.382819 C173.085949,211.382819 174.493935,211.073489 175.64594,210.454819 C176.797946,209.836149 177.736603,209.036157 178.46194,208.054819 L185.75794,212.662819 C184.2646,214.83883 182.291286,216.51348 179.83794,217.686819 C177.384595,218.860158 174.536623,219.446819 171.29394,219.446819 C168.904595,219.446819 166.643284,219.073489 164.50994,218.326819 C162.376596,217.580148 160.509948,216.492159 158.90994,215.062819 C157.309932,213.633478 156.051278,211.873496 155.13394,209.782819 C154.216602,207.692142 153.75794,205.302832 153.75794,202.614819 C153.75794,200.012139 154.205936,197.654829 155.10194,195.542819 C155.997945,193.430808 157.213933,191.638826 158.74994,190.166819 C160.285948,188.694811 162.099263,187.55349 164.18994,186.742819 C166.280617,185.932148 168.541928,185.526819 170.97394,185.526819 C173.320619,185.526819 175.475264,185.921482 177.43794,186.710819 C179.400617,187.500156 181.085933,188.641478 182.49394,190.134819 C183.901947,191.62816 185.000603,193.441475 185.78994,195.574819 C186.579278,197.708163 186.97394,200.140138 186.97394,202.870819 C186.97394,202.870819 186.97394,200.140138 186.97394,202.870819 Z M215.45394,198.838819 C215.45394,197.17481 214.931279,195.745491 213.88594,194.550819 C212.840602,193.356146 211.272617,192.758819 209.18194,192.758819 C208.157935,192.758819 207.219278,192.918817 206.36594,193.238819 C205.512603,193.55882 204.765944,193.996149 204.12594,194.550819 C203.485937,195.105488 202.973942,195.756148 202.58994,196.502819 C202.205938,197.249489 201.992607,198.028148 201.94994,198.838819 C201.94994,198.838819 201.992607,198.028148 201.94994,198.838819 L215.45394,198.838819 Z M225.11794,202.870819 L225.11794,204.150819 C225.11794,204.577488 225.096607,204.982817 225.05394,205.366819 L201.94994,205.366819 C202.035274,206.262823 202.301938,207.073482 202.74994,207.798819 C203.197943,208.524156 203.773937,209.153483 204.47794,209.686819 C205.181944,210.220155 205.971269,210.636151 206.84594,210.934819 C207.720611,211.233487 208.627269,211.382819 209.56594,211.382819 C211.229949,211.382819 212.637935,211.073489 213.78994,210.454819 C214.941946,209.836149 215.880603,209.036157 216.60594,208.054819 L223.90194,212.662819 C222.4086,214.83883 220.435286,216.51348 217.98194,217.686819 C215.528595,218.860158 212.680623,219.446819 209.43794,219.446819 C207.048595,219.446819 204.787284,219.073489 202.65394,218.326819 C200.520596,217.580148 198.653948,216.492159 197.05394,215.062819 C195.453932,213.633478 194.195278,211.873496 193.27794,209.782819 C192.360602,207.692142 191.90194,205.302832 191.90194,202.614819 C191.90194,200.012139 192.349936,197.654829 193.24594,195.542819 C194.141945,193.430808 195.357933,191.638826 196.89394,190.166819 C198.429948,188.694811 200.243263,187.55349 202.33394,186.742819 C204.424617,185.932148 206.685928,185.526819 209.11794,185.526819 C211.464619,185.526819 213.619264,185.921482 215.58194,186.710819 C217.544617,187.500156 219.229933,188.641478 220.63794,190.134819 C222.045947,191.62816 223.144603,193.441475 223.93394,195.574819 C224.723278,197.708163 225.11794,200.140138 225.11794,202.870819 C225.11794,202.870819 225.11794,200.140138 225.11794,202.870819 Z M252.57394,218.422819 L252.57394,201.014819 C252.57394,200.118814 252.499274,199.26549 252.34994,198.454819 C252.200606,197.644148 251.955275,196.929489 251.61394,196.310819 C251.272605,195.692149 250.79261,195.201487 250.17394,194.838819 C249.555271,194.47615 248.776612,194.294819 247.83794,194.294819 C246.899269,194.294819 246.077944,194.47615 245.37394,194.838819 C244.669937,195.201487 244.083276,195.702816 243.61394,196.342819 C243.144605,196.982822 242.792608,197.718815 242.55794,198.550819 C242.323272,199.382823 242.20594,200.246814 242.20594,201.142819 L242.20594,218.422819 L231.64594,218.422819 L231.64594,186.550819 L241.82194,186.550819 L241.82194,190.966819 L241.94994,190.966819 C242.333942,190.284149 242.835271,189.612155 243.45394,188.950819 C244.07261,188.289482 244.797936,187.724154 245.62994,187.254819 C246.461944,186.785483 247.368602,186.401487 248.34994,186.102819 C249.331279,185.804151 250.376601,185.654819 251.48594,185.654819 C253.619284,185.654819 255.4326,186.038815 256.92594,186.806819 C258.419281,187.574823 259.624602,188.566813 260.54194,189.782819 C261.459278,190.998825 262.120605,192.396144 262.52594,193.974819 C262.931276,195.553493 263.13394,197.132144 263.13394,198.710819 L263.13394,218.422819 L252.57394,218.422819 Z" id="Fill-14-copy" sketch:type="MSShapeGroup"></path>
        </g>
    </g>
</svg>