<?xml version="1.0" encoding="UTF-8" standalone="no"?>
<svg width="375px" height="300px" viewBox="0 0 375 300" version="1.1" xmlns="http://www.w3.org/2000/svg" xmlns:xlink="http://www.w3.org/1999/xlink" xmlns:sketch="http://www.bohemiancoding.com/sketch/ns">
    <title>verb-can</title>
    <description>Created with Sketch (http://www.bohemiancoding.com/sketch)</description>
    <defs></defs>
    <g id="Verbs-Copy" stroke="none" stroke-width="1" fill="none" fill-rule="evenodd" sketch:type="MSPage">
        <g id="verb-can" sketch:type="MSArtboardGroup" fill="#E03232">
            <path d="M187.499901,101.826788 C132.992525,101.826788 88.8056302,146.01388 88.8056302,200.521256 C88.8056302,255.028829 132.992525,299.215725 187.499901,299.215725 C242.007672,299.215725 286.19437,255.028829 286.19437,200.521256 C286.19437,146.01388 242.007672,101.826788 187.499901,101.826788 Z M145.905306,194.162195 C145.013873,193.016067 143.804089,192.092811 142.275918,191.392399 C140.747747,190.691988 139.187763,190.341787 137.595918,190.341787 C135.9404,190.341787 134.444088,190.67607 133.106939,191.344644 C131.769789,192.013219 130.623678,192.904639 129.668571,194.01893 C128.713465,195.133221 127.965309,196.422596 127.424082,197.887093 C126.882854,199.35159 126.612245,200.911575 126.612245,202.567093 C126.612245,204.222612 126.866936,205.782596 127.376327,207.247093 C127.885717,208.71159 128.633873,210.000965 129.620816,211.115257 C130.60776,212.229548 131.785707,213.105049 133.154694,213.741787 C134.52368,214.378525 136.067747,214.696889 137.786939,214.696889 C139.378783,214.696889 140.954686,214.394443 142.514694,213.789542 C144.074702,213.184641 145.33224,212.30914 146.287347,211.163012 L154.978776,221.764644 C153.004888,223.674858 150.457975,225.17117 147.337959,226.253624 C144.217944,227.336078 140.906956,227.877297 137.404898,227.877297 C133.648144,227.877297 130.146139,227.304242 126.898776,226.158114 C123.651412,225.011986 120.833889,223.340574 118.446122,221.143828 C116.058355,218.947082 114.180007,216.288742 112.81102,213.168726 C111.442034,210.04871 110.757551,206.514868 110.757551,202.567093 C110.757551,198.682992 111.442034,195.180986 112.81102,192.060971 C114.180007,188.940955 116.058355,186.282614 118.446122,184.085869 C120.833889,181.889123 123.651412,180.201793 126.898776,179.023828 C130.146139,177.845863 133.616308,177.256889 137.309388,177.256889 C139.02858,177.256889 140.731828,177.416071 142.419184,177.73444 C144.106539,178.052809 145.730196,178.482601 147.290204,179.023828 C148.850212,179.565055 150.282851,180.23362 151.588163,181.029542 C152.893476,181.825465 154.023669,182.700966 154.978776,183.656073 C154.978776,183.656073 154.023669,182.700966 154.978776,183.656073 L145.905306,194.162195 Z M189.266939,205.62342 L187.261224,205.62342 C185.542032,205.62342 183.806948,205.703011 182.055918,205.862195 C180.304889,206.02138 178.744905,206.323826 177.375918,206.769542 C176.006932,207.215259 174.876739,207.867905 173.985306,208.727501 C173.093873,209.587098 172.648163,210.71729 172.648163,212.118114 C172.648163,213.009547 172.8551,213.773621 173.26898,214.410359 C173.682859,215.047096 174.20816,215.556479 174.844898,215.938522 C175.481636,216.320565 176.213873,216.591174 177.041633,216.750359 C177.869392,216.909543 178.665302,216.989134 179.429388,216.989134 C182.613077,216.989134 185.048563,216.113633 186.735918,214.362603 C188.423274,212.611574 189.266939,210.239761 189.266939,207.247093 C189.266939,207.247093 189.266939,210.239761 189.266939,207.247093 L189.266939,205.62342 Z M160.518367,185.279746 C163.320014,182.605447 166.583247,180.599753 170.308163,179.262603 C174.03308,177.925454 177.837532,177.256889 181.721633,177.256889 C185.733081,177.256889 189.12366,177.750354 191.893469,178.737297 C194.663279,179.724241 196.907747,181.252389 198.626939,183.321787 C200.346131,185.391185 201.603669,188.001771 202.399592,191.153624 C203.195514,194.305476 203.593469,198.046255 203.593469,202.376073 L203.593469,226.349134 L189.266939,226.349134 L189.266939,221.287093 L188.980408,221.287093 C187.770606,223.260981 185.940012,224.789129 183.488571,225.871583 C181.037131,226.954037 178.37879,227.495257 175.513469,227.495257 C173.603256,227.495257 171.629398,227.240565 169.591837,226.731175 C167.554276,226.221785 165.691845,225.394038 164.00449,224.24791 C162.317134,223.101781 160.93225,221.573633 159.849796,219.66342 C158.767342,217.753206 158.226122,215.397311 158.226122,212.595665 C158.226122,209.15728 159.165297,206.387512 161.043673,204.286277 C162.92205,202.185042 165.341618,200.561385 168.302449,199.415257 C171.26328,198.269128 174.558349,197.505054 178.187755,197.123012 C181.817161,196.740969 185.351003,196.54995 188.789388,196.54995 L188.789388,195.785869 C188.789388,193.429939 187.961641,191.694854 186.306122,190.580563 C184.650604,189.466271 182.613073,188.909134 180.193469,188.909134 C177.964887,188.909134 175.815929,189.38668 173.746531,190.341787 C171.677133,191.296894 169.910211,192.443005 168.445714,193.780155 C168.445714,193.780155 169.910211,192.443005 168.445714,193.780155 L160.518367,185.279746 Z M246.477551,226.349134 L246.477551,200.370359 C246.477551,199.033209 246.366124,197.759752 246.143265,196.54995 C245.920407,195.340148 245.554288,194.273629 245.044898,193.350359 C244.535508,192.427089 243.819188,191.694851 242.895918,191.153624 C241.972648,190.612397 240.810619,190.341787 239.409796,190.341787 C238.008973,190.341787 236.783271,190.612397 235.732653,191.153624 C234.682036,191.694851 233.806534,192.443007 233.106122,193.398114 C232.405711,194.353221 231.88041,195.451577 231.530204,196.693216 C231.179998,197.934855 231.004898,199.224229 231.004898,200.561379 L231.004898,226.349134 L215.245714,226.349134 L215.245714,178.785052 L230.431837,178.785052 L230.431837,185.375257 L230.622857,185.375257 C231.195921,184.356476 231.944077,183.353629 232.867347,182.366685 C233.790617,181.379741 234.873055,180.536076 236.114694,179.835665 C237.356333,179.135253 238.70938,178.562198 240.173878,178.116481 C241.638375,177.670765 243.198359,177.44791 244.853878,177.44791 C248.037567,177.44791 250.743662,178.020965 252.972245,179.167093 C255.200827,180.313221 256.999585,181.793615 258.368571,183.608318 C259.737558,185.423021 260.724487,187.508306 261.329388,189.864236 C261.934289,192.220166 262.236735,194.576061 262.236735,196.931991 L262.236735,226.349134 L246.477551,226.349134 Z M246.477551,226.349134" id="Fill-14-copy" sketch:type="MSShapeGroup"></path>
        </g>
    </g>
</svg>